P2
# Created by the Paint.NET plugin 'ImPNM.FileType'
100 100
255
2 2 2 2 2 3 4 4 4 6 6 8 9 11 12 15 17 19 22 25 27 31 34 38 42 46 50 55
61 66 71 77 82 88 94 100 106 114 120 127 133 140 146 153 159 165 171
177 183 188 194 198 203 207 212 216 220 223 226 229 232 235 238 240 242
244 244 246 248 248 250 250 250 251 253 253 254 254 254 254 254 254 254
254 254 254 254 254 254 254 254 254 254 254 254 254 254 254 254 254 2 2
2 2 2 3 4 4 4 6 6 8 9 11 12 15 17 19 22 25 27 31 34 38 42 46 50 55 61
66 71 77 82 88 94 100 106 114 120 127 133 140 146 153 159 165 171 177
183 188 194 198 203 207 212 216 220 223 226 229 232 235 238 240 242 244
244 246 248 248 250 250 250 251 253 253 254 254 254 254 254 254 254 254
254 254 254 254 254 254 254 254 254 254 254 254 254 254 254 254 2 2 2 2
2 3 4 4 4 6 6 8 9 11 12 15 17 19 22 25 27 31 34 38 42 46 50 55 61 66 71
77 82 88 94 100 106 114 120 127 133 140 146 153 159 165 171 177 183 188
194 198 203 207 212 216 220 223 226 229 232 235 238 240 242 244 244 246
248 248 250 250 250 251 253 253 254 254 254 254 254 254 254 254 254 254
254 254 254 254 254 254 254 254 254 254 254 254 254 254 2 2 2 2 2 3 4 4
4 6 6 8 9 11 12 15 17 19 22 25 27 31 34 38 42 46 50 55 61 66 71 77 82
88 94 100 106 114 120 127 134 140 146 153 159 165 171 177 183 188 194
198 203 207 212 216 220 223 226 229 232 235 238 240 242 244 244 246 248
248 250 250 250 251 253 253 254 254 254 254 254 254 254 254 254 254 254
254 254 254 254 254 254 254 254 254 254 254 254 254 2 2 2 2 2 3 4 4 4 6
6 8 9 11 12 15 17 19 22 25 27 31 34 38 42 46 50 55 61 66 71 77 82 88 94
100 106 114 121 127 134 140 146 153 159 165 171 177 183 188 194 198 203
207 212 216 220 223 226 229 232 235 238 240 242 244 244 246 248 248 250
250 250 251 253 253 254 254 254 254 254 254 254 254 254 254 254 254 254
254 254 254 254 254 254 254 254 254 254 254 2 2 2 2 2 3 4 4 4 6 6 8 9
11 12 15 17 19 22 25 27 31 34 38 42 46 50 55 61 66 71 77 82 88 94 100
106 114 121 127 134 140 147 153 159 165 171 177 183 188 194 198 203 207
212 216 220 223 226 229 232 235 238 240 242 244 244 246 248 248 250 250
250 251 253 253 254 254 254 254 254 254 254 254 254 254 254 254 254 254
254 254 254 254 254 254 254 254 254 254 2 2 2 2 2 3 4 4 4 6 6 8 9 11 12
15 17 19 22 25 27 31 34 38 42 46 50 55 61 66 71 77 82 88 94 100 108 114
121 127 134 140 147 153 159 165 171 177 183 188 194 198 203 207 212 216
220 223 226 229 232 235 238 240 242 244 244 246 248 248 250 250 250 251
253 253 254 254 254 254 254 254 254 254 254 254 254 254 254 254 254 254
254 254 254 254 254 254 254 254 2 2 2 2 2 3 4 4 4 6 6 8 9 11 12 15 17
19 22 25 27 31 34 38 42 46 50 55 61 66 71 77 82 88 94 100 108 114 121
127 134 140 147 153 159 165 171 177 183 188 194 198 203 207 212 216 220
223 226 229 232 235 238 240 242 244 244 246 248 248 250 250 250 251 253
253 254 254 254 254 254 254 254 254 254 254 254 254 254 254 254 254 254
254 254 254 254 254 254 254 2 2 2 2 2 3 4 4 4 6 6 8 9 11 12 15 17 19 22
25 27 31 34 38 42 46 50 55 61 66 71 77 82 88 94 100 108 114 121 127 134
140 147 153 159 165 171 177 183 188 194 198 203 207 212 216 220 223 226
229 232 235 238 240 242 244 244 246 248 248 250 250 250 251 253 253 254
254 254 254 254 254 254 254 254 254 254 254 254 254 254 254 254 254 254
254 254 254 254 254 2 2 2 2 2 3 4 4 4 6 6 8 9 11 12 15 17 19 22 25 27
31 34 38 42 46 50 55 61 66 71 77 82 88 94 100 108 114 121 127 134 140
147 153 159 165 171 177 183 188 194 198 203 207 212 216 220 223 226 229
232 235 238 240 242 244 244 246 248 248 250 250 250 251 253 253 254 254
254 254 254 254 254 254 254 254 254 254 254 254 254 254 254 254 254 254
254 254 254 254 2 2 2 2 2 3 4 4 4 6 6 8 9 11 12 15 17 19 22 25 27 31 34
38 42 46 50 55 61 66 71 77 82 88 94 100 108 114 121 127 134 140 147 153
159 165 171 177 183 188 194 198 203 207 212 216 220 223 226 229 232 235
238 240 242 243 244 246 248 248 250 250 250 251 253 253 254 254 254 254
254 254 254 254 254 254 254 254 254 254 254 254 254 254 254 254 254 254
254 254 2 2 2 2 2 3 4 4 4 6 6 8 9 11 12 15 17 19 22 25 27 31 34 38 42
46 50 55 61 66 71 77 82 88 94 100 108 114 121 127 134 140 146 153 159
165 171 177 183 188 194 198 203 207 212 216 220 223 226 229 232 235 238
240 242 243 244 246 248 248 250 250 250 251 253 253 254 254 254 254 254
254 254 254 254 254 254 254 254 254 254 254 254 254 254 254 254 254 254
254 2 2 2 2 2 3 4 4 4 6 6 8 9 11 12 15 17 19 22 25 27 31 34 38 42 46 50
55 61 66 71 77 82 88 94 100 106 114 120 127 133 140 146 153 159 165 171
177 183 188 194 198 203 207 212 216 220 223 226 229 232 235 237 240 242
243 244 246 248 248 250 250 250 251 253 253 254 254 254 254 254 254 254
254 254 254 254 254 254 254 254 254 254 254 254 254 254 254 254 254 2 2
2 2 2 3 4 4 4 6 6 8 9 11 12 15 17 19 22 25 27 31 34 38 42 46 50 55 61
66 71 77 82 88 94 100 106 114 120 127 133 140 146 153 159 165 171 177
183 188 192 198 203 207 212 216 220 223 226 229 232 235 237 238 241 243
244 246 248 248 250 250 250 251 253 253 254 254 254 254 254 254 254 254
254 254 254 254 254 254 254 254 254 254 254 254 254 254 254 254 2 2 2 2
2 3 4 4 4 6 6 8 9 11 12 15 17 19 22 25 27 31 34 38 42 46 50 55 61 65 71
77 82 88 94 100 106 114 120 127 133 140 146 153 159 165 171 177 183 188
192 198 203 207 212 216 220 223 226 229 232 235 237 238 241 243 244 246
248 248 250 250 250 251 253 253 254 254 254 254 254 254 254 254 254 254
254 254 254 254 254 254 254 254 254 254 254 254 254 254 2 2 2 2 2 3 4 4
4 6 6 8 9 11 12 15 17 19 22 25 27 31 34 38 42 46 50 55 60 65 71 77 82
88 94 100 106 114 120 127 133 140 146 153 159 165 171 177 182 188 192
198 203 207 212 216 220 223 226 229 232 235 237 238 241 243 244 246 248
248 250 250 250 251 251 253 254 254 254 254 254 254 254 254 254 254 254
254 254 254 254 254 254 254 254 254 254 254 254 254 2 2 2 2 2 3 4 4 4 6
6 8 9 11 12 15 17 19 22 25 27 31 34 38 42 46 50 55 60 65 71 77 82 88 94
100 106 113 120 125 133 139 146 152 159 165 171 177 182 188 192 198 203
207 212 216 219 223 226 229 232 235 237 238 241 243 244 246 247 248 250
250 250 251 251 253 254 254 254 254 254 254 254 254 254 254 254 254 254
254 254 254 254 254 254 254 254 254 254 254 2 2 2 2 2 3 4 4 4 6 6 8 9
11 12 15 17 19 22 24 27 31 34 38 42 46 50 55 60 65 71 76 82 88 94 100
106 113 120 125 133 139 146 152 158 164 170 177 182 187 192 198 203 207
212 216 219 223 226 229 232 235 237 238 241 243 244 246 247 248 248 250
250 251 251 253 253 254 254 254 254 254 254 254 254 254 254 254 254 254
254 254 254 254 254 254 254 254 254 254 2 2 2 2 2 3 4 4 4 6 6 8 9 11 12
15 17 19 22 24 27 31 34 38 42 46 50 55 60 65 71 76 82 88 94 100 106 113
119 125 132 139 145 152 158 164 170 176 182 187 192 198 201 207 212 215
219 223 226 229 232 235 237 238 241 243 244 246 247 248 248 250 250 251
251 253 253 254 254 254 254 254 254 254 254 254 254 254 254 254 254 254
254 254 254 254 254 254 254 254 2 2 2 2 2 3 4 4 4 6 6 8 9 11 12 15 17
19 21 24 27 30 34 38 42 46 50 55 60 65 70 76 82 87 94 100 106 113 119
125 132 139 145 152 158 164 170 176 181 187 192 197 201 207 210 215 219
223 226 229 232 235 237 238 241 243 244 246 247 248 248 250 250 251 251
253 253 254 254 254 254 254 254 254 254 254 254 254 254 254 254 254 254
254 254 254 254 254 254 254 2 2 2 2 2 3 4 4 4 6 6 8 9 11 12 13 17 19 21
24 27 30 33 37 41 45 50 55 58 64 70 76 81 87 93 100 106 111 119 125 132
138 145 151 156 163 170 176 181 187 192 197 201 206 210 215 219 222 226
229 232 234 237 238 241 243 244 246 247 248 248 250 250 251 251 253 253
254 254 254 254 254 254 254 254 254 254 254 254 254 254 254 254 254 254
254 254 254 254 254 1 2 2 2 2 3 4 4 4 6 6 8 9 11 12 13 17 19 21 24 27
30 33 37 41 45 50 54 58 64 70 75 81 87 93 99 104 111 117 125 131 138
144 151 156 163 169 175 181 186 192 197 201 206 210 215 218 222 226 228
231 234 237 238 241 243 244 246 247 248 248 250 250 251 251 253 253 254
254 254 254 254 254 254 254 254 254 254 254 254 254 254 254 254 254 254
254 254 254 254 1 2 2 2 2 3 3 4 4 6 6 8 9 11 12 13 17 19 21 24 27 30 33
37 41 45 48 54 58 64 69 75 81 85 93 99 104 111 117 124 131 137 144 150
156 163 169 175 180 186 190 195 201 206 209 213 218 222 225 228 231 234
235 238 241 243 244 244 247 248 248 250 250 251 251 253 253 254 254 254
254 254 254 254 254 254 254 254 254 254 254 254 254 254 254 254 254 254
254 254 1 2 2 2 2 3 3 4 4 6 6 8 9 11 12 13 16 19 21 24 27 30 33 37 41
45 48 54 58 62 69 74 79 85 92 97 103 111 117 124 130 137 143 150 156
162 168 174 180 184 190 195 201 204 209 213 218 220 225 228 231 234 235
238 240 242 244 244 247 248 248 250 250 251 251 253 253 254 254 254 254
254 254 254 254 254 254 254 254 254 254 254 254 254 254 254 254 254 254
254 1 2 2 2 2 3 3 4 4 6 6 8 9 11 12 13 16 18 21 23 25 29 33 36 39 44 48
53 58 62 68 74 79 85 92 97 103 110 117 123 130 136 143 149 155 162 168
174 178 184 189 195 200 204 209 213 217 220 225 228 231 232 235 238 240
242 244 244 247 248 248 250 250 250 251 253 253 254 254 254 254 254 254
254 254 254 254 254 254 254 254 254 254 254 254 254 254 254 254 254 1 1
2 2 2 3 3 4 4 6 6 8 9 11 12 13 16 18 19 23 25 29 32 36 39 44 48 53 58
62 68 74 79 85 91 97 103 110 116 123 129 136 142 149 155 161 167 173
178 184 189 195 200 203 209 213 217 220 223 226 229 232 235 238 240 242
244 244 247 248 248 250 250 250 251 253 253 254 254 254 254 254 254 254
254 254 254 254 254 254 254 254 254 254 254 254 254 254 254 254 1 1 2 2
2 3 3 4 4 6 6 8 9 11 12 13 16 18 19 23 25 29 32 36 39 42 48 53 57 62 67
73 79 84 90 97 103 109 116 122 128 135 141 148 154 159 165 173 177 184
189 194 198 203 209 213 216 220 223 226 229 232 235 238 240 242 243 244
246 248 248 250 250 250 251 253 253 253 254 254 254 254 254 254 254 254
254 254 254 254 254 254 254 254 254 254 254 254 254 254 1 1 2 2 2 3 3 4
4 6 6 6 9 9 12 13 16 18 19 23 25 29 32 35 39 42 47 51 57 61 67 72 78 84
90 96 101 108 114 121 128 134 141 147 153 159 165 171 177 183 189 194
198 203 207 212 216 220 223 226 229 232 235 237 238 242 243 244 246 247
248 248 250 250 251 251 253 253 254 254 254 254 254 254 254 254 254 254
254 254 254 254 254 254 254 254 254 254 254 254 1 1 2 2 2 3 3 4 4 4 6 6
9 9 12 12 15 18 19 22 25 27 31 35 39 42 47 51 55 61 66 72 77 82 88 94
100 108 114 120 127 133 140 146 153 159 165 171 177 182 188 192 198 203
207 212 215 219 223 226 229 232 235 237 238 241 243 244 246 247 248 248
250 250 251 251 253 253 254 254 254 254 254 254 254 254 254 254 254 254
254 254 254 254 254 254 254 254 254 254 1 1 2 2 2 3 3 4 4 4 6 6 9 9 12
12 15 17 19 22 25 27 31 35 38 42 46 50 55 60 66 71 77 82 88 94 100 106
113 120 125 133 139 146 152 158 164 170 176 182 187 192 197 201 207 210
215 219 223 226 229 232 234 237 238 241 243 244 246 247 248 248 250 250
251 251 253 253 254 254 254 254 254 254 254 254 254 254 254 254 254 254
254 254 254 254 254 254 254 254 1 1 1 2 2 2 3 4 4 4 6 6 8 9 11 12 15 17
19 22 25 27 30 34 38 42 46 50 55 60 65 70 76 81 88 94 100 106 111 119
125 132 138 145 151 156 163 169 175 181 186 192 197 201 206 209 213 218
222 225 228 231 234 235 238 241 242 244 246 247 248 248 250 250 251 251
253 253 254 254 254 254 254 254 254 254 254 254 254 254 254 254 254 254
254 254 254 254 254 254 1 1 1 2 2 2 3 3 4 4 6 6 8 9 11 12 15 17 19 21
24 27 30 34 37 41 45 50 54 58 64 70 75 81 87 93 99 104 111 117 124 131
137 144 150 156 162 169 174 180 186 190 195 201 206 209 213 218 220 225
228 231 234 235 238 240 242 244 244 247 248 248 250 250 250 251 253 253
254 254 254 254 254 254 254 254 254 254 254 254 254 254 254 254 254 254
254 254 254 254 1 1 1 2 2 2 3 3 4 4 6 6 8 9 11 12 15 17 19 21 24 27 30
33 37 41 45 48 54 58 64 69 74 79 85 92 97 103 111 117 123 130 136 143
149 155 161 168 173 178 184 189 195 200 204 209 213 217 220 223 226 231
232 235 238 240 242 243 244 247 248 248 250 250 250 251 253 253 254 254
254 254 254 254 254 254 254 254 254 254 254 254 254 254 254 254 254 254
254 254 1 1 1 2 2 2 3 3 4 4 6 6 8 9 11 12 13 16 18 21 24 25 29 33 36 39
44 48 53 58 62 68 73 79 85 91 97 103 110 116 122 129 135 142 148 154
161 167 171 177 184 189 194 198 203 207 212 217 220 223 226 229 232 235
237 240 241 243 244 246 247 248 250 250 250 251 253 253 253 254 254 254
254 254 254 254 254 254 254 254 254 254 254 254 254 254 254 254 254 254
1 1 1 1 2 2 3 3 4 4 6 6 8 9 9 12 13 16 18 19 23 25 29 32 36 39 42 48 51
57 62 67 73 78 84 90 96 101 109 114 121 128 134 141 147 153 159 165 171
177 183 188 192 198 203 207 212 216 220 223 226 229 232 235 237 238 241
243 244 246 247 248 250 250 250 251 251 253 253 254 254 254 254 254 254
254 254 254 254 254 254 254 254 254 254 254 254 254 254 254 1 1 1 1 2 2
3 3 4 4 4 6 8 9 9 12 13 16 18 19 23 25 27 32 35 39 42 47 51 55 61 66 72
77 82 88 94 100 108 114 120 127 133 140 146 152 158 165 171 176 182 187
192 198 203 207 210 215 219 222 226 229 232 234 237 238 241 243 244 246
247 248 248 250 250 251 251 253 253 254 254 254 254 254 254 254 254 254
254 254 254 254 254 254 254 254 254 254 254 254 1 1 1 1 2 2 3 3 4 4 4 6
6 9 9 11 12 15 17 19 22 25 27 31 35 38 42 46 50 55 60 66 71 76 82 88 94
100 106 113 119 125 132 139 145 151 156 164 170 175 181 187 192 197 201
206 209 215 219 222 225 229 231 234 235 238 241 242 244 246 247 248 248
250 250 251 251 253 253 254 254 254 254 254 254 254 254 254 254 254 254
254 254 254 254 254 254 254 254 254 1 1 1 1 1 2 2 3 4 4 4 6 6 9 9 11 12
15 17 19 22 24 27 31 34 37 41 46 50 54 58 65 70 75 81 87 93 99 104 111
117 125 131 137 144 150 156 163 168 174 180 186 190 195 201 204 209 213
218 220 225 228 231 232 235 238 240 242 244 244 247 248 248 250 250 250
251 253 253 254 254 254 254 254 254 254 254 254 254 254 254 254 254 254
254 254 254 254 254 254 1 1 1 1 1 2 2 3 3 4 4 6 6 8 9 11 12 15 16 19 21
24 27 30 33 37 41 45 48 54 58 64 69 74 79 85 92 97 103 111 117 123 130
136 143 149 155 162 167 173 178 184 189 195 200 204 209 213 217 220 223
226 229 232 235 238 240 242 244 244 246 248 248 250 250 250 251 253 253
254 254 254 254 254 254 254 254 254 254 254 254 254 254 254 254 254 254
254 254 254 1 1 1 1 1 2 2 3 3 4 4 6 6 8 9 11 12 13 16 18 21 23 25 29 33
36 39 44 48 53 58 62 68 73 79 85 91 97 103 109 116 122 129 135 142 148
154 159 165 171 177 184 189 194 198 203 207 212 217 220 223 226 229 232
235 238 238 241 243 244 246 247 248 250 250 250 251 251 253 253 254 254
254 254 254 254 254 254 254 254 254 254 254 254 254 254 254 254 254 254
1 1 1 1 1 2 2 3 3 4 4 6 6 8 9 9 12 13 16 18 21 23 25 29 32 36 39 44 48
51 57 62 67 72 78 84 90 96 101 108 114 121 128 134 140 147 153 159 165
171 177 183 188 192 198 203 207 212 216 219 223 226 229 232 235 237 238
241 243 244 246 247 248 248 250 250 251 251 253 253 254 254 254 254 254
254 254 254 254 254 254 254 254 254 254 254 254 254 254 254 1 1 1 1 1 2
2 3 3 4 4 4 6 8 9 9 12 13 15 18 19 23 25 27 32 35 39 42 47 50 55 61 66
71 77 82 88 94 100 106 113 120 125 133 139 146 152 158 164 170 176 182
187 192 198 201 206 210 215 219 222 226 229 231 234 237 238 241 243 244
246 247 248 248 250 250 251 251 253 253 254 254 254 254 254 254 254 254
254 254 254 254 254 254 254 254 254 254 254 254 0 1 1 1 1 2 2 2 3 4 4 4
6 6 9 9 12 12 15 17 19 22 25 27 31 34 38 42 46 50 55 60 65 70 76 82 87
94 100 106 111 119 125 132 138 145 151 156 163 169 175 181 186 190 197
201 206 209 213 218 222 225 228 231 234 235 238 240 242 244 244 247 248
248 250 250 251 251 253 253 254 254 254 254 254 254 254 254 254 254 254
254 254 254 254 254 254 254 254 254 0 1 1 1 1 1 2 2 3 4 4 4 6 6 8 9 11
12 15 17 19 22 24 27 30 34 37 41 45 48 54 58 64 69 75 81 85 92 99 104
111 117 124 131 137 143 150 156 162 168 174 180 184 189 195 200 204 209
213 217 220 225 228 231 232 235 238 240 242 244 244 247 248 248 250 250
250 251 253 253 254 254 254 254 254 254 254 254 254 254 254 254 254 254
254 254 254 254 254 254 0 0 1 1 1 1 2 2 3 3 4 4 6 6 8 9 11 12 13 16 19
21 24 27 30 33 37 41 45 48 53 58 62 68 74 79 85 91 97 103 110 117 123
129 136 142 149 155 161 167 173 178 184 189 195 200 203 209 213 217 220
223 226 229 232 235 238 240 242 243 244 246 248 248 250 250 250 251 253
253 254 254 254 254 254 254 254 254 254 254 254 254 254 254 254 254 254
254 254 254 0 0 1 1 1 1 2 2 3 3 4 4 6 6 8 9 11 12 13 16 18 21 23 25 29
32 36 39 44 48 53 57 62 67 73 79 84 90 97 103 109 114 122 128 135 141
148 154 159 165 171 177 183 189 194 198 203 207 212 216 220 223 226 229
232 235 237 238 241 243 244 246 248 248 248 250 250 251 251 253 253 254
254 254 254 254 254 254 254 254 254 254 254 254 254 254 254 254 254 254
0 0 1 1 1 1 2 2 3 3 4 4 6 6 8 9 9 12 13 16 18 19 23 25 29 32 35 39 42
47 51 57 61 66 72 78 82 88 94 101 108 114 121 127 134 140 146 153 159
165 171 177 182 188 192 198 203 207 212 216 219 223 226 229 232 235 237
238 241 243 244 246 247 248 248 250 250 251 251 253 253 254 254 254 254
254 254 254 254 254 254 254 254 254 254 254 254 254 254 254 0 0 0 1 1 1
2 2 2 3 4 4 4 6 6 9 9 12 12 15 18 19 22 25 27 31 35 39 42 46 50 55 61
66 71 77 82 88 94 100 106 113 120 125 132 139 145 152 158 164 170 176
181 187 192 197 201 207 210 215 219 222 226 229 232 234 237 238 241 243
244 246 247 248 248 250 250 251 251 253 253 254 254 254 254 254 254 254
254 254 254 254 254 254 254 254 254 254 254 254 0 0 0 1 1 1 2 2 2 3 4 4
4 6 6 8 9 11 12 15 17 19 22 25 27 31 34 38 42 46 50 55 60 65 70 76 81
87 93 100 106 111 119 125 131 138 144 151 156 163 169 175 181 186 192
195 201 206 209 213 218 222 225 228 231 234 235 238 241 242 244 244 247
248 248 250 250 251 251 253 253 254 254 254 254 254 254 254 254 254 254
254 254 254 254 254 254 254 254 254 0 0 0 1 1 1 1 2 2 3 4 4 4 6 6 8 9
11 12 15 17 19 21 24 27 30 33 37 41 45 50 54 58 64 69 75 79 85 92 99
104 111 117 124 130 137 143 150 156 162 168 174 180 184 190 195 200 204
209 213 218 220 225 228 231 234 235 238 240 242 244 244 247 248 248 250
250 250 251 253 253 254 254 254 254 254 254 254 254 254 254 254 254 254
254 254 254 254 254 254 0 0 0 0 1 1 1 2 2 3 3 4 4 6 6 8 9 11 12 13 16
19 21 24 27 30 33 37 39 44 48 53 58 62 69 74 79 85 91 97 103 110 117
123 129 136 142 149 155 161 167 173 178 184 189 195 200 204 209 213 217
220 223 226 229 232 235 238 240 242 244 244 247 248 248 250 250 250 251
253 253 254 254 254 254 254 254 254 254 254 254 254 254 254 254 254 254
254 254 254 0 0 0 0 1 1 1 2 2 3 3 4 4 6 6 8 9 11 12 13 16 18 19 23 25
29 32 36 39 44 48 53 57 62 68 73 79 84 91 97 103 109 116 122 128 135
141 148 154 159 165 171 177 184 189 194 198 203 209 213 216 220 223 226
229 232 235 238 240 242 243 244 247 248 248 250 250 250 251 253 253 254
254 254 254 254 254 254 254 254 254 254 254 254 254 254 254 254 254 254
0 0 0 0 1 1 1 2 2 3 3 4 4 6 6 8 9 9 12 13 16 18 19 23 25 29 32 36 39 42
47 51 57 61 67 72 78 84 90 96 101 108 114 121 128 134 141 147 153 159
165 171 177 183 189 194 198 203 207 212 216 220 223 226 229 232 235 237
240 241 243 244 246 247 248 250 250 250 251 253 253 253 254 254 254 254
254 254 254 254 254 254 254 254 254 254 254 254 254 254 0 0 0 0 1 1 1 2
2 3 3 4 4 4 6 6 9 9 12 12 16 18 19 22 25 27 31 35 39 42 47 50 55 61 66
72 77 82 88 94 100 106 114 120 127 133 140 146 152 159 165 171 177 182
188 192 198 203 207 210 215 220 223 226 229 232 235 237 238 241 243 244
246 247 248 248 250 250 251 253 253 253 254 254 254 254 254 254 254 254
254 254 254 254 254 254 254 254 254 254 0 0 0 0 0 1 1 1 2 2 3 4 4 4 6 6
9 9 11 12 15 17 19 22 25 27 31 34 38 42 46 50 55 60 65 71 76 82 88 94
100 106 113 119 125 132 139 145 152 158 164 170 176 182 187 192 197 201
207 210 215 219 223 226 229 232 234 237 238 241 243 244 246 247 248 248
250 250 251 251 253 253 254 254 254 254 254 254 254 254 254 254 254 254
254 254 254 254 254 254 0 0 0 0 0 1 1 1 2 2 3 3 4 4 6 6 8 9 11 12 15 17
19 22 24 27 30 34 38 41 46 50 55 58 65 70 76 81 87 93 99 106 111 119
125 132 138 145 151 156 163 169 175 181 187 192 197 201 206 210 215 219
222 225 229 232 234 235 238 241 243 244 246 247 248 248 250 250 251 251
253 253 254 254 254 254 254 254 254 254 254 254 254 254 254 254 254 254
254 254 0 0 0 0 0 1 1 1 2 2 3 3 4 4 6 6 8 9 11 12 15 17 19 21 24 27 30
34 37 41 45 50 54 58 64 70 75 81 87 93 99 104 111 117 124 131 137 144
150 156 163 169 175 180 186 190 195 201 206 209 213 218 222 225 228 231
234 235 238 241 242 244 246 247 248 248 250 250 251 251 253 253 254 254
254 254 254 254 254 254 254 254 254 254 254 254 254 254 254 254 0 0 0 0
0 1 1 1 2 2 3 3 4 4 6 6 8 9 11 12 15 16 18 21 24 27 30 33 37 39 45 48
54 58 64 69 74 79 85 92 97 103 111 117 124 130 137 143 150 156 162 168
174 180 186 190 195 201 206 209 213 218 220 225 228 231 234 235 238 241
242 244 246 247 248 248 250 250 251 251 253 253 254 254 254 254 254 254
254 254 254 254 254 254 254 254 254 254 254 254 0 0 0 0 0 1 1 1 2 2 3 3
4 4 6 6 8 9 11 12 13 16 18 21 24 25 29 33 36 39 44 48 53 58 62 68 74 79
85 91 97 103 110 117 123 130 136 143 149 155 162 168 173 178 184 189
195 200 204 209 213 218 220 223 228 231 232 235 238 240 242 244 246 247
248 248 250 250 251 251 253 253 254 254 254 254 254 254 254 254 254 254
254 254 254 254 254 254 254 254 0 0 0 0 0 1 1 1 2 2 3 3 4 4 6 6 8 9 11
12 13 16 18 21 23 25 29 33 36 39 44 48 53 57 62 68 73 79 85 91 97 103
110 116 123 129 136 142 149 155 161 167 173 178 184 189 195 200 204 209
213 217 220 223 228 231 232 235 238 240 242 244 244 247 248 248 250 250
250 251 253 253 254 254 254 254 254 254 254 254 254 254 254 254 254 254
254 254 254 254 0 0 0 0 0 1 1 1 2 2 3 3 4 4 6 6 8 9 9 12 13 16 18 19 23
25 29 32 36 39 44 48 51 57 62 68 73 79 85 90 96 103 109 116 122 129 135
142 148 154 161 167 173 177 184 189 195 200 203 209 213 217 220 223 226
231 232 235 238 240 242 244 244 247 248 248 250 250 250 251 253 253 254
254 254 254 254 254 254 254 254 254 254 254 254 254 254 254 254 254 0 0
0 0 0 1 1 1 2 2 3 3 4 4 4 6 8 9 9 12 13 16 18 19 23 25 29 32 36 39 42
48 51 57 62 67 72 78 84 90 96 101 109 114 122 128 135 141 148 154 159
165 171 177 184 189 194 198 203 207 213 217 220 223 226 229 232 235 238
240 242 243 244 246 248 248 250 250 250 251 253 253 254 254 254 254 254
254 254 254 254 254 254 254 254 254 254 254 254 254 0 0 0 0 0 1 1 1 2 2
3 3 4 4 4 6 8 9 9 12 13 16 18 19 23 25 27 32 35 39 42 47 51 55 62 67 72
78 84 90 96 101 108 114 121 128 134 141 147 154 159 165 171 177 184 189
194 198 203 207 212 217 220 223 226 229 232 235 238 240 242 243 244 246
248 248 250 250 250 251 253 253 254 254 254 254 254 254 254 254 254 254
254 254 254 254 254 254 254 254 0 0 0 0 0 1 1 1 2 2 3 3 4 4 4 6 8 9 9
12 13 16 17 19 23 25 27 32 35 39 42 47 51 55 62 67 72 78 84 88 94 101
108 114 121 128 134 141 147 153 159 165 171 177 183 189 194 198 203 207
212 217 220 223 226 229 232 235 238 240 242 243 244 246 248 248 250 250
250 251 253 253 254 254 254 254 254 254 254 254 254 254 254 254 254 254
254 254 254 254 0 0 0 0 0 1 1 1 2 2 2 3 4 4 4 6 8 9 9 12 13 15 17 19 23
25 27 32 35 39 42 47 50 55 61 66 72 77 82 88 94 101 108 114 121 127 134
140 147 153 159 165 171 177 183 188 194 198 203 207 212 216 220 223 226
229 232 235 238 240 241 243 244 246 247 248 250 250 250 251 253 253 254
254 254 254 254 254 254 254 254 254 254 254 254 254 254 254 254 254 0 0
0 0 0 1 1 1 1 2 2 3 4 4 4 6 8 9 9 12 13 15 17 19 22 25 27 32 35 38 42
47 50 55 61 66 72 77 82 88 94 100 108 114 121 127 134 140 147 153 159
165 171 177 183 188 192 198 203 207 212 216 220 223 226 229 232 235 237
240 241 243 244 246 247 248 250 250 250 251 253 253 254 254 254 254 254
254 254 254 254 254 254 254 254 254 254 254 254 254 0 0 0 0 0 1 1 1 2 2
2 3 4 4 4 6 8 9 9 12 13 15 17 19 23 25 27 32 35 38 42 47 50 55 61 66 72
77 82 88 94 100 108 114 121 127 134 140 147 153 159 165 171 177 183 188
192 198 203 207 212 216 220 223 226 229 232 235 237 240 241 243 244 246
247 248 250 250 250 251 253 253 254 254 254 254 254 254 254 254 254 254
254 254 254 254 254 254 254 254 0 0 0 0 0 1 1 1 2 2 3 3 4 4 4 6 8 9 9
12 13 15 17 19 23 25 27 32 35 38 42 47 50 55 61 66 72 77 82 88 94 100
108 114 121 127 134 140 147 153 159 165 171 177 183 188 192 198 203 207
212 216 220 223 226 229 232 235 237 240 241 243 244 246 247 248 250 250
250 251 253 253 254 254 254 254 254 254 254 254 254 254 254 254 254 254
254 254 254 254 0 0 0 0 0 1 1 1 2 2 3 3 4 4 4 6 8 9 9 12 13 15 17 19 23
25 27 32 35 39 42 47 50 55 61 66 72 77 82 88 94 100 108 114 121 127 134
140 147 153 159 165 171 177 183 188 192 198 203 207 212 216 220 223 226
229 232 235 237 240 241 243 244 246 247 248 250 250 250 251 253 253 253
254 254 254 254 254 254 254 254 254 254 254 254 254 254 254 254 254 0 0
0 0 0 1 1 1 2 2 3 3 4 4 4 6 8 9 9 12 13 16 17 19 23 25 27 32 35 39 42
47 51 55 61 67 72 77 82 88 94 101 108 114 121 127 134 140 147 153 159
165 171 177 183 188 192 198 203 207 212 216 220 223 226 229 232 235 237
240 241 243 244 246 247 248 250 250 250 251 253 253 254 254 254 254 254
254 254 254 254 254 254 254 254 254 254 254 254 254 0 0 0 0 0 1 1 1 2 2
3 3 4 4 6 6 8 9 9 12 13 16 18 19 23 25 27 32 35 39 42 47 51 55 62 67 72
78 84 90 96 101 108 114 121 128 134 141 147 153 159 165 171 177 183 188
194 198 203 207 212 216 220 223 226 229 232 235 238 240 241 243 244 246
247 248 250 250 250 251 253 253 254 254 254 254 254 254 254 254 254 254
254 254 254 254 254 254 254 254 0 0 0 0 0 1 1 1 2 2 3 3 4 4 6 6 8 9 9
12 13 16 18 19 23 25 29 32 36 39 42 48 51 57 62 67 72 78 84 90 96 101
109 114 121 128 134 141 147 153 159 165 171 177 183 189 194 198 203 207
212 216 220 223 226 229 232 235 238 240 241 243 244 246 247 248 250 250
250 251 253 253 254 254 254 254 254 254 254 254 254 254 254 254 254 254
254 254 254 254 0 0 0 0 0 1 1 1 2 2 3 3 4 4 6 6 8 9 11 12 13 16 18 21
23 25 29 32 36 39 44 48 51 57 62 67 73 78 84 90 96 101 109 114 122 128
135 141 147 154 159 165 171 177 184 189 194 198 203 207 212 217 220 223
226 229 232 235 238 240 242 243 244 246 248 248 250 250 250 251 253 253
254 254 254 254 254 254 254 254 254 254 254 254 254 254 254 254 254 254
0 0 0 0 0 1 1 1 2 2 3 3 4 4 6 6 8 9 11 12 13 16 18 21 23 25 29 33 36 39
44 48 53 57 62 68 73 79 85 91 97 103 109 116 122 129 135 142 148 154
159 167 171 177 184 189 194 198 203 207 213 217 220 223 226 229 232 235
238 240 242 243 244 246 248 248 250 250 250 251 253 253 254 254 254 254
254 254 254 254 254 254 254 254 254 254 254 254 254 254 0 0 0 0 0 1 1 1
2 2 3 3 4 4 6 6 8 9 11 12 15 16 18 21 24 25 30 33 37 39 44 48 53 58 62
68 74 79 85 91 97 103 110 116 123 129 136 142 148 155 161 167 173 178
184 189 195 200 203 209 213 217 220 223 226 229 232 235 238 240 242 243
244 246 248 248 250 250 250 251 253 253 254 254 254 254 254 254 254 254
254 254 254 254 254 254 254 254 254 254 0 0 0 0 0 1 1 1 2 2 3 3 4 4 6 6
8 9 11 12 15 17 19 21 24 27 30 33 37 39 45 48 54 58 64 69 74 79 85 92
97 103 110 117 123 130 136 143 149 155 161 167 173 178 184 189 195 200
204 209 213 217 220 223 226 231 232 235 238 240 242 244 244 247 248 248
250 250 250 251 253 253 254 254 254 254 254 254 254 254 254 254 254 254
254 254 254 254 254 254 0 0 0 0 1 1 1 1 2 2 3 4 4 4 6 6 9 9 11 12 15 17
19 22 24 27 30 34 37 41 45 50 54 58 64 69 75 79 85 92 97 104 111 117
124 130 137 143 149 156 162 168 174 178 184 189 195 200 204 209 213 218
220 223 228 231 232 235 238 240 242 244 244 247 248 248 250 250 250 251
253 253 254 254 254 254 254 254 254 254 254 254 254 254 254 254 254 254
254 254 0 0 0 0 1 1 1 2 2 3 3 4 4 4 6 6 9 9 11 12 15 17 19 22 25 27 31
34 38 41 46 50 55 58 65 70 75 81 87 93 99 104 111 117 124 131 137 144
150 156 163 169 174 180 186 190 195 201 206 209 213 218 220 225 228 231
234 235 238 240 242 244 246 247 248 248 250 250 250 251 253 253 254 254
254 254 254 254 254 254 254 254 254 254 254 254 254 254 254 254 0 0 0 0
1 1 1 2 2 3 3 4 4 6 6 8 9 9 12 13 16 18 19 22 25 27 31 35 38 42 46 50
55 60 65 71 76 82 88 94 100 106 111 119 125 132 138 144 151 156 163 169
175 181 186 190 195 201 206 209 213 218 222 225 228 231 234 235 238 241
242 244 246 247 248 248 250 250 251 251 253 253 254 254 254 254 254 254
254 254 254 254 254 254 254 254 254 254 254 254 0 0 0 1 1 1 1 2 2 3 3 4
4 6 6 8 9 11 12 13 16 18 19 23 25 27 32 35 39 42 47 50 55 61 66 71 77
82 88 94 100 106 113 120 125 132 139 145 151 158 164 170 175 181 187
192 197 201 206 209 215 219 222 225 228 232 234 235 238 241 242 244 246
247 248 248 250 250 251 251 253 253 254 254 254 254 254 254 254 254 254
254 254 254 254 254 254 254 254 254 0 0 0 1 1 1 1 2 2 3 3 4 4 6 6 8 9
11 12 13 16 18 19 23 25 29 32 36 39 42 48 51 57 61 67 72 77 82 88 94
100 108 114 120 127 133 140 146 152 158 165 170 176 182 187 192 197 201
207 210 215 219 222 226 229 232 234 237 238 241 243 244 246 247 248 248
250 250 251 251 253 253 254 254 254 254 254 254 254 254 254 254 254 254
254 254 254 254 254 254 0 0 0 1 1 1 1 2 2 3 4 4 4 6 6 8 9 11 12 13 16
19 21 24 25 29 33 36 39 44 48 53 57 62 68 73 78 84 90 96 101 108 114
121 128 134 140 147 153 159 165 171 177 182 188 192 198 203 207 210 215
219 223 226 229 232 234 237 238 241 243 244 246 247 248 248 250 250 251
251 253 253 254 254 254 254 254 254 254 254 254 254 254 254 254 254 254
254 254 254 0 0 1 1 1 1 2 2 2 3 4 4 4 6 6 8 9 11 12 15 17 19 21 24 27
30 33 37 41 44 48 53 58 62 68 74 79 85 91 97 103 109 116 122 128 135
141 148 154 159 165 171 177 183 189 194 198 203 207 212 216 220 223 226
229 232 235 237 238 241 243 244 246 247 248 248 250 250 251 251 253 253
254 254 254 254 254 254 254 254 254 254 254 254 254 254 254 254 254 254
0 0 1 1 1 1 2 2 2 3 4 4 4 6 6 9 9 12 12 15 17 19 22 24 27 30 34 37 41
45 50 54 58 64 69 74 79 85 92 97 103 110 117 123 129 136 142 148 155
161 167 173 177 184 189 194 198 203 207 212 216 220 223 226 229 232 235
237 240 242 243 244 246 247 248 250 250 250 251 253 253 253 254 254 254
254 254 254 254 254 254 254 254 254 254 254 254 254 254 254 0 0 1 1 1 1
2 2 3 3 4 4 6 6 8 9 9 12 12 15 18 19 22 25 27 31 34 38 42 46 50 55 60
64 70 75 81 87 93 99 104 111 117 124 130 137 143 149 155 161 168 173
178 184 189 195 200 203 209 213 217 220 223 226 229 232 235 238 240 242
243 244 246 248 248 250 250 250 251 253 253 253 254 254 254 254 254 254
254 254 254 254 254 254 254 254 254 254 254 254 0 0 1 1 1 1 2 2 3 3 4 4
6 6 8 9 11 12 13 16 18 19 22 25 27 31 35 39 42 46 50 55 60 65 71 76 82
87 94 100 106 111 117 125 131 138 144 150 156 162 168 174 180 184 190
195 200 204 209 213 217 220 223 226 229 232 235 238 240 242 243 244 247
248 248 250 250 250 251 253 253 254 254 254 254 254 254 254 254 254 254
254 254 254 254 254 254 254 254 254 0 1 1 1 1 1 2 2 3 3 4 4 6 6 8 9 11
12 13 16 18 19 23 25 29 32 35 39 42 47 51 55 61 66 72 77 82 88 94 100
106 113 119 125 132 138 145 151 156 163 169 175 180 186 190 195 201 206
209 213 218 222 225 228 231 234 235 238 240 242 244 244 247 248 248 250
250 250 251 253 253 254 254 254 254 254 254 254 254 254 254 254 254 254
254 254 254 254 254 254 1 1 1 1 1 2 2 2 3 4 4 4 6 6 8 9 11 12 13 16 19
21 23 25 29 32 36 39 44 48 51 57 62 67 72 78 82 88 94 100 106 114 120
127 133 139 146 152 158 164 170 176 181 187 192 197 201 206 210 213 218
222 225 228 231 234 235 238 241 242 244 244 247 248 248 250 250 250 251
253 253 254 254 254 254 254 254 254 254 254 254 254 254 254 254 254 254
254 254 254 1 1 1 1 1 2 2 2 3 4 4 4 6 6 8 9 11 12 13 17 19 21 24 27 30
33 36 39 44 48 53 58 62 67 73 79 84 90 96 101 108 114 121 127 134 140
146 153 159 165 171 176 182 187 192 197 201 207 210 215 219 222 226 229
231 234 235 238 241 243 244 246 247 248 248 250 250 251 251 253 253 254
254 254 254 254 254 254 254 254 254 254 254 254 254 254 254 254 254 254
1 1 1 1 1 2 2 2 3 4 4 4 6 6 9 9 11 12 15 17 19 22 24 27 30 33 37 41 45
48 54 58 62 68 74 79 85 91 97 103 109 116 122 128 135 141 147 153 159
165 171 177 183 188 192 198 203 207 212 215 219 223 226 229 232 235 237
238 241 243 244 246 247 248 248 250 250 251 251 253 253 254 254 254 254
254 254 254 254 254 254 254 254 254 254 254 254 254 254 254 1 1 1 1 1 2
2 3 3 4 4 4 6 8 9 9 12 12 15 17 19 22 24 27 31 34 37 41 45 48 54 58 64
69 75 79 85 92 97 103 110 116 123 129 135 142 148 154 159 165 171 177
183 189 194 198 203 207 212 216 219 223 226 229 232 235 237 238 241 243
244 246 247 248 248 250 250 251 251 253 253 254 254 254 254 254 254 254
254 254 254 254 254 254 254 254 254 254 254 254 1 1 1 1 1 2 2 3 3 4 4 4
6 8 9 9 12 13 15 17 19 22 25 27 31 34 38 42 46 50 55 60 64 69 75 81 85
92 97 103 111 117 123 130 136 142 149 155 161 167 173 177 184 189 194
198 203 207 212 216 220 223 226 229 232 235 237 238 241 243 244 246 247
248 248 250 250 251 251 253 253 254 254 254 254 254 254 254 254 254 254
254 254 254 254 254 254 254 254 254 1 1 1 1 1 2 2 3 3 4 4 6 6 8 9 9 12
13 15 18 19 22 25 27 31 35 38 42 46 50 55 60 65 70 76 81 87 93 99 104
111 117 124 130 137 143 149 156 162 167 173 178 184 189 195 200 203 209
213 217 220 223 226 229 232 235 237 238 242 243 244 246 248 248 248 250
250 251 251 253 253 254 254 254 254 254 254 254 254 254 254 254 254 254
254 254 254 254 254 254 1 1 1 1 1 2 2 3 3 4 4 6 6 8 9 9 12 13 16 18 19
23 25 27 32 35 39 42 47 50 55 61 66 71 76 82 88 94 100 106 111 117 125
131 137 144 150 156 162 168 174 180 184 189 195 200 204 209 213 217 220
223 226 229 232 235 238 240 242 243 244 246 248 248 250 250 250 251 251
253 253 254 254 254 254 254 254 254 254 254 254 254 254 254 254 254 254
254 254 254 1 1 1 1 1 2 2 3 3 4 4 6 6 8 9 11 12 13 16 18 21 23 25 29 32
35 39 42 47 50 55 61 66 71 77 82 88 94 100 106 113 119 125 132 138 144
151 156 163 169 174 180 184 190 195 200 204 209 213 217 220 223 226 229
232 235 238 240 242 244 244 246 248 248 250 250 250 251 253 253 253 254
254 254 254 254 254 254 254 254 254 254 254 254 254 254 254 254 254 254
1 1 1 1 1 2 2 3 3 4 4 6 6 8 9 11 12 13 16 18 21 23 25 29 32 35 39 42 47
51 55 61 66 71 77 82 88 94 100 106 113 119 125 132 138 145 151 156 163
169 175 180 186 190 195 201 204 209 213 217 220 225 228 229 232 235 238
240 242 244 244 246 248 248 250 250 250 251 253 253 254 254 254 254 254
254 254 254 254 254 254 254 254 254 254 254 254 254 254 254 1 1 1 1 2 2
2 3 3 4 4 6 6 8 9 11 12 13 16 18 21 23 25 29 32 36 39 44 48 51 57 62 67
72 78 82 88 94 100 106 113 120 125 132 139 145 151 158 163 169 175 181
186 190 197 201 204 209 213 218 220 225 228 231 232 235 238 240 242 244
244 246 248 248 250 250 250 251 253 253 254 254 254 254 254 254 254 254
254 254 254 254 254 254 254 254 254 254 254 254 1 1 1 1 2 2 2 3 4 4 4 6
6 8 9 11 12 13 16 19 21 24 25 29 33 36 39 44 48 51 57 62 67 72 78 84 88
94 100 108 114 120 125 133 139 145 152 158 164 170 176 181 186 192 197
201 206 209 213 218 220 225 228 231 234 235 238 240 242 244 244 247 248
248 250 250 250 251 253 253 254 254 254 254 254 254 254 254 254 254 254
254 254 254 254 254 254 254 254 254 1 1 1 1 2 2 2 3 4 4 4 6 6 8 9 11 12
15 16 19 21 24 25 29 33 36 39 44 48 51 57 62 67 72 78 84 88 94 101 108
114 120 127 133 139 146 152 158 164 170 176 181 186 192 197 201 206 209
213 218 222 225 228 231 234 235 238 240 242 244 244 247 248 248 250 250
250 251 253 253 254 254 254 254 254 254 254 254 254 254 254 254 254 254
254 254 254 254 254 254 1 1 1 1 2 2 2 3 4 4 4 6 6 8 9 11 12 15 16 19 21
24 25 29 33 36 39 44 48 51 57 62 67 72 78 84 88 94 101 108 114 120 127
133 139 146 152 158 164 170 176 181 187 192 197 201 206 209 213 218 222
225 228 231 234 235 238 240 242 244 244 247 248 248 250 250 250 251 253
253 254 254 254 254 254 254 254 254 254 254 254 254 254 254 254 254 254
254 254 254
