P2
# Created by the Paint.NET plugin 'ImPNM.FileType'
100 100
255
254 254 254 254 254 254 254 254 254 254 254 254 254 254 254 254 254 254
254 254 254 254 254 254 254 254 253 251 250 248 248 244 243 238 235 231
225 219 212 204 195 187 177 167 156 145 134 122 111 100 88 78 68 58 50
42 36 30 25 19 16 12 9 6 6 4 3 2 1 1 0 0 0 0 0 0 0 0 0 0 0 0 0 0 0 0 0
0 0 0 0 0 0 0 0 0 0 0 0 0 254 254 254 254 254 254 254 254 254 254 254
254 254 254 254 254 254 254 254 254 254 254 254 254 254 254 253 251 250
248 248 244 243 238 235 231 225 219 212 204 195 187 177 167 156 145 134
122 111 100 88 78 68 58 50 42 36 30 25 19 16 12 9 6 6 4 3 2 1 1 0 0 0 0
0 0 0 0 0 0 0 0 0 0 0 0 0 0 0 0 0 0 0 0 0 0 0 0 0 0 254 254 254 254 254
254 254 254 254 254 254 254 254 254 254 254 254 254 254 254 254 254 254
254 254 254 253 251 250 248 248 244 243 238 235 231 225 219 212 204 195
187 177 167 156 145 134 122 111 100 88 78 68 58 50 42 36 30 25 19 16 12
9 6 6 4 3 2 1 1 0 0 0 0 0 0 0 0 0 0 0 0 0 0 0 0 0 0 0 0 0 0 0 0 0 0 0 0
0 0 254 254 254 254 254 254 254 254 254 254 254 254 254 254 254 254 254
254 254 254 254 254 254 254 254 254 253 251 250 250 248 244 243 238 235
231 225 219 212 204 195 187 177 167 156 145 134 122 111 100 88 78 68 58
50 42 36 30 25 19 16 12 9 6 6 4 3 2 1 1 0 0 0 0 0 0 0 0 0 0 0 0 0 0 0 0
0 0 0 0 0 0 0 0 0 0 0 0 0 0 254 254 254 254 254 254 254 254 254 254 254
254 254 254 254 254 254 254 254 254 254 254 254 254 254 254 253 251 250
250 248 244 243 238 235 231 225 219 212 204 195 187 177 167 156 145 134
122 111 100 88 78 68 58 50 42 36 30 25 19 16 12 9 6 6 4 3 2 1 1 0 0 0 0
0 0 0 0 0 0 0 0 0 0 0 0 0 0 0 0 0 0 0 0 0 0 0 0 0 0 254 254 254 254 254
254 254 254 254 254 254 254 254 254 254 254 254 254 254 254 254 254 254
254 254 254 253 251 250 250 248 244 243 238 235 231 225 219 212 204 195
187 177 167 156 145 134 122 111 100 88 78 69 58 50 42 36 30 25 19 16 12
9 6 6 4 3 2 1 1 0 0 0 0 0 0 0 0 0 0 0 0 0 0 0 0 0 0 0 0 0 0 0 0 0 0 0 0
0 0 254 254 254 254 254 254 254 254 254 254 254 254 254 254 254 254 254
254 254 254 254 254 254 254 254 254 253 251 250 250 248 244 243 238 235
231 225 219 212 204 195 187 177 167 156 145 134 122 111 100 88 78 69 58
50 42 36 30 25 19 16 12 9 6 6 4 3 2 1 1 0 0 0 0 0 0 0 0 0 0 0 0 0 0 0 0
0 0 0 0 0 0 0 0 0 0 0 0 0 0 254 254 254 254 254 254 254 254 254 254 254
254 254 254 254 254 254 254 254 254 254 254 254 254 254 254 253 251 250
250 248 244 243 238 235 231 225 219 212 204 195 187 177 167 156 145 134
122 111 100 88 78 69 58 50 42 36 30 25 19 16 12 9 6 6 4 3 2 1 1 0 0 0 0
0 0 0 0 0 0 0 0 0 0 0 0 0 0 0 0 0 0 0 0 0 0 0 0 0 0 254 254 254 254 254
254 254 254 254 254 254 254 254 254 254 254 254 254 254 254 254 254 254
254 254 254 253 251 250 250 248 244 243 238 235 231 226 219 212 204 195
187 177 167 156 145 134 122 111 100 88 79 69 58 50 42 36 30 25 19 16 12
9 6 6 4 3 2 1 1 0 0 0 0 0 0 0 0 0 0 0 0 0 0 0 0 0 0 0 0 0 0 0 0 0 0 0 0
0 0 254 254 254 254 254 254 254 254 254 254 254 254 254 254 254 254 254
254 254 254 254 254 254 254 254 254 253 251 250 250 248 244 243 238 235
231 226 219 212 204 195 187 177 167 156 145 134 122 111 100 88 79 69 58
50 42 36 30 25 19 16 12 9 6 6 4 3 2 1 1 0 0 0 0 0 0 0 0 0 0 0 0 0 0 0 0
0 0 0 0 0 0 0 0 0 0 0 0 0 0 254 254 254 254 254 254 254 254 254 254 254
254 254 254 254 254 254 254 254 254 254 254 254 254 254 254 253 251 250
250 248 244 243 238 235 231 226 219 212 204 195 187 177 167 156 145 134
122 111 100 88 79 69 58 50 42 36 30 25 19 16 12 9 8 6 4 3 2 1 1 0 0 0 0
0 0 0 0 0 0 0 0 0 0 0 0 0 0 0 0 0 0 0 0 0 0 0 0 0 0 254 254 254 254 254
254 254 254 254 254 254 254 254 254 254 254 254 254 254 254 254 254 254
254 254 254 253 251 250 250 248 246 243 238 235 231 226 219 213 204 195
187 177 167 156 145 134 122 111 100 88 79 69 60 50 42 36 30 25 19 16 12
9 8 6 4 3 2 1 1 0 0 0 0 0 0 0 0 0 0 0 0 0 0 0 0 0 0 0 0 0 0 0 0 0 0 0 0
0 0 254 254 254 254 254 254 254 254 254 254 254 254 254 254 254 254 254
254 254 254 254 254 254 254 254 254 253 251 250 250 248 246 243 238 235
231 226 219 213 204 197 187 177 167 156 145 134 123 111 100 88 79 69 60
50 42 36 30 25 19 16 12 9 8 6 4 3 2 1 1 0 0 0 0 0 0 0 0 0 0 0 0 0 0 0 0
0 0 0 0 0 0 0 0 0 0 0 0 0 0 254 254 254 254 254 254 254 254 254 254 254
254 254 254 254 254 254 254 254 254 254 254 254 254 254 254 253 251 250
250 248 246 243 238 235 231 226 219 213 204 197 188 177 167 156 146 134
123 111 100 88 79 69 60 50 42 37 30 25 19 16 12 9 8 6 4 3 2 1 1 0 0 0 0
0 0 0 0 0 0 0 0 0 0 0 0 0 0 0 0 0 0 0 0 0 0 0 0 0 0 254 254 254 254 254
254 254 254 254 254 254 254 254 254 254 254 254 254 254 254 254 254 254
254 254 254 253 251 250 250 248 246 243 238 235 231 226 220 213 204 197
188 177 168 156 146 134 123 111 100 88 79 69 60 50 42 37 30 25 19 16 12
9 8 6 4 3 2 1 1 0 0 0 0 0 0 0 0 0 0 0 0 0 0 0 0 0 0 0 0 0 0 0 0 0 0 0 0
0 0 254 254 254 254 254 254 254 254 254 254 254 254 254 254 254 254 254
254 254 254 254 254 254 254 254 254 253 251 250 250 248 246 243 238 235
231 226 220 213 204 197 188 177 168 156 146 134 123 111 100 88 79 69 60
50 44 37 30 25 19 16 12 9 8 6 4 3 2 1 1 0 0 0 0 0 0 0 0 0 0 0 0 0 0 0 0
0 0 0 0 0 0 0 0 0 0 0 0 0 0 254 254 254 254 254 254 254 254 254 254 254
254 254 254 254 254 254 254 254 254 254 254 254 254 254 254 253 251 250
250 248 246 243 240 235 231 226 220 213 204 197 188 177 168 156 146 134
123 111 100 88 79 69 60 50 44 37 30 25 19 16 12 9 8 6 4 3 2 1 1 0 0 0 0
0 0 0 0 0 0 0 0 0 0 0 0 0 0 0 0 0 0 0 0 0 0 0 0 0 0 254 254 254 254 254
254 254 254 254 254 254 254 254 254 254 254 254 254 254 254 254 254 254
254 254 254 253 251 250 250 248 246 243 240 235 231 226 220 213 204 197
188 177 168 156 146 134 123 111 100 88 79 69 60 51 44 37 31 25 19 16 12
9 8 6 4 3 2 1 1 0 0 0 0 0 0 0 0 0 0 0 0 0 0 0 0 0 0 0 0 0 0 0 0 0 0 0 0
0 0 254 254 254 254 254 254 254 254 254 254 254 254 254 254 254 254 254
254 254 254 254 254 254 254 254 254 253 251 250 250 248 246 243 240 235
231 226 220 213 206 197 188 177 168 156 146 135 123 111 100 90 79 69 60
51 44 37 31 25 19 16 12 9 8 6 4 3 2 1 1 0 0 0 0 0 0 0 0 0 0 0 0 0 0 0 0
0 0 0 0 0 0 0 0 0 0 0 0 0 0 254 254 254 254 254 254 254 254 254 254 254
254 254 254 254 254 254 254 254 254 254 254 254 254 254 254 253 251 250
250 248 246 243 240 235 231 226 220 213 206 197 188 177 168 156 146 135
123 111 100 90 79 69 60 51 44 37 31 25 19 16 12 9 8 6 4 3 2 1 1 0 0 0 0
0 0 0 0 0 0 0 0 0 0 0 0 0 0 0 0 0 0 0 0 0 0 0 0 0 0 254 254 254 254 254
254 254 254 254 254 254 254 254 254 254 254 254 254 254 254 254 254 254
254 254 254 253 251 250 250 248 246 243 240 235 231 226 220 213 206 197
188 177 168 156 146 135 123 111 100 90 79 69 60 51 44 37 31 25 19 16 12
9 8 6 4 3 2 1 1 0 0 0 0 0 0 0 0 0 0 0 0 0 0 0 0 0 0 0 0 0 0 0 0 0 0 0 0
0 0 254 254 254 254 254 254 254 254 254 254 254 254 254 254 254 254 254
254 254 254 254 254 254 254 254 254 253 251 250 250 248 246 243 240 235
231 226 220 213 206 197 188 177 168 156 146 135 123 111 100 90 79 70 60
51 44 37 31 25 21 16 12 9 8 6 4 3 2 1 1 0 0 0 0 0 0 0 0 0 0 0 0 0 0 0 0
0 0 0 0 0 0 0 0 0 0 0 0 0 0 254 254 254 254 254 254 254 254 254 254 254
254 254 254 254 254 254 254 254 254 254 254 254 254 254 254 253 251 250
250 248 246 243 240 235 231 226 220 213 206 197 188 177 168 156 146 135
123 111 100 90 79 70 60 51 44 37 31 25 21 16 12 9 8 6 4 3 2 1 1 0 0 0 0
0 0 0 0 0 0 0 0 0 0 0 0 0 0 0 0 0 0 0 0 0 0 0 0 0 0 254 254 254 254 254
254 254 254 254 254 254 254 254 254 254 254 254 254 254 254 254 254 254
254 254 254 253 251 250 250 248 246 243 240 235 231 226 220 213 206 197
188 178 168 156 146 135 123 111 100 90 79 70 60 51 44 37 31 25 21 16 12
9 8 6 4 3 2 1 1 0 0 0 0 0 0 0 0 0 0 0 0 0 0 0 0 0 0 0 0 0 0 0 0 0 0 0 0
0 0 254 254 254 254 254 254 254 254 254 254 254 254 254 254 254 254 254
254 254 254 254 254 254 254 254 254 253 251 250 250 248 246 243 240 235
231 226 220 213 206 197 188 178 168 156 146 135 123 111 100 90 79 70 60
51 44 37 31 25 21 16 12 9 8 6 4 3 2 1 1 0 0 0 0 0 0 0 0 0 0 0 0 0 0 0 0
0 0 0 0 0 0 0 0 0 0 0 0 0 0 254 254 254 254 254 254 254 254 254 254 254
254 254 254 254 254 254 254 254 254 254 254 254 254 254 254 253 251 250
250 248 246 243 240 235 231 226 220 213 206 197 188 178 168 156 146 135
123 111 100 90 79 70 60 51 44 37 31 25 21 16 12 9 8 6 4 3 2 1 1 0 0 0 0
0 0 0 0 0 0 0 0 0 0 0 0 0 0 0 0 0 0 0 0 0 0 0 0 0 0 254 254 254 254 254
254 254 254 254 254 254 254 254 254 254 254 254 254 254 254 254 254 254
254 254 254 253 251 250 250 248 246 243 240 235 231 226 220 213 206 197
188 177 168 156 146 135 123 111 100 90 79 70 60 51 44 37 31 25 21 16 12
9 8 6 4 3 2 1 1 0 0 0 0 0 0 0 0 0 0 0 0 0 0 0 0 0 0 0 0 0 0 0 0 0 0 0 0
0 0 254 254 254 254 254 254 254 254 254 254 254 254 254 254 254 254 254
254 254 254 254 254 254 254 254 254 253 251 250 250 248 246 243 240 235
231 226 220 213 206 197 188 177 168 156 146 135 123 111 100 90 79 70 60
51 44 37 31 25 21 16 12 9 8 6 4 3 2 1 1 0 0 0 0 0 0 0 0 0 0 0 0 0 0 0 0
0 0 0 0 0 0 0 0 0 0 0 0 0 0 254 254 254 254 254 254 254 254 254 254 254
254 254 254 254 254 254 254 254 254 254 254 254 254 254 254 253 251 250
250 248 246 243 238 235 231 226 220 213 204 197 188 177 168 156 146 135
123 111 100 90 79 70 60 51 44 37 31 25 21 16 12 9 8 6 4 3 2 1 1 0 0 0 0
0 0 0 0 0 0 0 0 0 0 0 0 0 0 0 0 0 0 0 0 0 0 0 0 0 0 254 254 254 254 254
254 254 254 254 254 254 254 254 254 254 254 254 254 254 254 254 254 254
254 254 254 253 251 250 250 248 244 243 238 235 231 226 220 213 204 197
188 177 168 156 146 135 123 111 100 90 79 69 60 51 44 37 31 25 21 16 12
9 8 6 4 3 2 1 1 0 0 0 0 0 0 0 0 0 0 0 0 0 0 0 0 0 0 0 0 0 0 0 0 0 0 0 0
0 0 254 254 254 254 254 254 254 254 254 254 254 254 254 254 254 254 254
254 254 254 254 254 254 254 254 254 253 251 250 248 248 244 243 238 235
231 226 219 212 204 197 187 177 167 156 146 134 123 111 100 88 79 69 60
51 44 37 31 25 21 16 12 9 8 6 4 3 2 1 1 0 0 0 0 0 0 0 0 0 0 0 0 0 0 0 0
0 0 0 0 0 0 0 0 0 0 0 0 0 0 254 254 254 254 254 254 254 254 254 254 254
254 254 254 254 254 254 254 254 254 254 254 254 254 254 254 253 251 250
248 248 244 242 238 235 231 225 219 212 204 195 187 177 167 156 145 134
123 111 100 88 79 69 60 50 44 37 31 25 19 16 12 9 8 6 4 3 2 1 1 0 0 0 0
0 0 0 0 0 0 0 0 0 0 0 0 0 0 0 0 0 0 0 0 0 0 0 0 0 0 254 254 254 254 254
254 254 254 254 254 254 254 254 254 254 254 254 254 254 254 254 254 254
254 254 254 253 251 250 248 247 244 242 238 235 229 225 219 212 204 195
187 177 167 156 145 134 122 111 100 88 79 69 60 50 42 37 30 25 19 16 12
9 8 6 4 3 2 1 1 0 0 0 0 0 0 0 0 0 0 0 0 0 0 0 0 0 0 0 0 0 0 0 0 0 0 0 0
0 0 254 254 254 254 254 254 254 254 254 254 254 254 254 254 254 254 254
254 254 254 254 254 254 254 254 254 253 251 250 248 247 244 242 238 235
229 225 219 212 203 195 187 177 165 156 145 133 122 111 99 88 78 69 58
50 42 36 30 25 19 16 12 9 8 6 4 3 2 1 1 0 0 0 0 0 0 0 0 0 0 0 0 0 0 0 0
0 0 0 0 0 0 0 0 0 0 0 0 0 0 254 254 254 254 254 254 254 254 254 254 254
254 254 254 254 254 254 254 254 254 254 254 254 254 254 254 253 251 250
248 247 244 242 238 235 229 225 218 210 203 195 186 176 165 155 144 133
121 110 99 88 78 68 58 50 42 36 30 25 19 16 12 9 8 6 4 3 2 1 1 0 0 0 0
0 0 0 0 0 0 0 0 0 0 0 0 0 0 0 0 0 0 0 0 0 0 0 0 0 0 254 254 254 254 254
254 254 254 254 254 254 254 254 254 254 254 254 254 254 254 254 254 254
254 254 254 253 251 250 248 247 244 242 238 234 229 223 218 210 203 195
186 176 165 155 144 132 121 110 99 88 78 68 58 50 42 36 30 24 19 16 12
9 6 6 4 3 2 1 1 0 0 0 0 0 0 0 0 0 0 0 0 0 0 0 0 0 0 0 0 0 0 0 0 0 0 0 0
0 0 254 254 254 254 254 254 254 254 254 254 254 254 254 254 254 254 254
254 254 254 254 254 254 254 254 254 253 251 250 248 247 244 242 238 234
229 223 217 209 203 194 184 175 165 154 143 132 120 109 97 87 77 67 58
50 42 36 30 24 19 16 12 9 6 6 4 3 2 1 1 0 0 0 0 0 0 0 0 0 0 0 0 0 0 0 0
0 0 0 0 0 0 0 0 0 0 0 0 0 0 254 254 254 254 254 254 254 254 254 254 254
254 254 254 254 254 254 254 254 254 254 254 254 254 254 254 253 251 250
248 247 244 241 238 234 229 223 217 209 201 194 184 175 164 153 142 131
119 108 97 87 76 67 58 50 42 35 29 24 19 16 12 9 6 4 4 3 2 1 1 0 0 0 0
0 0 0 0 0 0 0 0 0 0 0 0 0 0 0 0 0 0 0 0 0 0 0 0 0 0 254 254 254 254 254
254 254 254 254 254 254 254 254 254 254 254 254 254 254 254 254 254 254
254 254 253 253 251 250 248 247 244 241 237 232 228 223 216 209 201 192
184 174 163 152 141 130 119 106 97 85 76 66 57 48 41 35 29 24 19 15 12
9 6 4 4 3 2 1 1 0 0 0 0 0 0 0 0 0 0 0 0 0 0 0 0 0 0 0 0 0 0 0 0 0 0 0 0
0 0 254 254 254 254 254 254 254 254 254 254 254 254 254 254 254 254 254
254 254 254 254 254 254 254 254 253 253 250 250 248 246 244 241 237 232
228 222 216 209 201 192 183 173 162 152 140 129 117 106 96 85 75 66 57
48 41 34 29 23 19 15 12 9 6 4 4 3 2 1 1 0 0 0 0 0 0 0 0 0 0 0 0 0 0 0 0
0 0 0 0 0 0 0 0 0 0 0 0 0 0 254 254 254 254 254 254 254 254 254 254 254
254 254 254 254 254 254 254 254 254 254 254 254 254 254 253 251 250 250
248 246 244 240 237 232 226 222 215 207 200 190 182 171 161 151 139 128
117 106 94 84 74 65 55 48 39 34 27 23 19 15 12 9 6 4 4 3 2 1 1 0 0 0 0
0 0 0 0 0 0 0 0 0 0 0 0 0 0 0 0 0 0 0 0 0 0 0 0 0 0 254 254 254 254 254
254 254 254 254 254 254 254 254 254 254 254 254 254 254 254 254 254 254
254 254 253 251 250 250 248 246 243 240 235 232 226 220 213 207 198 189
181 171 159 150 138 127 116 104 94 82 73 64 55 47 39 34 27 23 18 15 11
9 6 4 4 3 2 1 1 0 0 0 0 0 0 0 0 0 0 0 0 0 0 0 0 0 0 0 0 0 0 0 0 0 0 0 0
0 0 254 254 254 254 254 254 254 254 254 254 254 254 254 254 254 254 254
254 254 254 254 254 254 254 254 253 251 250 250 248 246 243 240 235 231
226 220 213 206 198 189 180 170 159 148 137 125 114 103 93 82 73 62 54
47 39 33 27 22 18 13 11 9 6 4 4 2 2 1 0 0 0 0 0 0 0 0 0 0 0 0 0 0 0 0 0
0 0 0 0 0 0 0 0 0 0 0 0 0 0 254 254 254 254 254 254 254 254 254 254 254
254 254 254 254 254 254 254 254 254 254 254 254 254 254 253 251 250 248
248 244 243 238 235 231 226 220 213 204 197 188 178 169 158 147 136 125
114 103 92 81 72 62 54 46 39 32 27 22 18 13 11 9 6 4 3 2 2 1 0 0 0 0 0
0 0 0 0 0 0 0 0 0 0 0 0 0 0 0 0 0 0 0 0 0 0 0 0 0 0 254 254 254 254 254
254 254 254 254 254 254 254 254 254 254 254 254 254 254 254 254 254 254
254 254 253 251 250 248 247 244 242 238 235 229 225 219 212 203 195 187
177 168 156 146 135 124 111 100 91 79 71 61 53 45 38 32 25 21 17 13 11
8 6 4 3 2 2 1 0 0 0 0 0 0 0 0 0 0 0 0 0 0 0 0 0 0 0 0 0 0 0 0 0 0 0 0 0
0 0 254 254 254 254 254 254 254 254 254 254 254 254 254 254 254 254 254
254 254 254 254 254 254 254 254 253 251 250 248 247 244 242 238 234 229
223 218 210 203 195 186 177 165 156 145 134 122 111 100 88 79 70 60 51
44 37 31 25 21 17 12 9 8 6 4 3 2 1 1 0 0 0 0 0 0 0 0 0 0 0 0 0 0 0 0 0
0 0 0 0 0 0 0 0 0 0 0 0 0 0 254 254 254 254 254 254 254 254 254 254 254
254 254 254 254 254 254 254 254 254 254 254 254 254 253 253 251 250 248
247 244 241 238 234 229 223 217 209 203 194 184 175 165 154 143 132 121
110 99 88 78 68 58 50 42 37 31 25 19 17 12 9 8 6 4 3 2 1 1 0 0 0 0 0 0
0 0 0 0 0 0 0 0 0 0 0 0 0 0 0 0 0 0 0 0 0 0 0 0 0 254 254 254 254 254
254 254 254 254 254 254 254 254 254 254 254 254 254 254 254 254 254 254
254 253 253 251 250 248 246 244 241 237 232 228 223 217 209 201 192 184
174 164 153 142 131 120 108 97 87 77 67 58 50 42 36 30 25 19 16 12 9 8
6 4 3 2 1 1 0 0 0 0 0 0 0 0 0 0 0 0 0 0 0 0 0 0 0 0 0 0 0 0 0 0 0 0 0 0
0 254 254 254 254 254 254 254 254 254 254 254 254 254 254 254 254 254
254 254 254 254 254 254 254 253 251 250 250 248 246 244 241 237 232 228
222 216 207 201 192 183 173 163 152 141 130 117 106 96 85 76 66 57 48
42 35 29 24 19 16 12 9 6 6 4 3 2 1 1 0 0 0 0 0 0 0 0 0 0 0 0 0 0 0 0 0
0 0 0 0 0 0 0 0 0 0 0 0 0 0 254 254 254 254 254 254 254 254 254 254 254
254 254 254 254 254 254 254 254 254 254 254 254 254 253 251 250 250 248
246 243 240 235 232 226 220 215 207 200 190 182 171 161 151 139 128 117
106 94 85 74 65 55 48 41 34 29 24 19 15 12 9 6 4 4 3 2 1 1 0 0 0 0 0 0
0 0 0 0 0 0 0 0 0 0 0 0 0 0 0 0 0 0 0 0 0 0 0 0 0 254 254 254 254 254
254 254 254 254 254 254 254 254 254 254 254 254 254 254 254 254 254 254
254 253 251 250 250 248 246 243 240 235 232 226 220 213 207 198 189 180
170 159 149 138 127 116 103 94 82 73 64 55 47 39 34 27 23 18 15 12 9 6
4 4 3 2 1 1 0 0 0 0 0 0 0 0 0 0 0 0 0 0 0 0 0 0 0 0 0 0 0 0 0 0 0 0 0 0
0 254 254 254 254 254 254 254 254 254 254 254 254 254 254 254 254 254
254 254 254 254 254 254 254 253 251 250 248 248 244 243 240 235 231 226
220 213 206 198 189 178 169 159 148 137 125 114 103 93 82 72 62 54 46
39 33 27 22 18 15 11 9 6 4 4 3 2 1 1 0 0 0 0 0 0 0 0 0 0 0 0 0 0 0 0 0
0 0 0 0 0 0 0 0 0 0 0 0 0 0 254 254 254 254 254 254 254 254 254 254 254
254 254 254 254 254 254 254 254 254 254 254 254 254 253 251 250 248 247
244 242 238 235 231 225 219 213 204 197 188 177 168 158 147 135 124 113
101 91 81 71 62 53 46 39 32 27 22 18 13 11 9 6 4 3 2 2 1 0 0 0 0 0 0 0
0 0 0 0 0 0 0 0 0 0 0 0 0 0 0 0 0 0 0 0 0 0 0 0 0 254 254 254 254 254
254 254 254 254 254 254 254 254 254 254 254 254 254 254 254 254 254 254
254 253 251 250 248 247 244 242 238 235 229 225 219 212 203 195 187 177
167 156 146 134 123 111 100 90 79 70 61 53 45 38 32 25 21 17 13 11 8 6
4 3 2 1 1 0 0 0 0 0 0 0 0 0 0 0 0 0 0 0 0 0 0 0 0 0 0 0 0 0 0 0 0 0 0 0
0 254 254 254 254 254 254 254 254 254 254 254 254 254 254 254 254 254
254 254 254 254 254 254 254 253 251 250 248 247 244 242 238 234 229 223
218 210 203 195 186 176 165 155 144 133 122 111 100 88 79 69 60 51 44
37 31 25 21 17 12 9 8 6 4 3 2 1 1 0 0 0 0 0 0 0 0 0 0 0 0 0 0 0 0 0 0 0
0 0 0 0 0 0 0 0 0 0 0 0 0 254 254 254 254 254 254 254 254 254 254 254
254 254 254 254 254 254 254 254 254 254 254 254 254 253 251 250 248 247
244 242 238 234 229 223 217 210 203 194 184 175 165 155 143 132 121 110
99 88 78 68 58 50 42 37 30 25 19 16 12 9 8 6 4 3 2 1 1 0 0 0 0 0 0 0 0
0 0 0 0 0 0 0 0 0 0 0 0 0 0 0 0 0 0 0 0 0 0 0 0 254 254 254 254 254 254
254 254 254 254 254 254 254 254 254 254 254 254 254 254 254 254 254 254
253 251 250 248 247 244 241 238 234 229 223 217 209 201 194 184 175 164
154 142 131 120 109 97 87 77 67 58 50 42 36 30 25 19 16 12 9 8 6 4 3 2
1 1 0 0 0 0 0 0 0 0 0 0 0 0 0 0 0 0 0 0 0 0 0 0 0 0 0 0 0 0 0 0 0 0 254
254 254 254 254 254 254 254 254 254 254 254 254 254 254 254 254 254 254
254 254 254 254 253 253 251 250 248 247 244 241 238 232 228 223 216 209
201 192 184 174 164 153 142 130 119 108 97 87 76 67 58 50 42 36 29 24
19 16 12 9 6 6 4 3 2 1 1 0 0 0 0 0 0 0 0 0 0 0 0 0 0 0 0 0 0 0 0 0 0 0
0 0 0 0 0 0 0 0 0 254 254 254 254 254 254 254 254 254 254 254 254 254
254 254 254 254 254 254 254 254 254 254 253 253 251 250 248 247 244 241
237 232 228 223 216 209 201 192 183 173 163 152 141 130 117 106 96 85
76 66 57 48 42 35 29 24 19 15 12 9 6 6 4 3 2 1 1 0 0 0 0 0 0 0 0 0 0 0
0 0 0 0 0 0 0 0 0 0 0 0 0 0 0 0 0 0 0 0 0 254 254 254 254 254 254 254
254 254 254 254 254 254 254 254 254 254 254 254 254 254 254 254 253 253
251 250 248 246 244 241 237 232 228 222 216 209 201 192 183 173 162 152
140 129 117 106 96 85 75 66 57 48 41 35 29 24 19 15 12 9 6 4 4 3 2 1 1
0 0 0 0 0 0 0 0 0 0 0 0 0 0 0 0 0 0 0 0 0 0 0 0 0 0 0 0 0 0 0 0 254 254
254 254 254 254 254 254 254 254 254 254 254 254 254 254 254 254 254 254
254 254 254 253 253 250 250 248 246 244 241 237 232 228 222 215 207 200
192 183 171 162 151 140 129 117 106 94 85 75 65 57 48 41 34 27 23 19 15
12 9 6 4 4 3 2 1 1 0 0 0 0 0 0 0 0 0 0 0 0 0 0 0 0 0 0 0 0 0 0 0 0 0 0
0 0 0 0 0 0 254 254 254 254 254 254 254 254 254 254 254 254 254 254 254
254 254 254 254 254 254 254 254 253 251 250 250 248 246 244 241 237 232
228 222 215 207 200 190 182 171 162 151 140 128 117 106 94 85 74 65 55
48 41 34 27 23 19 15 12 9 6 4 4 3 2 1 1 0 0 0 0 0 0 0 0 0 0 0 0 0 0 0 0
0 0 0 0 0 0 0 0 0 0 0 0 0 0 0 0 254 254 254 254 254 254 254 254 254 254
254 254 254 254 254 254 254 254 254 254 254 254 254 253 251 250 250 248
246 244 241 237 232 228 222 215 207 200 190 182 171 162 151 140 128 117
106 94 84 74 65 55 48 41 34 27 23 19 15 12 9 6 4 4 3 2 1 1 0 0 0 0 0 0
0 0 0 0 0 0 0 0 0 0 0 0 0 0 0 0 0 0 0 0 0 0 0 0 0 0 254 254 254 254 254
254 254 254 254 254 254 254 254 254 254 254 254 254 254 254 254 254 254
253 251 250 250 248 246 244 240 237 232 228 222 215 207 200 190 182 171
161 151 139 128 117 106 94 84 74 65 55 48 41 34 27 23 19 15 12 9 6 4 4
3 2 1 1 0 0 0 0 0 0 0 0 0 0 0 0 0 0 0 0 0 0 0 0 0 0 0 0 0 0 0 0 0 0 0 0
254 254 254 254 254 254 254 254 254 254 254 254 254 254 254 254 254 254
254 254 254 254 254 253 251 250 250 248 246 244 241 237 232 228 222 215
207 200 190 182 171 162 151 140 128 117 106 94 85 74 65 55 48 41 34 27
23 19 15 12 9 6 4 4 3 2 1 1 0 0 0 0 0 0 0 0 0 0 0 0 0 0 0 0 0 0 0 0 0 0
0 0 0 0 0 0 0 0 0 0 254 254 254 254 254 254 254 254 254 254 254 254 254
254 254 254 254 254 254 254 254 254 254 253 251 250 250 248 246 244 241
237 232 228 222 215 207 200 192 182 171 162 151 140 129 117 106 94 85
75 65 55 48 41 34 27 23 19 15 12 9 6 4 4 3 2 1 1 0 0 0 0 0 0 0 0 0 0 0
0 0 0 0 0 0 0 0 0 0 0 0 0 0 0 0 0 0 0 0 0 254 254 254 254 254 254 254
254 254 254 254 254 254 254 254 254 254 254 254 254 254 254 254 253 253
250 250 248 246 244 241 237 232 228 222 216 209 201 192 183 173 162 152
140 129 117 106 96 85 75 66 57 48 41 35 29 24 19 15 12 9 6 4 4 3 2 1 1
0 0 0 0 0 0 0 0 0 0 0 0 0 0 0 0 0 0 0 0 0 0 0 0 0 0 0 0 0 0 0 0 254 254
254 254 254 254 254 254 254 254 254 254 254 254 254 254 254 254 254 254
254 254 254 253 253 251 250 248 246 244 241 237 232 228 222 216 209 201
192 183 173 163 152 141 130 117 106 96 85 76 66 57 48 42 35 29 24 19 15
12 9 6 6 4 3 2 1 1 0 0 0 0 0 0 0 0 0 0 0 0 0 0 0 0 0 0 0 0 0 0 0 0 0 0
0 0 0 0 0 0 254 254 254 254 254 254 254 254 254 254 254 254 254 254 254
254 254 254 254 254 254 254 254 253 253 251 250 248 247 244 241 238 232
228 223 216 209 201 192 184 174 164 153 142 130 119 108 97 87 76 67 58
50 42 36 29 24 19 16 12 9 8 6 4 3 2 1 1 0 0 0 0 0 0 0 0 0 0 0 0 0 0 0 0
0 0 0 0 0 0 0 0 0 0 0 0 0 0 0 0 254 254 254 254 254 254 254 254 254 254
254 254 254 254 254 254 254 254 254 254 254 254 254 254 253 251 250 248
247 244 241 238 232 229 223 217 209 201 192 184 174 164 154 142 131 120
109 97 87 77 67 58 50 42 36 30 25 19 16 12 9 8 6 4 3 2 1 1 0 0 0 0 0 0
0 0 0 0 0 0 0 0 0 0 0 0 0 0 0 0 0 0 0 0 0 0 0 0 0 0 254 254 254 254 254
254 254 254 254 254 254 254 254 254 254 254 254 254 254 254 254 254 254
254 253 251 250 248 247 244 241 238 234 229 223 217 210 203 194 184 175
165 155 143 132 121 110 99 88 78 68 60 50 44 37 31 25 21 17 12 9 8 6 4
3 2 1 1 0 0 0 0 0 0 0 0 0 0 0 0 0 0 0 0 0 0 0 0 0 0 0 0 0 0 0 0 0 0 0 0
254 254 254 254 254 254 254 254 254 254 254 254 254 254 254 254 254 254
254 254 254 254 254 254 253 251 250 248 247 244 242 238 234 229 223 218
210 203 195 186 176 165 156 144 133 122 111 100 88 79 69 60 51 44 37 31
25 21 17 13 11 8 6 4 3 2 1 1 0 0 0 0 0 0 0 0 0 0 0 0 0 0 0 0 0 0 0 0 0
0 0 0 0 0 0 0 0 0 0 0 254 254 254 254 254 254 254 254 254 254 254 254
254 254 254 254 254 254 254 254 254 254 254 254 253 251 250 248 247 244
242 238 235 229 225 219 212 203 195 187 177 167 156 146 135 123 111 100
91 79 71 62 53 45 38 32 27 22 17 13 11 9 6 4 4 2 2 1 1 0 0 0 0 0 0 0 0
0 0 0 0 0 0 0 0 0 0 0 0 0 0 0 0 0 0 0 0 0 0 0 254 254 254 254 254 254
254 254 254 254 254 254 254 254 254 254 254 254 254 254 254 254 254 254
253 251 250 248 247 244 242 238 235 231 225 219 213 204 197 188 177 168
158 147 136 125 114 101 92 82 72 62 54 46 39 33 27 22 18 13 11 9 6 4 4
3 2 1 1 0 0 0 0 0 0 0 0 0 0 0 0 0 0 0 0 0 0 0 0 0 0 0 0 0 0 0 0 0 0 0
254 254 254 254 254 254 254 254 254 254 254 254 254 254 254 254 254 254
254 254 254 254 254 254 253 251 250 248 248 244 243 240 235 231 226 220
213 206 198 189 180 170 159 149 137 125 114 103 93 82 73 64 55 47 39 34
27 23 19 15 12 9 6 4 4 3 2 1 1 0 0 0 0 0 0 0 0 0 0 0 0 0 0 0 0 0 0 0 0
0 0 0 0 0 0 0 0 0 0 0 254 254 254 254 254 254 254 254 254 254 254 254
254 254 254 254 254 254 254 254 254 254 254 254 253 251 250 250 248 246
243 240 235 232 226 220 213 207 198 190 181 171 161 150 139 128 117 106
94 84 74 65 55 48 41 35 29 24 19 16 12 9 6 6 4 3 2 1 1 0 0 0 0 0 0 0 0
0 0 0 0 0 0 0 0 0 0 0 0 0 0 0 0 0 0 0 0 0 0 0 254 254 254 254 254 254
254 254 254 254 254 254 254 254 254 254 254 254 254 254 254 254 254 254
253 251 250 250 248 246 243 240 237 232 226 222 215 207 200 192 182 173
162 152 141 130 117 106 97 85 76 67 58 50 42 36 30 25 19 16 12 9 8 6 4
3 2 1 1 0 0 0 0 0 0 0 0 0 0 0 0 0 0 0 0 0 0 0 0 0 0 0 0 0 0 0 0 0 0 0
254 254 254 254 254 254 254 254 254 254 254 254 254 254 254 254 254 254
254 254 254 254 254 254 253 253 250 250 248 246 244 241 237 232 228 222
216 209 201 192 184 174 164 153 142 131 120 109 97 88 77 68 58 50 42 37
31 25 21 17 12 9 8 6 4 3 2 1 1 0 0 0 0 0 0 0 0 0 0 0 0 0 0 0 0 0 0 0 0
0 0 0 0 0 0 0 0 0 0 0 254 254 254 254 254 254 254 254 254 254 254 254
254 254 254 254 254 254 254 254 254 254 254 254 253 253 251 250 248 247
244 241 238 234 229 223 217 209 203 195 184 176 165 155 144 133 122 111
100 88 79 70 61 51 45 38 32 25 21 17 13 11 8 6 4 3 2 2 1 0 0 0 0 0 0 0
0 0 0 0 0 0 0 0 0 0 0 0 0 0 0 0 0 0 0 0 0 0 0 0 254 254 254 254 254 254
254 254 254 254 254 254 254 254 254 254 254 254 254 254 254 254 254 254
254 253 251 250 248 247 244 242 238 234 229 223 218 210 203 195 187 177
167 156 146 135 124 111 101 91 81 71 62 53 46 39 33 27 22 18 13 11 9 6
4 4 3 2 1 1 0 0 0 0 0 0 0 0 0 0 0 0 0 0 0 0 0 0 0 0 0 0 0 0 0 0 0 0 0 0
254 254 254 254 254 254 254 254 254 254 254 254 254 254 254 254 254 254
254 254 254 254 254 254 254 253 251 250 248 247 244 242 238 235 229 225
219 213 204 197 188 178 169 158 148 137 125 114 103 93 82 73 64 55 47
39 34 27 23 19 15 12 9 6 4 4 3 2 1 1 0 0 0 0 0 0 0 0 0 0 0 0 0 0 0 0 0
0 0 0 0 0 0 0 0 0 0 0 0 0 254 254 254 254 254 254 254 254 254 254 254
254 254 254 254 254 254 254 254 254 254 254 254 254 254 253 251 250 248
248 244 243 238 235 231 226 220 213 206 198 189 180 171 159 149 138 127
116 104 94 84 74 65 55 48 41 35 29 24 19 15 12 9 6 6 4 3 2 1 1 0 0 0 0
0 0 0 0 0 0 0 0 0 0 0 0 0 0 0 0 0 0 0 0 0 0 0 0 0 0 254 254 254 254 254
254 254 254 254 254 254 254 254 254 254 254 254 254 254 254 254 254 254
254 254 253 251 250 250 248 246 243 240 235 232 226 220 215 207 200 190
182 171 162 151 140 129 117 106 96 85 76 67 58 50 42 36 30 24 19 16 12
9 8 6 4 3 2 1 1 0 0 0 0 0 0 0 0 0 0 0 0 0 0 0 0 0 0 0 0 0 0 0 0 0 0 0 0
0 0 254 254 254 254 254 254 254 254 254 254 254 254 254 254 254 254 254
254 254 254 254 254 254 254 254 253 251 250 250 248 246 244 241 237 232
228 222 216 209 201 192 184 174 164 153 142 131 120 109 97 87 78 68 58
50 42 37 31 25 21 17 12 9 8 6 4 3 2 1 1 0 0 0 0 0 0 0 0 0 0 0 0 0 0 0 0
0 0 0 0 0 0 0 0 0 0 0 0 0 0 254 254 254 254 254 254 254 254 254 254 254
254 254 254 254 254 254 254 254 254 254 254 254 254 254 253 253 251 250
248 247 244 241 238 234 229 223 217 209 203 194 184 176 165 155 144 133
122 111 100 88 79 70 61 51 44 38 32 25 21 17 13 11 8 6 4 3 2 2 1 0 0 0
0 0 0 0 0 0 0 0 0 0 0 0 0 0 0 0 0 0 0 0 0 0 0 0 0 0 0 254 254 254 254
254 254 254 254 254 254 254 254 254 254 254 254 254 254 254 254 254 254
254 254 254 254 253 251 250 248 247 244 242 238 234 229 223 218 210 203
195 187 177 167 156 146 135 123 111 101 91 81 71 62 53 46 39 32 27 22
18 13 11 9 6 4 4 3 2 1 1 0 0 0 0 0 0 0 0 0 0 0 0 0 0 0 0 0 0 0 0 0 0 0
0 0 0 0 0 0 254 254 254 254 254 254 254 254 254 254 254 254 254 254 254
254 254 254 254 254 254 254 254 254 254 254 253 251 250 248 247 244 242
238 235 229 225 219 213 204 197 188 178 169 158 148 137 125 114 103 93
82 72 62 55 47 39 33 27 23 18 15 12 9 6 4 4 3 2 1 1 0 0 0 0 0 0 0 0 0 0
0 0 0 0 0 0 0 0 0 0 0 0 0 0 0 0 0 0 0 254 254 254 254 254 254 254 254
254 254 254 254 254 254 254 254 254 254 254 254 254 254 254 254 254 254
253 251 250 248 248 244 243 238 235 231 226 220 213 206 198 189 180 170
159 149 138 127 116 104 94 84 74 64 55 48 41 34 27 23 19 15 12 9 6 4 4
3 2 1 1 0 0 0 0 0 0 0 0 0 0 0 0 0 0 0 0 0 0 0 0 0 0 0 0 0 0 0 0 0 254
254 254 254 254 254 254 254 254 254 254 254 254 254 254 254 254 254 254
254 254 254 254 254 254 254 253 251 250 250 248 246 243 240 235 232 226
220 215 207 200 190 182 171 162 151 140 129 117 106 96 85 75 66 57 48
42 35 29 24 19 16 12 9 6 6 4 3 2 1 1 0 0 0 0 0 0 0 0 0 0 0 0 0 0 0 0 0
0 0 0 0 0 0 0 0 0 0 0 0 254 254 254 254 254 254 254 254 254 254 254 254
254 254 254 254 254 254 254 254 254 254 254 254 254 254 253 251 250 250
248 246 243 240 237 232 228 222 216 209 201 192 183 173 163 152 141 130
119 108 97 85 76 67 58 50 42 36 29 24 19 16 12 9 8 6 4 3 2 1 1 0 0 0 0
0 0 0 0 0 0 0 0 0 0 0 0 0 0 0 0 0 0 0 0 0 0 0 0 0 254 254 254 254 254
254 254 254 254 254 254 254 254 254 254 254 254 254 254 254 254 254 254
254 254 254 253 253 251 250 248 246 244 241 237 232 229 223 217 209 201
192 184 175 164 154 143 132 120 109 97 88 78 68 58 50 42 36 30 25 19 16
12 9 8 6 4 3 2 1 1 0 0 0 0 0 0 0 0 0 0 0 0 0 0 0 0 0 0 0 0 0 0 0 0 0 0
0 0 0 254 254 254 254 254 254 254 254 254 254 254 254 254 254 254 254
254 254 254 254 254 254 254 254 254 254 253 253 251 250 248 247 244 241
238 234 229 223 217 210 203 194 184 176 165 155 144 133 122 110 99 88
79 69 60 50 44 37 31 25 21 17 12 9 8 6 4 3 2 1 1 0 0 0 0 0 0 0 0 0 0 0
0 0 0 0 0 0 0 0 0 0 0 0 0 0 0 0 0 0 254 254 254 254 254 254 254 254 254
254 254 254 254 254 254 254 254 254 254 254 254 254 254 254 254 254 254
253 251 250 248 247 244 242 238 234 229 223 218 212 203 195 187 177 167
156 145 134 123 111 100 90 79 70 61 51 45 38 31 25 21 17 13 11 8 6 4 3
2 1 1 0 0 0 0 0 0 0 0 0 0 0 0 0 0 0 0 0 0 0 0 0 0 0 0 0 0 0 0 0 254 254
254 254 254 254 254 254 254 254 254 254 254 254 254 254 254 254 254 254
254 254 254 254 254 254 254 253 251 250 248 247 244 242 238 235 229 225
219 212 204 195 187 177 168 156 146 135 124 113 100 91 79 71 61 53 45
38 32 25 21 17 13 11 8 6 4 3 2 1 1 0 0 0 0 0 0 0 0 0 0 0 0 0 0 0 0 0 0
0 0 0 0 0 0 0 0 0 0 0 254 254 254 254 254 254 254 254 254 254 254 254
254 254 254 254 254 254 254 254 254 254 254 254 254 254 254 253 251 250
248 248 244 242 238 235 231 225 219 213 204 197 188 178 169 158 147 136
125 113 101 92 81 71 62 53 46 39 32 27 22 18 13 11 8 6 4 3 2 2 1 0 0 0
0 0 0 0 0 0 0 0 0 0 0 0 0 0 0 0 0 0 0 0 0 0 0 0 0 0 254 254 254 254 254
254 254 254 254 254 254 254 254 254 254 254 254 254 254 254 254 254 254
254 254 254 254 253 251 250 248 248 244 243 238 235 231 226 220 213 206
198 189 178 169 159 148 137 125 114 103 92 82 72 62 54 46 39 32 27 22
18 13 11 9 6 4 4 2 2 1 0 0 0 0 0 0 0 0 0 0 0 0 0 0 0 0 0 0 0 0 0 0 0 0
0 0 0 0 0 254 254 254 254 254 254 254 254 254 254 254 254 254 254 254
254 254 254 254 254 254 254 254 254 254 254 254 253 251 250 250 248 246
243 240 235 231 226 220 213 206 198 189 180 170 159 148 137 125 114 103
93 82 72 62 54 47 39 33 27 22 18 13 11 9 6 4 4 2 2 1 0 0 0 0 0 0 0 0 0
0 0 0 0 0 0 0 0 0 0 0 0 0 0 0 0 0 0 0 0 254 254 254 254 254 254 254 254
254 254 254 254 254 254 254 254 254 254 254 254 254 254 254 254 254 254
254 253 251 250 250 248 246 243 240 235 232 226 220 213 207 198 189 180
170 159 149 138 125 114 103 93 82 73 62 55 47 39 33 27 22 18 13 11 9 6
4 4 2 2 1 0 0 0 0 0 0 0 0 0 0 0 0 0 0 0 0 0 0 0 0 0 0 0 0 0 0 0 0 0 254
254 254 254 254 254 254 254 254 254 254 254 254 254 254 254 254 254 254
254 254 254 254 254 254 254 254 253 251 250 250 248 246 243 240 235 232
226 220 213 207 198 189 181 171 159 149 138 127 114 103 93 82 73 64 55
47 39 33 27 22 18 15 11 9 6 4 4 3 2 1 0 0 0 0 0 0 0 0 0 0 0 0 0 0 0 0 0
0 0 0 0 0 0 0 0 0 0 0 0 254 254 254 254 254 254 254 254 254 254 254 254
254 254 254 254 254 254 254 254 254 254 254 254 254 254 254 253 251 250
250 248 246 243 240 235 232 226 220 215 207 198 189 181 171 159 149 138
127 116 103 94 82 73 64 55 47 39 33 27 23 18 15 11 9 6 4 4 3 2 1 0 0 0
0 0 0 0 0 0 0 0 0 0 0 0 0 0 0 0 0 0 0 0 0 0 0 0 0 0
