P2
# Created by the Paint.NET plugin 'ImPNM.FileType'
100 100
255
0 0 0 0 0 0 0 0 0 0 0 0 0 0 0 0 0 0 0 0 0 0 1 1 1 1 1 1 2 2 2 2 2 3 3 3
3 4 4 4 4 4 4 4 4 4 4 4 4 4 4 4 4 4 4 4 4 4 4 4 4 4 4 4 3 3 3 3 2 2 2 2
2 1 1 1 1 1 1 0 0 0 0 0 0 0 0 0 0 0 0 0 0 0 0 0 0 0 0 0 0 0 0 0 0 0 0 0
0 0 0 0 0 0 0 0 0 0 0 0 0 1 1 1 1 1 1 2 2 2 2 2 3 3 3 3 4 4 4 4 4 4 4 4
4 4 6 6 6 6 6 6 6 6 4 4 4 4 4 4 4 4 4 4 4 3 3 3 3 2 2 2 2 2 1 1 1 1 1 1
0 0 0 0 0 0 0 0 0 0 0 0 0 0 0 0 0 0 0 0 0 0 0 0 0 0 0 0 0 0 0 0 0 0 0 0
0 0 0 0 1 1 1 1 1 1 2 2 2 2 2 3 3 3 3 4 4 4 4 4 4 4 4 6 6 6 6 6 6 6 6 6
6 6 6 6 6 6 4 4 4 4 4 4 4 4 3 3 3 3 2 2 2 2 2 1 1 1 1 1 1 0 0 0 0 0 0 0
0 0 0 0 0 0 0 0 0 0 0 0 0 0 0 0 0 0 0 0 0 0 0 0 0 0 0 0 0 0 0 0 1 1 1 1
1 1 2 2 2 2 3 3 3 3 4 4 4 4 4 4 4 6 6 6 6 6 6 6 6 6 6 6 6 6 6 6 6 6 6 6
4 4 4 4 4 4 4 4 3 3 3 2 2 2 2 1 1 1 1 1 1 0 0 0 0 0 0 0 0 0 0 0 0 0 0 0
0 0 0 0 0 0 0 0 0 0 0 0 0 0 0 0 0 0 0 0 0 0 0 1 1 1 1 1 2 2 2 2 3 3 3 3
4 4 4 4 4 4 6 6 6 6 6 6 6 6 6 8 8 8 8 8 8 8 6 6 6 6 6 6 6 6 6 4 4 4 4 4
4 3 3 3 3 2 2 2 2 1 1 1 1 1 0 0 0 0 0 0 0 0 0 0 0 0 0 0 0 0 0 0 0 0 0 0
0 0 0 0 0 0 0 0 0 0 0 0 0 1 1 1 1 1 1 2 2 2 2 3 3 3 4 4 4 4 4 6 6 6 6 6
6 8 8 8 8 8 9 9 9 9 9 9 9 9 9 9 8 8 8 8 6 6 6 6 6 6 4 4 4 4 4 3 3 3 2 2
2 2 1 1 1 1 1 1 0 0 0 0 0 0 0 0 0 0 0 0 0 0 0 0 0 0 0 0 0 0 0 0 0 0 0 0
0 0 0 0 1 1 1 1 1 1 2 2 2 3 3 3 4 4 4 4 4 6 6 6 6 6 8 8 8 9 9 9 9 9 9 9
9 9 9 9 9 9 9 9 9 9 9 9 8 8 8 6 6 6 6 6 4 4 4 4 4 3 3 3 2 2 2 1 1 1 1 1
1 0 0 0 0 0 0 0 0 0 0 0 0 0 0 0 0 0 0 0 0 0 0 0 0 0 0 0 0 0 0 1 1 1 1 1
2 2 2 2 3 3 4 4 4 4 4 6 6 6 6 8 8 8 9 9 9 9 9 11 11 11 12 12 12 12 12
12 12 12 12 11 11 11 9 9 9 9 9 8 8 8 6 6 6 6 4 4 4 4 3 3 3 2 2 2 2 1 1
1 1 1 0 0 0 0 0 0 0 0 0 0 0 0 0 0 0 0 0 0 0 0 0 0 0 0 0 0 0 0 1 1 1 1 1
2 2 2 3 3 3 4 4 4 4 6 6 6 6 8 8 9 9 9 11 11 12 12 12 12 12 12 13 13 13
13 13 13 13 13 13 12 12 12 12 12 12 11 11 9 9 9 8 8 6 6 6 6 4 4 4 4 3 3
3 2 2 2 1 1 1 1 1 0 0 0 0 0 0 0 0 0 0 0 0 0 0 0 0 0 0 0 0 0 0 0 0 0 0 1
1 1 1 1 2 2 2 3 3 4 4 4 4 6 6 6 6 8 8 9 9 9 11 12 12 12 12 13 13 15 15
15 16 16 16 16 16 16 16 16 16 15 15 15 13 13 12 12 12 12 11 9 9 9 8 8 6
6 6 6 4 4 4 4 3 3 2 2 2 1 1 1 1 1 0 0 0 0 0 0 0 0 0 0 0 0 0 0 0 0 0 0 0
0 0 0 0 0 1 1 1 1 1 2 2 2 3 3 4 4 4 4 6 6 6 8 9 9 9 11 11 12 12 13 13
15 15 16 17 17 17 18 18 18 18 19 19 19 19 18 18 18 17 17 17 16 15 15 13
12 12 12 11 11 9 9 9 8 6 6 6 4 4 4 4 3 3 2 2 2 1 1 1 1 1 0 0 0 0 0 0 0
0 0 0 0 0 0 0 0 0 0 0 0 0 0 0 1 1 1 1 2 2 2 3 3 3 4 4 4 6 6 6 8 8 9 9
11 12 12 12 13 15 16 17 17 18 19 19 19 19 21 21 21 22 22 22 22 22 21 21
21 19 19 19 19 18 17 17 16 15 13 12 12 12 11 9 9 8 8 6 6 6 4 4 4 3 3 3
2 2 2 1 1 1 1 0 0 0 0 0 0 0 0 0 0 0 0 0 0 0 0 0 0 0 0 1 1 1 1 2 2 2 3 3
4 4 4 4 6 6 6 8 9 9 11 12 12 12 13 15 16 17 18 19 19 21 21 22 23 23 24
24 24 25 25 25 25 25 24 24 24 23 23 22 21 21 19 19 18 17 16 15 13 12 12
12 11 9 9 8 6 6 6 4 4 4 4 3 3 2 2 2 1 1 1 1 0 0 0 0 0 0 0 0 0 0 0 0 0 0
0 0 0 0 1 1 1 1 2 2 2 3 3 4 4 4 4 6 6 8 8 9 9 11 12 12 13 15 17 18 19
19 21 22 23 24 24 25 25 25 27 27 27 27 27 27 27 27 27 27 27 27 25 25 24
24 23 22 21 19 19 18 17 15 13 12 12 11 9 9 9 8 6 6 4 4 4 4 3 3 2 2 2 1
1 1 1 0 0 0 0 0 0 0 0 0 0 0 0 0 0 0 0 1 1 1 1 2 2 2 3 3 4 4 4 6 6 6 8 9
9 11 12 12 13 15 17 18 19 19 22 23 24 25 25 27 27 29 30 30 31 32 32 32
32 32 32 32 32 31 31 30 30 29 27 27 25 25 24 23 22 19 19 18 17 15 13 12
12 11 9 9 8 6 6 6 4 4 4 3 3 2 2 2 1 1 1 1 0 0 0 0 0 0 0 0 0 0 0 0 0 0 1
1 1 1 2 2 2 3 3 4 4 4 6 6 6 8 9 9 11 12 13 15 16 18 19 19 22 23 24 25
27 27 29 31 32 33 34 34 35 36 36 36 36 37 36 36 36 35 35 34 33 33 32 31
29 27 27 25 24 23 22 19 19 18 16 15 13 12 11 9 9 8 6 6 6 4 4 4 3 3 2 2
1 1 1 1 1 0 0 0 0 0 0 0 0 0 0 0 0 0 1 1 1 1 2 2 3 3 4 4 4 6 6 6 8 9 11
12 12 13 16 17 18 19 21 23 24 25 27 29 30 32 33 34 36 37 38 39 39 39 39
41 41 41 41 41 39 39 39 39 38 37 36 34 33 32 30 29 27 25 24 23 21 19 18
17 16 13 12 12 11 9 8 6 6 6 4 4 4 3 3 2 2 1 1 1 1 1 0 0 0 0 0 0 0 0 0 0
0 1 1 1 1 2 2 3 3 4 4 4 6 6 8 9 9 11 12 12 15 16 18 19 21 23 24 25 27
30 31 33 34 36 37 39 39 41 42 42 44 45 46 46 46 46 46 46 46 45 44 44 42
41 39 39 37 36 34 33 31 30 27 25 24 23 21 19 18 16 15 12 12 11 9 9 8 6
6 4 4 4 3 3 2 2 1 1 1 1 0 0 0 0 0 0 0 0 0 0 1 1 1 1 2 2 2 3 4 4 4 6 6 8
9 9 11 12 13 15 17 18 19 22 24 25 27 29 31 33 35 37 39 39 42 42 45 46
47 48 48 50 50 50 50 50 50 50 50 50 48 48 47 46 45 42 42 39 38 37 35 33
31 29 27 25 24 22 19 18 17 15 13 12 11 9 9 8 6 6 4 4 4 3 2 2 2 1 1 1 1
0 0 0 0 0 0 0 0 1 1 1 1 2 2 2 3 3 4 4 6 6 6 9 9 11 12 13 15 17 19 21 22
24 25 27 30 32 35 37 39 41 42 45 46 48 50 50 51 54 54 55 55 55 57 57 57
55 55 55 54 54 51 50 50 48 46 45 42 41 39 37 35 33 30 27 25 24 22 19 19
17 15 13 12 11 9 9 6 6 6 4 4 3 3 2 2 2 1 1 1 1 0 0 0 0 0 0 1 1 1 1 1 2
2 3 3 4 4 6 6 6 9 9 11 12 13 15 17 19 21 23 25 27 29 32 34 36 39 41 42
45 48 50 50 53 55 57 58 58 60 61 62 62 62 62 62 62 62 61 60 58 58 57 55
53 50 50 47 45 42 41 39 36 34 32 29 27 25 23 21 19 17 16 13 12 11 9 8 6
6 4 4 4 3 3 2 2 1 1 1 1 1 1 0 0 0 1 1 1 1 1 2 2 3 3 4 4 4 6 6 8 9 11 12
13 16 17 19 21 23 25 27 30 33 35 38 39 42 45 48 50 51 55 57 58 61 62 64
65 66 67 68 69 69 69 69 69 68 67 66 65 64 62 61 58 57 55 51 50 48 45 42
39 38 35 33 30 27 25 23 21 19 17 16 13 12 11 9 8 6 6 4 4 4 3 3 2 2 1 1
1 1 1 1 0 1 1 1 1 1 2 2 2 3 4 4 4 6 6 8 9 11 12 13 15 17 19 21 23 25 27
31 33 36 39 41 44 47 48 51 55 57 60 62 64 66 68 70 71 72 74 74 75 75 75
75 75 74 73 72 71 70 68 66 64 62 60 57 55 51 48 47 44 41 39 36 33 31 27
25 23 21 19 17 15 13 12 11 9 8 6 6 4 4 4 3 2 2 2 1 1 1 1 1 1 1 1 1 1 2
2 2 3 3 4 4 6 6 8 9 9 12 12 15 17 19 21 24 25 27 31 34 37 39 42 45 48
50 54 57 60 62 65 68 70 72 74 76 78 79 79 81 82 82 82 82 82 81 79 79 78
76 74 73 70 68 65 62 60 57 54 50 48 45 42 39 37 34 31 27 25 23 21 19 17
15 12 12 9 9 8 6 6 4 4 3 3 2 2 2 1 1 1 1 1 1 1 1 1 2 2 3 3 4 4 4 6 6 9
9 11 12 15 17 19 21 23 25 29 31 34 37 39 42 46 50 53 55 58 62 65 68 71
74 76 79 81 82 84 85 87 88 88 88 88 88 88 88 87 85 84 82 81 79 76 74 71
68 65 62 58 55 53 50 46 42 39 37 34 31 29 25 23 21 19 17 15 12 11 9 9 6
6 4 4 4 3 3 2 2 1 1 1 1 1 1 1 1 2 2 2 3 3 4 4 6 6 8 9 11 12 13 16 18 21
23 25 27 31 34 37 39 44 47 50 54 57 61 64 67 71 74 77 79 82 85 87 88 91
92 94 94 94 96 96 96 96 94 94 92 91 88 87 85 82 79 77 74 71 67 64 61 57
54 50 47 44 39 37 34 31 27 25 23 19 18 16 13 12 11 9 8 6 6 4 4 4 3 2 2
2 1 1 1 1 1 1 1 2 2 3 3 4 4 6 6 8 9 9 12 13 16 18 19 23 25 27 31 34 37
39 44 47 50 55 58 62 66 69 73 76 79 82 85 88 91 94 96 97 99 100 101 103
103 103 103 103 101 100 100 97 96 94 92 88 85 82 79 76 73 69 66 62 58
55 50 47 44 39 37 34 31 27 25 22 19 18 16 13 12 9 9 8 6 6 4 4 3 3 2 2 2
2 1 1 1 1 2 2 2 3 4 4 4 6 6 8 9 11 12 15 17 19 22 24 27 30 33 37 39 44
47 50 55 58 62 67 71 75 78 82 85 88 92 94 97 100 103 104 106 108 109
110 111 111 110 110 109 108 106 104 103 100 97 94 92 88 85 82 78 75 71
67 62 58 55 50 47 44 39 37 33 30 27 24 22 19 17 15 12 11 9 9 6 6 4 4 4
3 3 2 2 2 2 1 1 2 2 2 3 3 4 4 6 6 8 9 11 12 13 16 19 21 23 25 29 32 36
39 42 47 50 55 58 62 67 72 76 79 84 88 92 94 97 101 104 106 110 111 114
114 116 117 117 117 117 117 117 114 114 111 110 106 104 101 97 94 91 88
84 79 76 72 67 62 58 55 50 47 42 39 36 33 29 25 24 21 18 16 13 12 11 9
8 6 6 4 4 3 3 2 2 2 2 2 2 2 2 3 3 4 4 4 6 6 9 9 12 13 15 18 19 23 25 29
32 35 39 42 46 50 55 58 62 68 72 76 81 85 88 93 97 100 104 108 111 114
117 119 121 122 124 124 125 125 125 124 124 122 121 119 117 114 111 108
104 100 97 93 90 85 81 77 72 68 62 58 55 50 46 42 39 35 32 27 25 23 19
18 15 12 12 9 9 6 6 4 4 4 3 3 2 2 2 2 2 2 2 3 3 4 4 6 6 8 9 11 12 15 17
19 22 24 27 31 34 37 41 45 48 54 58 62 67 72 77 81 85 91 94 99 103 106
111 114 117 121 124 125 128 129 131 132 132 132 132 132 131 129 128 125
123 121 117 114 111 108 103 99 94 91 85 81 77 72 67 62 58 54 50 45 41
38 34 30 27 24 21 19 17 13 12 11 9 8 6 6 4 4 3 3 3 2 2 2 2 2 3 3 4 4 4
6 6 8 9 12 12 16 18 19 23 25 29 33 36 39 44 48 53 57 62 67 72 76 81 85
91 96 100 104 110 114 117 121 124 127 130 133 135 137 138 139 139 140
139 139 138 136 135 133 130 127 125 121 117 114 109 104 100 96 91 85 81
77 72 67 62 57 53 48 44 39 36 33 29 25 23 19 18 16 12 12 9 8 6 6 4 4 4
3 3 3 2 2 2 2 3 3 4 4 4 6 8 9 11 12 13 17 19 22 25 27 31 35 39 42 47 50
55 61 66 70 76 81 85 91 96 100 106 110 114 119 123 127 131 134 137 139
141 143 145 145 146 146 146 146 145 143 141 139 137 134 131 127 123 120
114 111 106 100 96 91 85 81 76 71 66 61 55 50 47 42 39 35 31 27 24 22
19 17 13 12 11 9 8 6 4 4 4 3 3 3 3 2 2 3 3 4 4 4 6 6 8 9 11 12 15 18 19
23 25 29 33 37 41 45 50 54 58 64 69 74 79 85 90 96 100 106 111 116 121
125 129 133 137 140 143 146 148 150 151 152 153 153 153 152 151 150 148
146 143 140 137 133 129 125 121 116 111 106 100 96 90 85 79 74 69 64 58
54 48 45 41 37 33 29 25 23 19 18 15 12 11 9 8 6 6 4 4 4 3 3 3 2 3 3 3 4
4 4 6 6 9 9 12 13 16 19 21 24 27 31 35 39 42 47 51 57 62 67 73 78 84 88
94 100 106 111 116 121 127 131 135 140 143 146 150 152 154 156 158 159
159 159 159 159 158 156 154 152 149 146 143 139 135 131 125 121 117 111
106 100 94 88 84 78 73 67 62 57 51 47 42 39 35 31 27 24 21 19 16 13 12
9 9 8 6 4 4 4 4 3 3 3 3 3 3 4 4 6 6 8 9 11 12 15 17 19 23 25 29 33 36
41 45 50 55 60 65 70 76 82 87 93 99 104 110 116 121 125 132 136 141 145
149 152 155 158 159 162 164 165 165 165 165 165 164 162 159 158 155 152
149 145 141 136 131 125 121 116 110 104 99 93 87 82 76 70 65 60 55 50
45 41 36 33 29 25 23 19 17 15 12 11 9 8 6 6 4 4 4 4 3 3 3 3 4 4 4 6 6 8
9 11 13 16 18 21 24 27 30 34 38 42 47 51 57 62 68 74 79 85 91 97 103
109 114 121 125 131 137 141 146 150 154 158 161 164 165 168 170 171 171
171 171 171 170 168 165 164 161 158 154 150 146 142 136 131 125 120 114
109 103 97 91 85 79 73 68 62 57 51 47 42 38 34 30 27 24 21 18 16 12 11
9 8 6 6 4 4 4 4 3 3 3 4 4 4 4 6 6 9 9 12 13 16 19 22 25 27 32 36 39 45
48 54 60 65 71 77 82 88 94 100 106 113 119 125 131 136 142 147 151 156
159 163 167 169 171 174 175 176 177 177 177 177 176 174 171 170 165 163
159 155 151 147 141 136 131 125 119 113 106 100 94 88 82 76 71 65 58 54
48 44 39 36 32 27 25 22 19 16 13 12 9 9 6 6 6 4 4 4 4 3 3 4 4 4 6 6 8 9
11 12 15 17 19 23 25 29 33 37 41 46 50 55 62 67 73 79 85 92 97 103 111
117 123 129 135 140 146 151 156 159 164 168 171 174 176 178 180 181 182
182 182 181 180 178 177 174 171 168 164 159 156 151 146 140 135 129 123
117 111 103 97 92 85 79 73 67 62 55 50 46 41 37 33 29 25 23 19 17 15 12
11 9 8 6 6 4 4 4 4 3 4 4 4 4 6 6 8 9 11 12 15 18 19 24 27 30 34 38 42
48 53 58 64 70 75 82 88 94 100 106 114 120 125 133 139 144 150 155 159
165 169 171 176 178 181 183 184 186 187 187 187 186 184 183 181 178 176
171 169 164 159 155 150 144 139 133 125 120 114 106 100 94 88 82 76 70
64 58 53 48 42 38 34 30 27 23 19 18 15 12 11 9 8 6 6 4 4 4 4 3 4 4 4 4
6 6 8 9 12 13 16 18 21 24 27 31 35 39 44 48 55 60 66 72 78 84 91 97 103
110 117 124 130 136 142 148 154 159 164 169 173 177 180 183 186 188 189
189 190 192 190 190 189 188 186 183 180 177 173 169 164 159 154 148 143
136 130 124 117 111 103 97 91 84 78 72 66 60 55 48 44 39 35 31 27 24 21
18 16 13 12 9 8 6 6 4 4 4 4 4 4 4 4 4 6 6 9 9 12 13 16 19 22 25 27 32
36 41 45 50 55 61 67 74 79 85 93 100 106 113 120 125 133 139 145 151
156 162 167 171 176 180 184 187 189 190 192 194 195 195 195 194 192 190
189 187 184 180 177 171 167 163 156 151 146 139 133 125 120 113 106 100
93 85 79 74 67 62 55 50 45 41 36 32 29 25 22 19 16 13 12 9 9 8 6 6 4 4
4 4 4 4 4 6 6 6 9 11 12 13 17 19 22 25 29 33 37 42 46 51 57 62 69 75 81
88 94 101 108 114 122 129 135 142 148 154 159 165 170 175 178 183 187
189 192 195 195 197 198 198 198 197 195 194 192 189 187 183 180 175 170
165 159 154 148 142 135 129 122 114 108 101 94 88 81 75 69 62 57 51 46
42 37 33 29 25 22 19 17 13 12 11 9 8 6 6 4 4 4 4 4 4 4 6 6 8 9 11 12 15
17 19 23 25 30 34 38 42 47 53 58 64 70 77 82 90 97 103 110 117 124 131
138 145 151 156 163 168 173 177 182 186 189 192 195 198 198 200 201 201
201 201 200 197 195 192 189 186 183 177 173 168 163 156 151 144 138 131
124 117 111 103 97 90 82 77 70 64 58 53 48 42 38 34 30 25 23 19 17 15
12 11 9 8 6 6 4 4 4 4 4 4 4 6 6 8 9 11 12 15 18 19 23 27 30 34 39 42 48
54 58 65 71 78 84 91 97 104 111 119 125 133 140 146 153 159 165 170 175
180 184 188 192 195 198 200 201 203 203 203 203 203 201 200 198 195 192
188 184 180 175 170 165 159 153 146 140 133 125 119 111 104 97 91 84 78
71 65 58 54 48 42 39 34 30 27 23 19 17 15 12 11 9 8 6 6 6 4 4 4 4 4 4 6
6 8 9 11 12 15 18 19 23 27 31 35 39 44 48 54 60 66 72 79 85 92 99 106
113 120 127 134 141 148 154 159 165 171 177 182 186 189 194 197 198 201
203 203 204 206 204 203 203 201 198 197 192 189 186 181 177 171 165 159
154 148 141 134 127 120 113 106 99 92 85 79 72 66 60 54 48 44 39 35 31
27 23 21 18 15 12 11 9 8 6 6 6 4 4 4 4 4 4 6 6 8 9 11 12 15 18 21 24 27
31 35 39 44 48 55 61 66 73 79 85 93 100 106 114 121 128 135 142 149 155
161 168 173 177 183 188 190 195 198 201 203 204 206 207 207 207 206 204
203 201 198 195 190 188 183 177 173 167 162 156 149 142 136 128 121 114
106 100 93 85 79 73 67 61 55 48 44 39 35 31 27 24 21 18 15 12 11 9 8 6
6 6 4 4 4 4 4 4 6 6 8 9 11 12 15 18 21 24 27 31 35 39 45 50 55 61 67 73
79 85 93 100 108 114 122 129 136 143 150 156 162 168 174 178 184 188
192 195 198 201 203 206 207 207 207 207 207 206 203 201 198 195 192 189
184 178 174 168 162 156 150 143 136 129 122 114 108 100 93 87 79 73 67
61 55 50 45 39 35 31 27 24 21 18 15 12 11 9 8 6 6 6 4 4 4 4 4 4 6 6 8 9
11 12 15 18 21 24 27 31 35 39 45 50 55 61 67 73 79 85 93 100 108 114
122 129 136 143 150 156 162 168 174 178 184 188 192 195 198 201 203 206
207 207 207 207 207 206 203 201 198 195 192 189 184 178 174 168 162 156
150 143 136 129 122 114 108 100 93 85 79 73 67 61 55 50 45 39 35 31 27
24 21 18 15 12 11 9 8 6 6 6 4 4 4 4 4 4 6 6 8 9 11 12 15 18 21 24 27 31
35 39 45 50 55 61 67 73 79 85 93 100 108 114 122 129 136 143 150 156
162 168 174 178 184 188 192 195 198 201 203 206 207 207 207 207 207 206
203 201 198 195 192 189 184 178 174 168 162 156 150 143 136 129 122 114
108 100 93 85 79 73 67 61 55 50 45 39 35 31 27 24 21 18 15 12 11 9 8 6
6 6 4 4 4 4 4 4 6 6 8 9 11 12 15 18 21 24 27 31 35 39 44 48 55 61 66 73
79 85 93 100 106 114 121 129 135 142 149 155 162 168 173 177 183 188
190 195 198 201 203 204 206 207 207 207 206 204 203 201 198 195 192 188
183 177 173 167 162 156 149 142 136 129 121 114 106 100 93 85 79 73 67
61 55 48 44 39 35 31 27 24 21 18 15 12 11 9 8 6 6 6 4 4 4 4 4 4 6 6 8 9
11 12 15 18 19 23 27 31 35 39 44 48 54 60 66 72 79 85 92 99 106 113 120
127 134 141 148 154 159 165 171 177 182 186 189 194 197 198 201 203 203
204 206 204 203 203 201 198 197 192 189 186 182 177 171 165 159 154 148
141 134 127 120 113 106 99 92 85 79 72 66 60 54 48 44 39 35 31 27 23 21
18 15 12 11 9 8 6 6 6 4 4 4 4 4 4 6 6 8 9 11 12 15 18 19 23 27 30 34 39
42 48 54 58 65 71 78 84 91 97 104 111 119 125 133 140 146 153 159 165
170 175 180 184 188 192 195 198 200 201 203 203 203 203 203 201 200 198
195 192 188 184 180 175 170 165 159 153 146 140 133 125 119 111 104 97
91 84 78 71 65 58 54 48 42 39 34 30 27 23 19 17 15 12 11 9 8 6 6 6 4 4
4 4 4 4 6 6 8 9 11 12 15 17 19 23 25 30 34 38 42 47 53 58 64 70 77 82
90 97 103 111 117 125 131 138 145 151 156 163 168 173 177 182 186 189
192 195 198 200 200 201 201 201 201 200 198 195 192 189 186 183 177 173
168 163 156 151 145 138 131 125 117 111 103 97 90 82 77 70 64 58 53 48
42 38 34 30 25 23 19 17 15 12 11 9 8 6 6 4 4 4 4 4 4 4 6 6 6 9 11 12 13
17 19 22 25 29 33 37 42 46 51 57 62 69 75 81 88 94 101 108 114 122 129
135 142 148 154 159 165 170 175 178 183 187 189 192 195 195 197 198 198
198 197 195 194 192 189 187 183 180 175 170 165 159 154 148 142 135 129
122 114 108 101 94 88 82 75 69 62 57 51 47 42 37 33 29 25 22 19 17 13
12 11 9 8 6 6 4 4 4 4 4 4 4 4 6 6 9 9 12 13 16 19 22 25 27 32 36 41 45
50 55 61 68 74 79 85 93 100 106 113 120 125 133 139 145 151 156 162 167
171 176 180 184 187 189 192 192 194 195 195 195 194 192 190 189 187 184
180 177 171 167 163 156 151 146 139 133 127 120 113 106 100 93 85 79 74
67 62 55 50 45 41 36 32 29 25 22 19 16 13 12 9 9 8 6 6 4 4 4 3 4 4 4 4
6 6 8 9 12 13 16 18 21 24 27 31 36 39 44 48 55 60 66 72 78 84 91 97 103
111 117 124 130 137 142 148 154 159 164 169 173 177 180 183 186 188 189
190 190 192 190 190 189 188 186 183 180 177 173 169 164 159 154 148 143
136 130 124 117 111 103 97 91 84 78 72 66 60 55 48 44 39 35 31 27 24 21
18 16 13 12 9 8 6 6 4 4 4 4 3 4 4 4 4 6 6 8 9 11 12 15 18 19 24 27 30
34 38 42 48 53 58 64 70 76 82 88 94 100 106 114 120 127 133 139 144 150
155 159 165 169 171 176 178 181 183 184 186 187 187 187 186 184 183 181
178 176 171 169 164 159 155 150 144 139 133 127 120 114 106 100 94 88
82 76 70 64 58 53 48 42 39 34 30 27 23 19 18 15 12 11 9 8 6 6 4 4 4 4 3
3 4 4 4 6 6 8 9 11 12 15 17 19 23 25 29 33 37 41 46 50 55 62 67 73 79
85 92 97 103 111 117 123 129 135 140 146 151 156 159 164 168 171 174
177 178 180 181 182 183 182 181 181 178 177 174 171 168 165 159 156 151
146 140 135 129 123 117 111 103 97 92 85 79 73 67 62 55 50 46 41 37 33
29 25 23 19 17 15 12 11 9 8 6 6 4 4 4 4 3 3 4 4 4 4 6 6 9 9 12 13 16 19
22 25 27 32 36 39 45 48 54 60 65 71 77 82 88 94 100 106 113 119 125 131
136 142 147 151 156 159 163 167 170 171 174 176 177 177 177 177 177 176
174 171 170 167 163 159 156 151 147 142 136 131 125 119 113 106 100 94
88 82 77 71 65 60 54 48 44 39 36 32 27 25 22 19 16 13 12 9 9 6 6 6 4 4
4 4 3 3 3 4 4 4 6 6 8 9 11 13 16 18 21 24 27 31 34 38 42 47 51 57 62 68
74 79 85 91 97 103 109 114 121 125 131 137 142 146 151 154 158 161 164
165 168 170 171 171 171 171 171 170 168 165 164 161 158 155 150 146 142
137 131 125 121 114 109 103 97 91 85 79 74 68 62 57 51 47 42 38 34 30
27 24 21 18 16 12 11 9 8 6 6 4 4 4 4 3 3 3 3 3 4 4 6 6 8 9 11 12 15 17
19 23 25 29 33 36 41 45 50 55 60 65 71 76 82 88 93 99 104 111 116 121
127 132 136 141 145 149 152 156 158 159 163 164 165 165 165 165 165 164
162 159 158 155 152 149 145 141 137 132 127 122 116 111 104 99 93 88 82
76 70 65 60 55 50 45 41 37 33 29 25 23 19 17 15 12 11 9 8 6 6 4 4 4 4 3
2 3 3 3 4 4 4 6 8 9 9 12 13 16 19 21 24 27 31 35 39 42 47 51 57 62 68
73 78 84 90 94 100 106 111 117 122 127 131 135 140 143 147 150 153 155
156 158 159 159 159 159 159 158 156 155 153 150 147 144 140 135 131 127
122 117 111 106 100 94 90 84 78 73 67 62 57 51 48 42 39 35 31 27 24 22
19 16 13 12 9 9 8 6 6 4 4 4 3 3 2 2 3 3 4 4 4 6 6 8 9 11 12 15 18 19 23
25 29 33 37 41 45 50 54 58 64 69 74 79 85 91 96 100 106 111 116 121 125
130 134 137 140 143 146 148 150 152 152 153 153 153 152 152 150 148 146
143 140 137 133 130 125 121 116 111 106 100 96 91 85 79 75 69 64 58 54
48 45 41 37 33 30 25 23 19 18 15 12 11 9 8 6 6 4 4 4 3 3 3 2 2 3 3 3 4
4 4 6 8 9 11 12 13 17 19 22 25 27 31 35 39 42 47 50 55 61 66 71 76 81
85 91 96 100 106 111 114 120 124 128 131 134 137 139 141 143 145 146
146 147 146 146 145 143 142 140 137 134 131 127 124 120 114 111 106 100
96 91 85 81 76 71 66 61 55 50 47 42 39 35 31 27 25 22 19 17 13 12 11 9
8 6 6 4 4 3 3 3 3 2 2 2 3 3 4 4 4 6 6 8 9 12 12 16 18 19 23 25 29 33 36
39 44 48 53 57 62 67 72 77 82 85 91 96 100 104 110 114 117 121 125 128
131 133 135 137 138 139 140 140 139 139 138 137 135 133 130 128 125 121
117 114 110 104 100 96 91 87 82 77 72 67 62 57 53 48 44 39 36 33 29 25
23 19 18 16 12 12 9 8 6 6 4 4 4 3 3 3 2 2 2 2 2 3 3 4 4 6 6 8 9 11 12
15 17 19 22 24 27 31 34 38 42 46 50 54 58 62 68 72 77 82 85 91 94 99
103 108 111 114 117 121 124 125 128 130 131 132 132 133 132 132 131 130
128 125 124 121 117 114 111 108 103 99 94 91 85 82 77 72 68 62 58 54 50
46 41 38 34 31 27 24 22 19 17 15 12 11 9 8 6 6 4 4 3 3 3 2 2 2 2 2 2 3
3 4 4 4 6 6 9 9 12 13 15 18 19 23 25 29 32 35 39 42 46 50 55 58 62 68
72 77 81 85 90 94 97 100 104 108 111 114 117 119 121 123 124 125 125
125 125 125 124 122 121 119 117 114 111 108 104 101 97 94 90 85 81 77
72 68 62 58 55 50 46 42 39 35 32 27 25 23 19 18 16 12 12 9 9 6 6 4 4 4
3 3 2 2 2 1 1 2 2 2 3 3 4 4 6 6 8 9 11 12 13 16 19 21 24 27 30 33 36 39
42 47 50 55 58 62 68 72 76 79 84 88 92 94 99 101 104 106 110 111 114
114 117 117 117 117 117 117 117 114 114 111 110 106 104 101 99 94 92 88
84 79 76 72 68 62 58 55 50 47 42 39 36 33 30 25 24 21 19 16 13 12 11 9
8 6 6 4 4 3 3 2 2 2 2 1 1 2 2 2 2 3 4 4 4 6 6 8 9 12 12 15 17 19 22 25
27 30 34 37 39 44 48 50 55 58 62 67 71 75 79 82 85 88 92 96 97 100 103
104 106 108 109 110 111 111 111 110 110 108 106 104 103 100 97 94 92 88
85 82 79 75 71 67 62 58 55 50 48 44 39 37 33 30 27 24 22 19 17 15 12 11
9 9 6 6 4 4 4 3 3 2 2 2 2 1 1 1 1 2 2 3 3 4 4 6 6 8 9 11 12 13 16 18 19
23 25 27 31 34 37 41 44 47 50 55 58 62 66 70 73 76 79 82 85 88 92 94 96
97 100 100 101 103 103 103 103 103 101 100 100 97 96 94 92 88 85 82 79
77 73 70 66 62 58 55 50 48 44 39 37 34 31 27 25 23 19 18 16 13 12 9 9 8
6 6 4 4 3 3 2 2 2 2 1 1 1 1 1 2 2 2 3 4 4 4 6 6 8 9 11 12 13 16 18 21
23 25 27 31 34 37 39 44 47 50 54 57 61 64 68 71 74 77 79 82 85 87 88 91
93 94 94 96 96 96 96 96 94 94 93 91 88 87 85 82 79 77 74 71 68 64 61 57
54 50 47 44 41 37 34 31 27 25 23 21 18 16 13 12 11 9 8 6 6 4 4 4 3 2 2
2 1 1 1 1 1 1 1 1 2 2 3 3 4 4 4 6 6 9 9 11 12 15 17 19 21 23 25 29 31
34 37 39 42 47 50 53 55 58 62 65 69 71 74 77 79 81 82 85 85 87 88 88 88
88 88 88 88 87 85 85 82 81 79 76 74 71 68 65 62 58 55 53 50 47 42 39 37
34 31 29 25 23 21 19 17 15 12 11 9 9 6 6 4 4 4 3 3 2 2 1 1 1 1 1 1 1 1
1 2 2 2 3 3 4 4 6 6 8 9 9 12 13 15 17 19 21 24 25 29 31 34 37 39 42 46
48 51 55 57 60 62 66 68 70 73 75 76 78 79 81 81 82 82 82 82 82 81 79 79
78 76 75 73 70 68 66 62 60 57 54 51 48 46 42 39 37 34 31 29 25 24 21 19
17 15 13 12 9 9 8 6 6 4 4 3 3 2 2 2 1 1 1 1 0 1 1 1 1 1 2 2 2 3 4 4 4 6
6 8 9 11 12 13 15 17 19 21 24 25 27 31 33 36 39 41 44 47 50 51 55 57 60
62 64 66 68 70 71 73 74 75 75 75 76 75 75 75 74 73 71 70 68 66 64 62 60
57 55 51 50 47 44 41 39 36 33 31 27 25 24 21 19 17 15 13 12 11 9 8 6 6
4 4 4 3 2 2 2 1 1 1 1 1 0 0 1 1 1 1 1 2 2 3 3 4 4 4 6 6 8 9 11 12 13 16
17 19 21 23 25 27 30 33 35 38 39 42 45 48 50 51 55 57 58 61 62 64 65 66
67 68 69 69 69 69 69 68 67 66 65 64 62 61 58 57 55 51 50 48 45 42 39 38
35 33 30 27 25 23 21 19 17 16 13 12 11 9 8 6 6 4 4 4 3 3 2 2 1 1 1 1 1
1 0 0 0 1 1 1 1 1 2 2 3 3 4 4 6 6 6 9 9 11 12 13 16 17 19 21 23 25 27
30 32 34 36 39 41 42 45 48 50 51 54 55 57 58 58 60 61 62 62 62 62 62 62
62 61 61 60 58 57 55 53 51 50 48 45 42 41 39 36 34 32 30 27 25 23 21 19
17 16 13 12 11 9 8 6 6 4 4 4 3 3 2 2 1 1 1 1 1 1 0 0 0 0 0 1 1 1 1 2 2
2 3 3 4 4 6 6 8 9 9 11 12 13 15 17 19 21 22 24 25 27 31 33 35 37 39 41
42 45 46 48 50 50 53 54 55 55 55 55 57 57 57 57 55 55 55 54 51 50 50 48
46 45 42 41 39 37 35 33 31 27 25 24 22 21 19 17 15 13 12 11 9 9 6 6 6 4
4 3 3 2 2 2 1 1 1 1 0 0 0 0 0 0 0 0 1 1 1 1 2 2 3 3 4 4 4 6 6 8 9 9 11
12 13 15 17 18 19 22 24 25 27 29 31 33 35 37 39 39 42 42 45 46 47 48 48
50 50 50 50 50 50 50 50 50 48 48 47 46 45 42 42 39 39 37 35 33 31 29 27
25 24 22 19 18 17 15 13 12 11 9 9 8 6 6 4 4 4 3 2 2 2 1 1 1 1 0 0 0 0 0
0 0 0 0 0 1 1 1 1 2 2 3 3 4 4 4 6 6 8 9 9 11 12 12 15 16 18 19 21 23 24
25 27 30 31 33 35 36 38 39 39 41 42 44 44 45 46 46 46 46 46 46 46 45 44
44 42 41 39 39 38 36 35 33 31 30 27 25 24 23 21 19 18 16 15 12 12 11 9
9 8 6 6 4 4 4 3 3 2 2 1 1 1 1 0 0 0 0 0 0 0 0 0 0 0 0 1 1 1 1 2 2 3 3 4
4 4 6 6 8 8 9 11 12 12 13 16 17 19 19 22 23 25 25 27 29 31 32 33 35 36
37 38 39 39 39 39 41 41 41 41 41 41 39 39 39 38 37 36 35 33 32 31 29 27
25 25 23 22 19 19 17 16 13 12 12 11 9 8 6 6 6 4 4 4 3 3 2 2 1 1 1 1 1 0
0 0 0 0 0 0 0 0 0 0 0 1 1 1 1 2 2 2 3 3 4 4 4 6 6 6 8 9 9 11 12 13 15
16 18 19 19 22 23 24 25 27 27 29 31 32 33 34 34 35 36 36 36 36 37 36 36
36 35 35 34 33 33 32 31 29 27 27 25 24 23 22 19 19 18 16 15 13 12 11 9
9 8 6 6 6 4 4 4 3 3 2 2 2 1 1 1 1 0 0 0 0 0 0 0 0 0 0 0 0 0 0 1 1 1 1 2
2 2 3 3 4 4 4 6 6 6 8 9 9 11 12 12 13 16 17 18 19 19 22 23 24 25 25 27
27 29 30 30 31 32 32 32 32 32 32 32 32 32 31 30 30 29 27 27 25 25 24 23
22 19 19 18 17 16 13 12 12 11 9 9 8 6 6 6 4 4 4 3 3 2 2 2 1 1 1 1 0 0 0
0 0 0 0 0 0 0 0 0 0 0 0 0 1 1 1 1 2 2 2 3 3 4 4 4 4 6 6 8 9 9 9 11 12
12 13 16 17 18 19 19 21 22 23 24 24 25 25 27 27 27 27 27 27 27 27 27 27
27 27 27 25 25 25 24 23 22 21 19 19 18 17 16 13 12 12 11 9 9 9 8 6 6 4
4 4 4 3 3 2 2 2 1 1 1 1 0 0 0 0 0 0 0 0 0 0 0 0 0 0 0 0 0 0 1 1 1 1 2 2
2 3 3 4 4 4 4 6 6 6 8 9 9 11 12 12 12 13 15 16 17 18 19 19 21 21 22 23
23 24 24 24 25 25 25 25 25 24 24 24 23 23 22 21 21 19 19 18 17 16 15 13
12 12 12 11 9 9 8 6 6 6 4 4 4 4 3 3 2 2 2 1 1 1 1 0 0 0 0 0 0 0 0 0 0 0
0 0 0 0 0 0 0 0 0 1 1 1 1 2 2 2 3 3 3 4 4 4 6 6 6 8 8 9 9 11 12 12 12
13 15 16 17 17 18 19 19 19 19 21 21 21 21 22 22 22 22 21 21 21 19 19 19
19 18 17 17 16 15 13 12 12 12 11 9 9 8 8 6 6 6 4 4 4 3 3 3 2 2 2 1 1 1
1 0 0 0 0 0 0 0 0 0 0 0 0 0 0 0 0 0 0 0 0 0 0 1 1 1 1 1 2 2 2 3 3 4 4 4
4 6 6 6 8 9 9 9 11 11 12 12 12 13 15 15 16 16 17 17 18 18 18 18 19 19
19 18 18 18 18 17 17 16 16 15 15 13 12 12 12 11 11 9 9 9 8 6 6 6 4 4 4
4 3 3 2 2 2 1 1 1 1 1 0 0 0 0 0 0 0 0 0 0 0 0 0 0 0 0 0 0 0 0 0 0 0 0 1
1 1 1 1 2 2 2 3 3 4 4 4 4 4 6 6 6 8 8 9 9 9 11 11 12 12 12 13 13 13 15
15 15 16 16 16 16 16 16 16 15 15 15 13 13 13 12 12 12 11 11 9 9 9 8 8 6
6 6 4 4 4 4 3 3 3 2 2 2 1 1 1 1 1 0 0 0 0 0 0 0 0 0 0 0 0 0 0 0 0 0 0 0
0 0 0 0 0 0 0 1 1 1 1 1 2 2 2 3 3 3 4 4 4 4 6 6 6 6 8 8 9 9 9 9 11 11
12 12 12 12 12 12 12 13 13 13 13 13 13 12 12 12 12 12 12 11 11 9 9 9 9
8 8 6 6 6 6 4 4 4 4 3 3 3 2 2 2 1 1 1 1 1 0 0 0 0 0 0 0 0 0 0 0 0 0 0 0
0 0 0 0 0 0 0 0 0 0 0 0 0 1 1 1 1 1 2 2 2 2 3 3 3 4 4 4 4 6 6 6 6 6 8 8
9 9 9 9 9 11 11 11 11 11 11 12 12 12 11 11 11 11 11 9 9 9 9 9 9 8 8 6 6
6 6 6 4 4 4 4 3 3 3 2 2 2 2 1 1 1 1 1 0 0 0 0 0 0 0 0 0 0 0 0 0 0 0 0 0
0 0 0 0 0 0 0 0 0 0 0 0 0 0 1 1 1 1 1 2 2 2 2 3 3 3 4 4 4 4 4 6 6 6 6 6
8 8 8 8 9 9 9 9 9 9 9 9 9 9 9 9 9 9 9 8 8 8 8 6 6 6 6 6 4 4 4 4 4 3 3 3
2 2 2 2 1 1 1 1 1 0 0 0 0 0 0 0 0 0 0 0 0 0 0 0 0 0 0 0 0 0 0 0 0 0 0 0
0 0 0 0 0 0 0 1 1 1 1 1 2 2 2 2 3 3 3 3 4 4 4 4 4 4 6 6 6 6 6 6 6 8 8 8
8 8 8 8 8 8 8 8 8 8 6 6 6 6 6 6 6 4 4 4 4 4 4 3 3 3 3 2 2 2 2 1 1 1 1 1
0 0 0 0 0 0 0 0 0 0 0 0 0 0 0 0 0 0 0 0 0 0 0 0 0 0 0 0 0 0 0 0 0 0 0 0
1 1 1 1 1 1 2 2 2 2 3 3 3 3 4 4 4 4 4 4 4 6 6 6 6 6 6 6 6 6 6 6 6 6 6 6
6 6 6 6 6 6 4 4 4 4 4 4 4 3 3 3 3 2 2 2 2 1 1 1 1 1 1 0 0 0 0 0 0 0 0 0
0 0 0 0 0 0 0 0 0 0 0 0 0 0 0 0 0 0 0 0 0 0 0 0 0 0 0 0 0 0 1 1 1 1 1 1
2 2 2 2 2 3 3 3 3 4 4 4 4 4 4 4 4 4 4 4 4 4 6 6 6 6 4 4 4 4 4 4 4 4 4 4
4 4 3 3 3 3 2 2 2 2 2 1 1 1 1 1 1 0 0 0 0 0 0 0 0 0 0 0 0 0 0 0 0 0 0 0
0 0 0 0 0 0 0 0 0 0 0 0 0 0 0 0 0 0 0 0 0 0 0 1 1 1 1 1 1 1 2 2 2 2 2 3
3 3 3 3 4 4 4 4 4 4 4 4 4 4 4 4 4 4 4 4 4 4 4 4 4 4 4 3 3 3 3 3 2 2 2 2
2 1 1 1 1 1 1 1 0 0 0 0 0 0 0 0 0 0 0 0 0 0 0 0 0 0 0 0 0 0 0 0 0 0 0 0
0 0 0 0 0 0 0 0 0 0 0 0 0 0 0 0 0 1 1 1 1 1 1 1 2 2 2 2 2 2 3 3 3 3 3 3
4 4 4 4 4 4 4 4 4 4 4 4 4 4 4 3 3 3 3 3 3 2 2 2 2 2 2 1 1 1 1 1 1 1 0 0
0 0 0 0 0 0 0 0 0 0 0 0 0 0 0 0 0 0 0 0 0 0 0 0 0 0 0 0 0 0 0 0 0 0 0 0
0 0 0 0 0 0 0 0 0 0 0 1 1 1 1 1 1 1 2 2 2 2 2 2 2 3 3 3 3 3 3 3 3 3 3 3
3 3 3 3 3 3 3 3 3 3 2 2 2 2 2 2 2 1 1 1 1 1 1 1 0 0 0 0 0 0 0 0 0 0 0 0
0 0 0 0 0 0 0 0 0 0 0 0 0 0 0 0 0 0 0 0 0 0 0 0 0 0 0 0 0 0 0 0 0 0 0 0
0 0 0 0 1 1 1 1 1 1 1 1 2 2 2 2 2 2 2 2 3 3 3 3 3 3 3 3 3 3 3 3 3 3 3 2
2 2 2 2 2 2 2 1 1 1 1 1 1 1 1 0 0 0 0 0 0 0 0 0 0 0 0 0 0 0 0 0 0 0 0 0
0 0 0 0 0 0 0 0 0 0 0 0 0 0 0 0 0 0 0 0 0 0 0 0 0 0 0 0 0 0 0 0 0 1 1 1
1 1 1 1 1 2 2 2 2 2 2 2 2 2 2 2 3 3 3 3 3 3 3 2 2 2 2 2 2 2 2 2 2 2 1 1
1 1 1 1 1 1 0 0 0 0 0 0 0 0 0 0 0 0 0 0 0 0 0 0 0 0 0 0 0 0 0 0 0 0 0 0
0 0 0 0 0 0 0 0 0 0 0 0 0 0 0 0 0 0 0 0 0 0 0 0 0 0 1 1 1 1 1 1 1 1 1 2
2 2 2 2 2 2 2 2 2 2 2 2 2 2 2 2 2 2 2 2 2 2 2 2 1 1 1 1 1 1 1 1 1 0 0 0
0 0 0 0 0 0 0 0 0 0 0 0 0 0 0 0 0 0 0 0 0 0 0 0 0
