P2
# Created by the Paint.NET plugin 'ImPNM.FileType'
100 100
255
250 250 248 248 248 248 248 248 248 247 247 246 244 244 244 243 242 241
238 238 237 235 234 232 231 229 226 225 223 220 219 216 213 210 209 206
203 200 197 194 189 187 183 180 176 171 168 164 161 156 152 148 144 140
136 132 127 123 119 114 110 106 101 97 94 90 85 82 78 75 71 68 64 61 57
54 51 48 46 42 41 38 36 34 32 30 27 27 25 24 23 22 21 19 19 19 18 18 18
18 250 250 250 248 248 248 248 248 248 247 247 246 244 244 244 243 242
241 240 238 237 235 234 232 231 229 226 225 223 220 219 216 213 210 209
206 203 200 197 194 189 187 183 180 176 171 168 165 161 156 153 148 144
140 136 132 127 123 119 114 111 106 101 97 94 90 85 82 78 75 71 68 64
61 58 55 51 48 46 42 41 38 36 34 32 30 27 27 25 24 23 22 21 19 19 19 18
18 18 18 250 250 248 248 248 248 248 248 248 247 247 246 244 244 244
243 242 241 238 238 237 235 234 232 231 229 226 225 223 220 219 216 213
210 209 206 203 200 197 194 189 187 183 180 176 171 168 165 161 156 153
148 144 140 136 132 127 123 119 114 111 106 101 97 94 90 85 82 78 75 71
68 64 61 58 55 51 48 46 42 41 38 36 34 32 30 27 27 25 24 23 22 21 19 19
19 18 18 18 18 250 250 248 248 248 248 248 248 247 247 247 246 244 244
243 243 242 240 238 238 237 235 234 232 231 229 226 225 223 220 219 216
213 210 207 206 203 198 195 192 189 186 183 178 176 171 168 164 159 156
152 148 144 140 136 131 127 123 119 114 110 106 101 97 94 90 85 82 78
74 71 67 64 60 57 54 50 48 45 42 41 38 36 34 32 30 27 27 25 24 23 22 21
19 19 19 18 18 18 18 248 248 248 248 248 248 248 248 247 247 246 246
244 244 243 242 241 240 238 238 237 235 234 232 229 229 226 225 223 220
218 216 213 210 207 204 201 198 195 192 189 186 183 178 176 171 168 164
159 156 152 148 144 139 135 131 127 123 117 114 110 106 101 97 93 90 85
82 78 74 71 67 64 60 57 54 50 48 45 42 41 38 36 33 32 30 27 25 25 24 23
22 19 19 19 19 18 18 18 18 248 248 248 248 248 248 248 248 247 247 246
246 244 244 243 242 241 240 238 238 237 235 232 232 229 229 226 223 222
220 218 216 213 209 207 204 201 198 195 192 189 186 182 178 175 171 168
164 159 156 152 148 143 139 135 131 127 122 117 114 110 106 100 97 93
88 85 82 78 74 71 67 64 60 57 54 50 48 45 42 39 38 36 33 32 30 27 25 25
24 23 21 19 19 19 19 18 18 18 18 248 248 248 248 248 248 248 247 247
247 246 244 244 244 243 242 241 240 238 238 235 235 232 232 229 228 226
223 222 220 218 215 213 209 207 204 201 198 195 192 189 186 182 178 175
171 167 163 159 156 151 147 143 139 135 131 125 122 117 114 110 104 100
97 93 88 85 81 77 74 70 67 62 60 57 54 50 48 45 42 39 38 36 33 32 30 27
25 25 24 23 21 19 19 19 19 18 18 17 18 248 248 248 248 248 248 248 247
247 246 246 244 244 243 243 242 241 240 238 237 235 234 232 231 229 228
226 223 222 220 217 215 212 209 207 203 201 198 195 192 189 184 182 177
174 171 167 163 159 155 151 147 143 138 134 130 125 122 117 113 109 104
100 97 93 88 85 81 77 73 70 67 62 60 57 54 50 48 45 42 39 38 35 33 31
30 27 25 25 23 22 21 19 19 19 18 18 17 17 18 248 248 248 248 248 248
247 247 246 246 244 244 244 243 242 241 240 238 238 237 235 234 232 231
229 226 225 223 220 219 217 213 212 209 206 203 201 197 194 190 188 184
181 177 174 170 165 162 158 154 150 146 142 138 134 129 125 121 117 113
108 103 100 96 92 88 84 79 77 73 70 66 62 58 55 53 50 47 44 42 39 37 35
33 31 29 27 25 24 23 22 21 19 19 19 18 18 17 17 17 248 248 248 248 248
247 247 246 246 244 244 244 243 243 242 241 240 238 237 235 235 232 232
229 228 226 225 223 220 218 216 213 210 207 206 203 200 197 194 190 187
184 180 177 173 169 165 161 158 154 149 145 141 137 133 129 125 120 116
111 108 103 100 96 92 88 84 79 76 73 69 66 62 58 55 53 50 47 44 42 39
37 35 33 31 29 27 25 24 23 22 21 19 19 19 18 18 17 17 17 248 248 248
247 247 247 247 246 246 244 244 244 243 242 241 241 238 238 237 235 235
232 231 229 228 226 223 222 220 218 216 213 209 207 204 201 198 195 192
189 187 183 178 176 171 169 165 161 156 153 149 145 141 136 132 128 124
120 116 111 106 103 99 94 91 87 82 79 76 72 69 65 62 58 55 53 50 47 44
42 39 37 35 32 31 29 27 25 24 23 22 21 19 19 18 18 17 17 17 17 247 247
247 247 247 247 246 246 244 244 244 243 243 242 241 240 238 238 235 235
234 232 231 229 226 226 223 220 219 217 215 212 209 207 204 201 198 195
192 189 186 182 178 175 171 168 164 159 156 152 148 144 140 136 132 127
123 119 114 111 106 103 99 94 90 87 82 79 75 72 68 65 61 58 55 51 48 46
44 41 39 37 34 32 30 29 27 25 24 23 22 21 19 19 18 18 17 17 17 17 247
247 247 246 246 246 246 244 244 244 244 243 242 241 240 238 238 237 235
235 232 232 229 228 226 225 223 220 219 216 213 212 209 206 203 201 198
195 190 188 184 181 177 174 171 167 163 159 155 151 147 143 139 135 131
127 122 117 114 110 106 101 97 94 90 85 82 78 75 71 68 64 61 58 55 51
48 46 42 41 39 36 34 32 30 27 27 25 24 22 21 19 19 19 18 18 17 17 17 17
246 246 246 246 246 244 244 244 244 244 243 242 241 241 240 238 238 235
235 234 232 231 229 228 226 223 222 220 218 215 213 210 207 204 203 200
197 194 189 187 184 180 177 173 170 165 162 158 154 150 146 142 138 134
130 125 121 117 113 109 104 100 97 93 88 85 81 78 74 70 67 64 60 57 54
50 48 46 42 39 38 36 34 31 30 27 25 25 23 22 21 19 19 18 18 17 17 16 16
17 246 246 246 244 244 244 244 244 243 243 242 242 241 240 238 238 237
235 234 232 232 229 228 226 225 223 220 219 217 215 212 209 207 203 201
198 195 192 189 186 183 178 176 171 169 165 161 156 153 149 145 141 137
133 129 125 120 116 111 108 103 100 96 92 88 84 81 77 73 70 66 62 60 55
53 50 48 45 42 39 38 35 33 31 29 27 25 24 23 22 21 19 19 18 18 17 17 16
16 16 244 244 244 244 244 244 244 243 243 242 242 241 240 238 238 237
235 235 234 232 231 229 228 226 223 222 220 218 216 213 210 209 206 203
201 198 195 190 188 184 182 177 175 171 167 164 159 156 152 148 144 140
136 132 128 124 119 114 111 106 103 99 94 91 87 84 79 76 72 69 66 62 58
55 53 50 47 45 42 39 37 35 33 31 29 27 25 24 23 22 21 19 19 18 17 17 16
16 16 16 244 244 244 244 244 244 243 243 242 242 241 240 238 238 238
237 235 234 232 232 229 228 226 225 223 220 219 217 215 213 209 207 204
201 200 197 194 189 187 184 181 177 174 170 165 163 159 155 151 147 143
139 135 131 127 123 117 114 110 106 101 97 94 90 87 82 79 75 72 68 65
62 58 55 51 50 47 44 41 39 37 35 32 30 29 27 25 24 22 21 19 19 18 18 17
17 16 16 16 16 244 244 244 243 243 243 242 242 241 241 240 238 238 238
237 235 234 232 232 229 229 226 226 223 222 220 218 216 213 210 209 206
203 201 198 195 192 189 186 183 178 176 171 169 165 161 156 153 150 146
142 138 133 129 125 121 117 113 109 104 100 97 93 88 85 82 78 74 71 67
64 61 58 54 51 48 46 42 41 38 36 34 32 30 27 27 25 23 22 21 19 19 18 17
17 16 16 16 15 16 243 243 243 242 242 242 242 241 240 240 238 238 238
237 235 235 232 232 231 229 228 226 223 223 220 219 217 215 212 209 207
204 201 200 197 194 190 188 184 181 177 174 171 167 164 159 156 152 148
144 140 136 132 128 124 120 116 111 108 103 100 96 92 88 84 81 77 74 70
67 62 60 57 54 50 48 45 42 39 38 36 34 31 29 27 25 25 23 22 21 19 19 18
17 17 16 16 15 15 15 242 242 242 242 241 241 241 240 240 238 238 238
237 235 235 234 232 231 229 228 226 225 223 222 220 218 216 213 210 209
206 203 201 198 195 192 189 186 183 180 176 173 169 165 162 158 154 151
147 143 139 135 131 127 123 119 114 111 106 103 99 94 91 87 82 79 76 73
69 66 62 58 55 53 50 47 45 42 39 37 35 33 31 29 27 25 24 23 21 19 19 18
17 17 16 16 15 15 15 15 241 241 241 241 241 240 240 238 238 238 237 237
235 235 234 232 231 229 229 226 226 223 222 220 219 217 213 212 209 207
204 201 200 197 194 190 188 184 182 177 175 171 168 164 161 156 153 149
145 141 137 133 129 125 121 117 113 109 104 100 97 94 90 85 82 79 75 72
68 65 62 58 55 51 48 47 44 41 39 37 35 33 30 27 27 25 24 22 21 19 19 18
17 16 16 16 15 15 15 15 240 240 240 240 240 238 238 238 238 237 237 235
235 234 232 232 229 229 228 226 225 223 220 219 217 215 213 210 207 206
203 201 198 195 192 189 186 183 180 177 173 170 165 163 159 155 151 148
144 140 136 132 128 124 120 116 111 108 103 100 96 93 88 85 81 78 74 71
67 64 61 58 54 50 48 46 42 41 38 36 34 32 30 27 25 25 23 22 21 19 19 18
17 16 16 15 15 13 13 13 238 238 238 238 238 238 238 237 237 235 235 234
232 232 231 229 229 228 226 225 223 220 220 218 216 213 210 209 207 204
201 198 195 194 190 188 184 181 177 175 171 168 164 161 156 154 150 146
142 138 134 130 125 122 117 114 110 106 103 99 94 91 87 84 79 76 73 69
66 62 60 57 54 50 48 45 42 39 38 35 33 31 29 27 25 24 23 21 19 19 18 17
16 16 15 15 13 13 13 13 238 238 238 238 237 237 237 235 235 235 234 232
232 231 229 229 228 226 225 223 222 220 218 216 213 212 209 207 204 203
200 198 195 192 189 186 183 180 176 173 170 165 163 159 156 152 148 144
140 136 132 129 125 121 117 113 109 104 100 97 93 90 85 82 79 75 72 68
65 62 58 55 53 50 47 44 42 39 37 35 33 31 29 27 25 24 22 21 19 19 18 17
16 15 15 15 13 13 13 13 237 237 237 235 235 235 235 235 234 232 232 232
231 229 229 228 226 225 223 222 220 218 216 215 213 210 207 206 203 201
198 195 192 189 187 184 181 177 175 171 168 164 161 156 154 150 146 142
138 135 131 127 123 119 114 111 106 103 100 96 92 88 85 81 77 74 71 67
64 61 58 55 51 48 46 44 41 39 36 34 32 30 27 25 25 23 22 21 19 18 17 17
16 15 15 13 13 12 12 12 235 235 235 235 235 235 234 234 232 232 232 231
229 228 226 226 225 223 222 220 219 217 215 213 210 209 207 203 201 200
197 194 190 188 186 183 178 176 173 170 165 163 159 155 152 148 144 141
137 133 129 125 121 117 113 110 106 101 97 94 91 87 82 79 76 73 69 66
62 60 57 54 50 48 45 42 39 38 35 33 31 30 27 25 24 23 21 19 19 18 17 16
15 15 13 13 12 12 12 12 235 235 234 234 234 232 232 232 232 231 229 229
228 226 226 225 223 222 220 219 217 215 213 210 209 207 204 203 200 198
195 192 189 187 184 181 177 174 171 168 164 161 156 154 150 146 142 139
135 131 127 123 120 116 111 108 103 100 97 93 88 85 82 78 75 71 68 65
61 58 55 53 50 47 44 42 39 37 35 33 31 29 27 25 24 22 21 19 18 18 17 16
15 13 13 13 12 12 12 12 232 232 232 232 232 232 231 231 229 229 229 228
226 225 223 223 222 220 219 217 215 213 210 209 207 204 203 201 198 195
192 189 187 184 182 178 175 171 169 165 162 159 155 151 148 144 140 137
133 129 125 121 117 114 110 106 101 99 94 91 88 84 79 77 73 70 67 62 60
57 54 51 48 46 42 41 39 36 34 32 30 27 25 25 23 22 19 19 18 17 16 15 13
13 13 12 12 12 12 12 231 231 231 231 231 229 229 229 228 228 226 226
225 223 222 220 220 218 217 215 213 212 209 207 206 203 201 198 195 194
190 188 184 182 180 176 173 170 167 163 159 156 153 149 146 142 138 135
131 127 123 119 116 111 108 103 100 97 93 88 85 82 79 75 72 69 65 62 58
55 53 50 48 45 42 39 38 35 33 31 29 27 25 24 23 21 19 19 17 17 16 15 13
12 12 12 12 12 12 12 229 229 229 229 229 229 228 226 226 226 225 223
223 222 220 220 218 217 215 213 212 209 207 206 203 201 198 197 194 192
189 186 183 180 177 174 171 168 165 161 158 154 151 147 144 140 136 132
129 125 121 117 114 110 106 101 99 94 91 88 84 81 77 74 70 67 64 61 58
55 51 48 47 44 41 39 37 35 32 30 29 27 25 23 22 21 19 18 17 16 15 15 13
12 12 12 12 12 12 12 228 228 228 228 226 226 226 226 225 223 223 223
220 220 219 218 216 215 213 210 209 207 206 203 201 198 197 194 192 189
187 184 181 177 175 171 169 165 162 159 156 152 149 145 142 138 134 130
127 123 119 114 111 108 103 100 97 93 90 85 82 79 76 72 69 66 62 60 55
54 50 48 45 42 39 38 36 34 31 30 27 25 24 23 21 19 19 18 17 16 15 13 12
12 12 12 12 11 11 11 226 226 226 226 226 225 225 223 223 223 222 220
220 218 217 216 213 213 210 209 207 206 203 201 200 197 195 192 189 187
184 182 178 176 173 170 167 163 159 156 153 150 146 143 139 136 132 128
125 121 117 113 110 106 101 99 94 91 88 84 81 78 74 71 67 64 61 58 55
51 50 47 44 42 39 37 35 33 31 29 27 25 24 22 21 19 18 17 16 15 13 13 12
12 12 12 11 11 11 11 225 225 223 223 223 223 223 222 220 220 220 219
217 216 215 213 212 210 209 207 206 203 201 198 197 195 192 189 187 184
182 178 176 173 171 167 164 161 158 154 151 147 144 140 137 133 130 125
122 119 114 111 108 103 100 97 93 90 85 82 79 76 72 69 66 62 60 57 54
50 48 46 42 41 38 36 34 32 30 27 25 25 23 21 19 19 18 17 16 15 13 12 12
12 12 11 11 11 11 11 223 223 222 222 222 220 220 220 219 218 218 217
215 213 213 212 209 207 207 204 203 201 198 197 195 192 189 188 184 182
180 177 174 171 168 165 162 158 155 152 148 145 141 138 134 131 127 124
120 116 113 109 104 101 97 94 91 88 84 81 77 74 71 68 64 61 58 55 53 50
47 45 42 39 37 35 33 31 29 27 25 24 22 21 19 18 17 16 15 13 13 12 12 12
11 11 11 9 9 9 220 220 220 220 220 219 219 218 217 216 216 215 213 212
210 209 207 206 204 203 201 198 197 195 192 189 188 184 183 180 177 174
171 169 165 162 159 156 153 149 146 143 139 136 132 129 125 121 117 114
110 106 103 100 96 93 88 85 82 79 76 72 69 66 62 60 57 54 50 48 46 44
41 39 36 34 32 30 27 27 25 23 22 19 19 18 17 16 15 13 12 12 12 11 11 11
9 9 9 9 219 219 218 218 218 217 217 216 215 213 213 212 210 209 209 207
206 203 201 201 198 197 194 192 189 188 184 183 180 177 175 171 169 165
163 159 156 153 150 147 144 140 137 133 130 125 123 119 114 111 108 104
100 97 94 91 87 84 79 77 74 71 67 64 61 58 55 53 50 47 45 42 39 37 35
33 31 29 27 25 24 23 21 19 18 17 16 15 13 12 12 12 11 11 9 9 9 9 9 9
216 216 216 216 215 215 215 213 213 212 210 209 209 207 206 204 203 201
200 198 195 194 192 189 188 184 183 180 177 175 171 169 165 163 159 156
154 151 148 144 141 138 134 131 127 124 120 117 113 109 106 101 99 94
92 88 85 82 78 75 72 69 66 62 60 57 54 50 48 46 44 41 39 36 34 32 30 27
25 25 23 22 19 19 18 17 16 15 13 12 12 12 11 9 9 9 9 9 9 9 213 213 213
213 213 213 212 210 209 209 209 207 206 204 203 201 201 198 197 195 194
190 189 187 184 183 180 177 175 171 170 167 164 161 158 155 151 148 145
142 138 135 131 128 125 121 117 114 111 106 103 100 97 93 90 85 82 79
76 73 70 67 64 61 58 55 53 50 47 45 42 39 38 35 33 31 29 27 25 24 23 21
19 18 17 16 15 13 12 12 12 11 9 9 9 9 9 9 9 9 212 212 210 210 210 209
209 209 207 207 206 204 203 201 201 200 198 195 195 192 190 189 187 184
182 180 177 175 171 169 167 164 161 158 155 152 149 145 142 139 136 132
129 125 122 119 114 111 108 104 100 97 94 91 88 84 81 78 75 71 68 65 62
58 55 54 50 48 46 42 41 39 36 34 32 30 29 27 25 23 22 19 19 18 17 16 15
13 12 12 11 11 9 9 9 9 9 9 8 9 209 209 209 207 207 207 207 206 204 204
203 203 201 200 198 197 195 194 192 189 188 186 184 182 178 177 175 171
169 167 164 161 158 155 152 149 146 143 139 136 133 130 125 123 119 116
113 109 106 101 99 94 92 88 85 82 79 76 73 69 66 64 61 58 55 51 50 47
44 42 39 38 35 33 31 29 27 25 24 23 21 19 18 17 16 15 13 12 12 12 11 9
9 9 9 9 8 8 8 8 207 207 206 206 206 204 204 203 203 201 201 200 198 197
195 195 192 190 189 187 186 183 181 178 177 174 171 169 167 164 161 158
155 152 149 146 143 140 137 133 130 127 123 120 117 113 110 106 103 100
96 93 90 85 82 79 77 74 71 68 65 62 58 55 53 50 48 46 42 41 39 36 34 32
30 27 27 25 23 22 19 19 18 16 15 13 12 12 12 11 9 9 9 9 9 8 8 8 8 8 203
203 203 203 203 201 201 201 200 198 198 197 195 194 192 192 189 188 186
184 183 181 177 176 174 171 169 165 164 161 158 155 152 149 146 143 140
137 134 131 127 124 121 117 114 111 106 103 100 97 94 91 87 84 81 78 75
72 69 66 62 60 57 54 51 48 47 44 42 39 37 35 33 31 29 27 25 24 22 21 19
18 17 16 15 13 12 12 11 11 9 9 9 8 8 8 8 6 6 8 201 201 201 200 200 200
198 198 197 195 195 194 192 192 189 189 187 184 183 182 180 177 175 173
171 168 165 163 161 158 155 152 149 146 143 140 137 134 131 128 125 121
117 114 111 108 104 100 97 94 92 88 85 82 79 76 73 70 67 64 61 58 55 53
50 48 45 42 39 38 36 34 32 30 27 27 25 23 22 19 19 18 16 15 13 12 12 12
11 9 9 9 9 8 8 8 6 6 6 6 198 198 198 197 197 197 195 195 194 192 192
190 189 189 187 186 184 182 180 178 177 174 171 170 168 165 163 159 156
155 152 149 146 143 140 137 134 131 128 125 122 117 114 111 109 104 101
99 96 92 88 85 82 79 77 74 71 68 65 62 58 55 54 50 48 46 44 41 39 37 35
33 31 29 27 25 24 22 21 19 18 17 16 15 13 12 12 11 9 9 9 9 8 8 8 6 6 6
6 6 195 195 195 195 194 194 192 192 190 189 189 188 187 186 184 183 181
178 177 176 174 171 169 167 165 162 159 156 154 152 149 146 143 140 137
134 131 128 125 122 119 116 111 109 106 103 99 96 93 90 87 84 79 77 74
71 68 66 62 60 57 55 51 48 47 45 42 39 38 36 34 32 30 27 25 25 23 21 19
19 18 16 15 13 12 12 11 11 9 9 9 8 8 6 6 6 6 6 6 6 192 192 192 192 190
190 189 189 188 188 187 184 184 183 181 180 177 176 174 171 171 168 165
164 162 159 156 154 151 149 146 143 140 137 134 131 128 125 122 119 116
113 110 106 103 100 97 94 91 87 84 81 78 75 72 69 66 64 61 58 55 53 50
48 45 42 41 39 36 34 32 30 29 27 25 24 22 21 19 18 17 16 13 12 12 12 11
9 9 9 8 8 6 6 6 6 6 6 6 6 189 189 189 188 188 188 187 186 184 184 183
182 181 178 177 176 175 173 171 169 167 165 163 161 158 156 153 151 148
146 143 140 137 134 131 128 125 122 119 116 113 110 106 103 100 97 94
91 88 85 82 79 76 73 70 67 64 62 58 55 54 50 48 46 44 42 39 37 35 33 31
29 27 25 24 23 21 19 18 17 16 15 13 12 12 11 9 9 9 8 8 8 6 6 6 6 6 6 6
6 186 186 184 184 184 184 184 183 182 181 180 178 177 176 175 173 171
170 168 165 164 162 159 156 155 153 150 147 145 142 140 137 134 131 128
125 122 119 116 113 110 106 103 100 97 94 91 88 85 82 79 76 74 71 68 65
62 60 57 54 51 48 47 44 42 39 38 36 34 32 30 27 25 25 23 22 19 19 18 17
15 13 12 12 12 11 9 9 9 8 8 6 6 6 6 6 6 6 6 6 182 182 182 182 181 181
180 178 177 177 177 175 174 173 171 170 168 165 164 162 161 158 156 154
152 149 147 144 141 139 136 133 131 128 125 122 119 116 113 110 106 103
100 97 94 92 88 85 82 79 77 74 71 68 65 62 60 57 55 51 50 48 45 42 41
39 36 34 32 31 29 27 25 24 22 21 19 18 17 16 15 13 12 12 11 9 9 9 8 8 6
6 6 6 6 6 4 4 4 4 178 178 178 177 177 177 177 176 175 174 173 171 171
169 168 165 165 163 161 159 156 155 153 150 148 146 143 141 138 136 133
130 127 125 122 119 116 113 110 106 103 100 97 94 92 88 85 82 79 77 74
72 69 66 62 61 58 55 53 50 48 46 44 41 39 37 35 33 31 29 27 25 24 23 21
19 19 17 16 15 13 12 12 11 9 9 9 8 8 6 6 6 6 6 6 4 4 4 4 4 176 176 175
175 175 174 174 173 171 171 170 169 167 165 164 163 161 159 158 156 154
152 149 147 145 143 140 137 135 132 130 127 124 121 119 116 113 110 106
103 100 97 94 92 88 85 82 81 78 75 72 69 67 64 61 58 55 53 50 48 46 44
42 39 38 36 34 32 30 27 27 25 23 22 19 19 18 17 15 13 12 12 12 11 9 9 9
8 6 6 6 6 6 4 4 4 4 4 4 4 171 171 171 171 171 170 170 169 168 167 165
165 164 162 161 159 158 156 154 152 150 148 146 144 141 139 136 134 131
129 125 124 121 117 114 113 110 106 103 100 97 94 92 88 87 84 81 78 75
72 70 67 64 62 58 55 54 51 48 47 45 42 39 38 36 34 32 30 29 27 25 24 22
21 19 18 17 16 15 13 12 12 11 9 9 9 8 8 6 6 6 6 4 4 4 4 4 4 4 4 168 168
168 168 167 167 165 165 164 163 162 161 159 158 156 156 154 152 150 148
147 144 142 140 138 136 133 130 128 125 123 120 117 114 111 109 106 103
100 97 94 92 88 87 84 81 78 75 73 70 67 65 62 58 57 54 51 50 47 45 42
41 39 37 35 33 31 29 27 25 24 23 21 19 19 17 16 15 13 12 12 11 9 9 9 8
8 6 6 6 6 4 4 4 4 4 4 4 4 4 165 165 164 164 163 163 162 162 161 159 159
158 156 155 153 152 150 148 147 145 143 141 139 136 134 132 129 127 125
122 120 117 114 111 109 106 103 100 97 94 92 88 87 84 81 78 76 73 70 67
65 62 60 57 55 51 50 48 45 42 41 39 37 35 33 31 30 27 25 25 23 22 19 19
18 17 16 13 12 12 12 11 9 9 9 8 6 6 6 6 6 4 4 4 4 4 4 4 4 4 161 161 161
159 159 159 159 158 156 156 155 154 153 151 150 148 147 145 143 141 139
137 135 133 131 128 125 124 121 119 116 114 111 108 106 103 100 97 94
92 88 85 84 81 78 76 73 70 68 65 62 60 58 55 53 50 48 46 44 41 39 38 36
34 32 30 27 27 25 24 22 21 19 18 17 16 15 13 12 12 11 9 9 9 8 6 6 6 6 6
4 4 4 4 4 4 4 4 4 4 156 156 156 156 156 156 155 154 153 152 151 150 149
147 146 145 143 141 139 138 136 134 131 129 127 125 122 120 117 114 113
110 108 104 101 100 97 94 92 88 85 84 81 78 76 73 70 68 65 62 60 58 55
53 50 48 46 44 42 39 38 36 34 32 30 29 27 25 24 22 21 19 19 17 16 15 13
12 12 11 9 9 9 8 8 6 6 6 6 4 4 4 4 4 4 4 4 3 3 3 153 153 153 152 152
152 151 150 149 148 147 146 145 144 142 141 139 137 136 134 132 130 128
125 123 121 119 117 114 111 109 106 103 101 99 97 94 91 88 85 82 81 78
75 73 70 68 65 62 60 58 55 53 50 48 46 44 42 39 38 36 34 33 31 29 27 25
24 23 21 19 19 18 16 15 13 12 12 11 11 9 9 8 8 6 6 6 6 4 4 4 4 4 4 4 3
3 3 3 3 149 149 149 148 148 148 147 146 145 144 144 142 141 140 138 137
135 134 132 130 128 125 124 122 120 117 114 113 111 108 106 103 100 97
96 93 91 88 85 82 79 78 75 73 70 68 65 62 60 58 55 53 50 48 47 45 42 39
38 37 35 33 31 29 27 25 25 23 22 19 19 18 17 16 15 13 12 12 11 9 9 9 8
6 6 6 6 4 4 4 4 4 4 3 3 3 3 3 3 3 145 145 145 145 144 144 143 142 141
141 140 138 137 136 134 133 131 130 128 125 125 122 120 117 116 114 111
110 106 104 103 100 97 94 93 90 88 85 82 79 78 75 73 70 68 65 62 60 58
55 53 50 48 47 45 42 41 39 37 35 33 31 30 27 25 25 24 22 21 19 18 17 16
15 13 12 12 11 9 9 9 8 6 6 6 6 4 4 4 4 4 4 3 3 3 3 3 3 3 3 141 141 141
141 140 140 139 138 137 137 136 135 133 132 131 129 128 125 124 122 121
119 117 114 113 111 108 106 103 100 99 97 94 92 88 87 85 82 79 77 75 72
70 67 65 62 60 58 55 53 50 48 47 45 42 41 39 37 35 33 32 30 27 27 25 24
22 21 19 18 17 16 15 13 12 12 11 9 9 9 8 8 6 6 6 6 4 4 4 4 4 3 3 3 3 3
3 3 3 3 137 137 137 137 136 136 135 134 134 133 132 131 129 128 127 125
124 122 120 119 117 114 113 111 109 106 104 101 100 97 96 93 91 88 85
84 81 79 77 74 72 69 67 65 62 60 58 55 53 50 48 47 45 42 41 39 37 35 33
32 30 29 27 25 24 23 21 19 19 17 16 15 13 12 12 12 11 9 9 8 8 6 6 6 6 4
4 4 4 4 3 3 3 3 3 3 2 2 2 2 133 133 133 133 132 132 131 130 130 129 128
127 125 124 123 122 120 117 117 114 113 111 109 106 104 103 100 99 97
94 92 90 88 85 82 81 79 76 74 71 69 67 65 62 60 58 55 53 50 48 47 45 42
41 39 37 35 34 32 30 29 27 25 24 23 22 19 19 18 17 16 15 13 12 12 11 9
9 9 8 6 6 6 6 4 4 4 4 4 3 3 3 3 3 2 2 2 2 2 2 129 129 129 129 128 128
127 125 125 125 124 123 121 120 119 117 116 114 113 111 110 108 106 103
101 100 97 96 93 91 88 87 85 82 79 78 76 73 71 69 66 64 62 60 57 55 53
50 48 47 45 42 41 39 37 36 34 32 30 29 27 25 24 23 22 19 19 18 17 16 15
13 12 12 11 9 9 9 8 6 6 6 6 4 4 4 4 4 3 3 3 3 3 2 2 2 2 2 2 2 125 125
125 124 124 124 123 122 122 121 120 119 117 116 114 114 111 111 109 106
106 103 101 100 97 96 94 92 90 88 85 84 81 79 77 75 73 70 68 66 64 62
58 57 55 53 50 48 47 45 42 41 39 37 35 34 32 31 29 27 25 25 23 22 19 19
18 17 16 15 13 12 12 11 9 9 9 8 8 6 6 6 4 4 4 4 4 4 3 3 3 3 2 2 2 2 2 2
2 2 121 121 121 120 120 120 119 117 117 117 116 114 114 111 111 110 108
106 104 103 101 100 97 97 94 93 91 88 87 85 82 79 78 76 74 72 70 67 65
62 61 58 57 55 53 50 48 47 45 42 41 39 37 35 34 32 31 29 27 25 25 23 22
21 19 18 17 16 15 13 12 12 11 9 9 9 8 8 6 6 6 6 4 4 4 4 4 3 3 3 3 2 2 2
2 2 2 2 2 2 117 117 117 116 116 116 114 114 114 113 111 111 110 109 106
106 104 103 101 100 97 97 94 93 91 88 87 85 82 81 79 77 75 73 71 69 67
65 62 60 58 55 54 51 50 48 46 45 42 41 39 37 36 34 32 31 29 27 25 25 23
22 21 19 18 17 16 15 13 12 12 12 11 9 9 9 8 6 6 6 6 4 4 4 4 4 3 3 3 3 2
2 2 2 2 2 2 2 2 2 113 113 113 111 111 111 111 110 110 109 108 106 106
104 103 101 100 99 97 96 94 93 91 90 88 85 84 82 79 78 76 74 72 70 68
66 64 62 60 58 55 54 51 50 48 46 44 42 41 39 37 36 34 32 31 29 27 25 25
23 22 21 19 18 17 16 15 13 12 12 12 11 9 9 9 8 6 6 6 6 4 4 4 4 4 3 3 3
3 2 2 2 2 2 2 2 1 1 1 1 109 109 109 108 108 108 106 106 106 104 103 103
101 100 100 99 97 96 94 93 91 90 88 85 84 82 81 79 77 75 73 71 69 67 65
62 61 58 57 55 53 51 50 48 46 44 42 41 39 37 35 34 32 31 29 27 25 25 23
22 21 19 19 17 16 15 13 13 12 12 11 9 9 9 8 8 6 6 6 4 4 4 4 4 3 3 3 3 2
2 2 2 2 2 1 1 1 1 1 1 104 104 104 104 103 103 103 103 101 100 100 99 97
97 96 94 94 92 91 88 88 85 84 82 81 79 77 76 74 72 70 68 66 64 62 61 58
57 55 53 50 48 47 45 44 42 39 39 37 35 34 32 31 29 27 25 25 23 22 21 19
19 18 16 15 15 13 12 12 11 9 9 9 8 8 6 6 6 4 4 4 4 4 3 3 3 3 2 2 2 2 2
2 1 1 1 1 1 1 1 100 100 100 100 100 100 99 99 97 97 96 96 94 93 92 91
90 88 87 85 84 82 81 79 78 76 74 72 71 69 67 65 62 61 60 58 55 54 51 50
48 47 45 42 41 39 38 37 35 33 32 30 29 27 25 25 23 22 21 19 19 18 17 15
13 13 12 12 11 9 9 9 8 8 6 6 6 4 4 4 4 4 4 3 3 3 2 2 2 2 2 1 1 1 1 1 1
1 1 1 97 97 97 97 96 96 96 94 94 94 93 92 91 90 88 88 85 85 84 82 81 79
78 76 74 73 71 69 68 66 64 62 61 58 57 55 53 51 50 48 46 45 42 41 39 38
36 35 33 32 30 29 27 25 25 23 22 21 19 19 18 17 16 15 13 12 12 11 9 9 9
8 8 6 6 6 6 4 4 4 4 4 3 3 3 2 2 2 2 2 1 1 1 1 1 1 1 1 1 1 94 94 93 93
93 92 92 91 91 90 88 88 87 85 85 84 82 82 79 79 78 76 74 73 71 70 68 66
65 62 61 60 58 55 54 53 50 48 48 46 44 42 41 39 38 36 35 33 32 30 29 27
25 25 23 22 21 19 19 18 17 16 15 13 12 12 11 11 9 9 8 8 6 6 6 6 4 4 4 4
4 3 3 3 2 2 2 2 2 1 1 1 1 1 1 1 1 1 1 1 90 90 90 88 88 88 88 88 87 85
85 85 84 82 82 81 79 78 77 76 74 73 71 70 68 67 65 64 62 60 58 57 55 54
51 50 48 47 45 44 42 39 39 37 36 34 33 31 30 27 27 25 25 23 22 21 19 19
18 17 16 15 13 12 12 11 11 9 9 8 8 6 6 6 6 4 4 4 4 4 3 3 3 2 2 2 2 2 1
1 1 1 1 1 1 1 1 1 1 1 85 85 85 85 85 85 85 84 82 82 82 81 79 79 78 77
76 75 74 72 71 70 68 67 65 64 62 61 58 57 55 54 53 50 48 48 46 45 42 41
39 38 37 35 34 32 31 30 27 27 25 24 23 22 21 19 19 18 17 16 15 13 12 12
11 11 9 9 9 8 6 6 6 6 4 4 4 4 4 3 3 3 3 2 2 2 2 1 1 1 1 1 1 1 1 1 1 1 1
1 82 82 82 82 82 81 81 79 79 79 78 78 77 76 75 74 73 71 70 69 68 66 65
64 62 61 58 58 55 55 53 51 50 48 47 45 44 42 41 39 38 36 35 33 32 31 29
27 27 25 24 23 22 21 19 18 17 16 15 15 13 12 12 11 9 9 9 9 8 6 6 6 6 4
4 4 4 4 3 3 3 3 2 2 2 2 2 1 1 1 1 1 1 1 1 1 1 0 0 0 79 79 79 79 78 78
78 77 76 76 75 74 73 72 72 71 69 68 67 66 65 62 62 61 58 58 57 55 54 51
50 48 48 46 45 42 42 39 39 37 36 34 33 32 30 29 27 25 25 24 23 22 21 19
18 17 16 16 15 13 12 12 11 11 9 9 9 8 6 6 6 6 4 4 4 4 4 3 3 3 3 2 2 2 2
2 1 1 1 1 1 1 1 1 1 0 0 0 0 0 76 76 75 75 75 75 74 74 73 72 72 71 70 69
68 68 66 65 64 62 62 61 58 58 57 55 54 51 50 50 48 47 45 44 42 41 39 38
37 35 34 33 31 30 29 27 25 25 24 23 22 19 19 18 17 16 15 15 13 12 12 11
11 9 9 9 8 6 6 6 6 4 4 4 4 4 4 3 3 3 2 2 2 2 2 1 1 1 1 1 1 1 1 0 0 0 0
0 0 0 72 72 72 72 72 71 71 70 70 69 69 68 67 66 65 64 62 62 61 60 58 58
55 55 54 53 50 50 48 47 46 44 42 42 39 39 38 36 35 33 32 31 30 27 27 25
25 24 22 21 19 19 18 17 16 15 15 13 12 12 11 11 9 9 9 8 8 6 6 6 6 4 4 4
4 4 3 3 3 2 2 2 2 2 1 1 1 1 1 1 1 1 0 0 0 0 0 0 0 0 69 69 69 69 68 68
68 67 67 66 65 65 64 62 62 61 60 58 58 57 55 55 54 51 50 50 48 47 46 45
42 42 41 39 38 37 36 34 33 32 30 29 27 27 25 24 23 22 21 19 19 18 17 16
15 13 13 12 12 11 11 9 9 9 8 6 6 6 6 4 4 4 4 4 4 3 3 3 2 2 2 2 2 1 1 1
1 1 1 1 1 0 0 0 0 0 0 0 0 0 66 66 65 65 65 65 64 64 62 62 62 62 61 60
58 58 57 55 55 54 53 51 50 50 48 47 46 45 44 42 41 39 39 37 36 35 33 32
31 30 29 27 25 25 24 23 22 21 19 19 18 17 16 15 13 12 12 12 11 9 9 9 9
8 6 6 6 6 4 4 4 4 4 4 3 3 3 2 2 2 2 2 1 1 1 1 1 1 1 1 0 0 0 0 0 0 0 0 0
0 62 62 62 62 62 62 62 61 61 60 60 58 58 57 57 55 55 54 53 51 50 50 48
47 46 45 44 42 42 39 39 38 37 35 34 33 32 31 29 27 27 25 25 24 23 22 21
19 19 18 17 16 15 13 12 12 12 11 9 9 9 9 8 6 6 6 6 6 4 4 4 4 4 3 3 3 2
2 2 2 2 1 1 1 1 1 1 1 1 0 0 0 0 0 0 0 0 0 0 0 60 60 60 60 58 58 58 58
58 57 57 55 55 55 54 53 51 50 50 48 48 47 46 45 44 42 42 41 39 38 37 36
35 34 33 31 30 29 27 27 25 25 24 22 21 19 19 19 18 17 16 15 13 12 12 12
11 9 9 9 9 8 8 6 6 6 6 4 4 4 4 4 3 3 3 3 2 2 2 2 1 1 1 1 1 1 1 1 0 0 0
0 0 0 0 0 0 0 0 0 57 57 57 57 57 55 55 55 55 55 54 54 53 51 50 50 50 48
48 47 46 45 44 42 42 41 39 39 38 36 35 34 33 32 31 30 29 27 25 25 24 23
22 21 19 19 18 17 17 16 15 13 12 12 12 11 9 9 9 9 8 8 6 6 6 6 4 4 4 4 4
3 3 3 3 2 2 2 2 1 1 1 1 1 1 1 1 0 0 0 0 0 0 0 0 0 0 0 0 0 55 55 54 54
54 54 53 53 51 51 51 50 50 50 48 48 47 46 46 45 44 42 42 41 39 39 38 37
35 34 33 32 31 30 29 27 27 25 25 24 23 22 21 19 19 18 17 16 15 15 13 12
12 12 11 9 9 9 9 8 6 6 6 6 6 4 4 4 4 4 3 3 3 3 2 2 2 2 1 1 1 1 1 1 1 1
0 0 0 0 0 0 0 0 0 0 0 0 0 0 51 51 51 50 50 50 50 50 50 48 48 48 48 47
46 46 45 44 42 42 41 41 39 39 38 37 36 35 34 33 32 30 29 27 27 25 25 24
23 22 21 21 19 19 18 17 16 15 13 13 12 12 12 11 9 9 9 8 8 6 6 6 6 4 4 4
4 4 4 3 3 3 3 2 2 2 2 1 1 1 1 1 1 1 1 0 0 0 0 0 0 0 0 0 0 0 0 0 0 0 50
50 50 48 48 48 48 48 48 47 47 46 46 45 44 44 42 42 41 41 39 39 38 37 36
35 34 33 32 31 30 29 27 27 25 25 24 23 22 21 19 19 19 18 17 16 15 13 13
12 12 12 11 9 9 9 9 8 6 6 6 6 6 4 4 4 4 4 3 3 3 3 2 2 2 2 2 1 1 1 1 1 1
1 0 0 0 0 0 0 0 0 0 0 0 0 0 0 0 0 48 48 47 47 47 47 47 46 46 45 45 44
44 42 42 42 41 39 39 39 38 37 36 35 34 33 32 31 31 30 29 27 27 25 25 24
23 22 21 19 19 18 18 17 16 15 13 13 12 12 12 11 9 9 9 9 8 6 6 6 6 6 4 4
4 4 4 3 3 3 3 2 2 2 2 2 1 1 1 1 1 1 1 0 0 0 0 0 0 0 0 0 0 0 0 0 0 0 0 0
45 45 45 45 45 45 44 44 44 42 42 42 42 41 39 39 39 38 38 37 36 35 34 34
33 32 31 30 29 27 27 25 25 24 24 23 22 21 19 19 18 17 17 16 15 13 13 12
12 11 11 9 9 9 8 8 6 6 6 6 6 4 4 4 4 4 3 3 3 3 2 2 2 2 2 1 1 1 1 1 1 1
0 0 0 0 0 0 0 0 0 0 0 0 0 0 0 0 0 0 42 42 42 42 42 42 42 42 42 41 41 39
39 39 39 38 37 37 36 35 34 33 33 32 31 30 29 27 27 27 25 25 24 23 22 21
21 19 19 18 17 16 16 15 13 12 12 12 11 11 9 9 9 8 8 6 6 6 6 6 4 4 4 4 4
3 3 3 3 2 2 2 2 2 1 1 1 1 1 1 1 1 0 0 0 0 0 0 0 0 0 0 0 0 0 0 0 0 0 0
41 41 41 41 41 41 41 39 39 39 39 39 38 37 37 36 36 35 34 33 33 32 31 30
30 29 27 27 25 25 24 24 23 22 21 19 19 19 18 17 16 16 15 13 12 12 12 11
11 9 9 9 8 8 6 6 6 6 6 4 4 4 4 4 3 3 3 3 2 2 2 2 2 1 1 1 1 1 1 1 1 0 0
0 0 0 0 0 0 0 0 0 0 0 0 0 0 0 0 0 39 39 39 39 39 39 39 39 38 38 38 37
37 36 36 35 34 34 33 32 32 31 30 29 27 27 27 25 25 24 24 23 22 21 19 19
19 18 17 16 16 15 13 12 12 12 12 11 9 9 9 9 8 8 6 6 6 6 4 4 4 4 4 4 3 3
3 3 2 2 2 2 2 1 1 1 1 1 1 1 0 0 0 0 0 0 0 0 0 0 0 0 0 0 0 0 0 0 0 0 39
39 39 38 38 38 38 37 37 37 36 36 35 35 34 34 33 32 32 31 30 30 29 27 27
27 25 25 24 23 23 22 21 19 19 19 18 17 16 16 15 13 13 12 12 12 11 9 9 9
9 8 8 6 6 6 6 4 4 4 4 4 4 3 3 3 3 2 2 2 2 2 1 1 1 1 1 1 1 0 0 0 0 0 0 0
0 0 0 0 0 0 0 0 0 0 0 0 0 0 37 37 37 37 37 37 36 36 36 35 35 35 34 34
33 32 32 31 31 30 29 29 27 27 25 25 25 24 23 22 22 21 19 19 19 18 17 16
16 15 13 13 12 12 12 11 9 9 9 9 8 8 6 6 6 6 6 4 4 4 4 4 3 3 3 3 2 2 2 2
2 1 1 1 1 1 1 1 1 0 0 0 0 0 0 0 0 0 0 0 0 0 0 0 0 0 0 0 0 0 36 36 36 36
35 35 35 35 34 34 34 33 33 32 32 31 31 30 29 29 27 27 27 25 25 25 24 23
22 22 21 19 19 19 18 17 16 16 15 13 13 12 12 12 11 9 9 9 9 8 8 6 6 6 6
6 4 4 4 4 4 4 3 3 3 2 2 2 2 2 1 1 1 1 1 1 1 1 0 0 0 0 0 0 0 0 0 0 0 0 0
0 0 0 0 0 0 0 0 0 35 35 35 35 34 34 34 34 33 33 33 32 32 31 31 30 30 29
29 27 27 27 25 25 24 24 23 22 22 21 19 19 19 18 17 17 16 15 13 13 12 12
12 11 11 9 9 9 8 8 6 6 6 6 6 4 4 4 4 4 4 3 3 3 3 2 2 2 2 2 1 1 1 1 1 1
1 0 0 0 0 0 0 0 0 0 0 0 0 0 0 0 0 0 0 0 0 0 0 0 34 34 34 34 34 34 34 33
33 33 32 32 31 31 30 30 29 29 27 27 27 25 25 25 24 23 23 22 21 19 19 19
18 18 17 16 15 15 13 12 12 12 12 11 9 9 9 9 8 8 6 6 6 6 6 4 4 4 4 4 4 3
3 3 2 2 2 2 2 1 1 1 1 1 1 1 1 0 0 0 0 0 0 0 0 0 0 0 0 0 0 0 0 0 0 0 0 0
0 0 34 34 34 33 33 33 33 33 32 32 32 31 31 30 30 29 29 27 27 27 25 25
25 24 24 23 22 21 21 19 19 19 18 17 17 16 15 15 13 12 12 12 11 11 9 9 9
9 8 8 6 6 6 6 4 4 4 4 4 4 3 3 3 3 2 2 2 2 2 1 1 1 1 1 1 1 1 0 0 0 0 0 0
0 0 0 0 0 0 0 0 0 0 0 0 0 0 0 0 0 33 33 33 33 33 33 32 32 32 31 31 31
30 30 29 29 27 27 27 25 25 25 24 24 23 22 22 21 19 19 19 18 18 17 16 15
15 13 13 12 12 12 11 9 9 9 9 8 8 6 6 6 6 6 4 4 4 4 4 4 3 3 3 3 2 2 2 2
2 1 1 1 1 1 1 1 0 0 0 0 0 0 0 0 0 0 0 0 0 0 0 0 0 0 0 0 0 0 0 0 33 33
32 32 32 32 32 31 31 31 30 30 30 29 29 27 27 27 25 25 25 25 24 23 23 22
21 21 19 19 19 18 17 16 16 15 15 13 12 12 12 11 11 9 9 9 9 8 8 6 6 6 6
6 4 4 4 4 4 3 3 3 3 2 2 2 2 2 1 1 1 1 1 1 1 1 0 0 0 0 0 0 0 0 0 0 0 0 0
0 0 0 0 0 0 0 0 0 0 0 32 32 32 32 32 32 32 31 31 31 30 30 30 29 29 27
27 27 25 25 25 25 24 23 23 22 21 21 19 19 19 18 17 16 16 15 13 13 12 12
12 11 11 9 9 9 9 8 8 6 6 6 6 4 4 4 4 4 4 3 3 3 3 2 2 2 2 2 1 1 1 1 1 1
1 1 0 0 0 0 0 0 0 0 0 0 0 0 0 0 0 0 0 0 0 0 0 0 0 0
