P2
# Created by the Paint.NET plugin 'ImPNM.FileType'
100 100
255
254 254 254 254 254 254 254 254 254 254 254 254 254 254 254 254 254 254
254 254 254 251 250 241 232 212 192 161 131 100 69 48 27 17 6 4 1 0 0 0
0 0 0 0 0 0 0 0 0 0 1 4 9 22 35 60 85 117 152 180 209 225 241 246 251
254 254 254 254 254 254 254 254 254 254 254 254 254 254 254 254 254 254
254 254 254 254 254 254 254 254 254 254 254 254 254 254 254 254 254 254
254 254 254 254 254 254 254 254 254 254 254 254 254 254 254 254 254 254
254 254 251 248 240 231 210 190 159 129 97 67 46 25 16 6 4 1 0 0 0 0 0
0 0 0 0 0 0 0 1 1 6 9 23 36 62 87 121 154 182 209 226 241 247 253 254
254 254 254 254 254 254 254 254 254 254 254 254 254 254 254 254 254 254
254 254 254 254 254 254 254 254 254 254 254 254 254 254 254 254 254 254
254 254 254 254 254 254 254 254 254 254 254 254 254 254 254 254 254 254
254 251 248 240 231 209 189 159 128 97 66 45 25 15 6 3 1 0 0 0 0 0 0 0
0 0 0 0 0 1 2 6 11 24 38 64 90 123 156 184 210 226 242 247 253 254 254
254 254 254 254 254 254 254 254 254 254 254 254 254 254 254 254 254 254
254 254 254 254 254 254 254 254 254 254 254 254 254 254 254 254 254 254
254 254 254 254 254 254 254 254 254 254 254 254 254 254 254 254 254 254
251 248 240 231 209 189 158 125 94 65 44 24 15 6 3 1 0 0 0 0 0 0 0 0 0
0 0 0 1 2 6 12 25 39 67 94 127 159 187 213 228 243 248 253 254 254 254
254 254 254 254 254 254 254 254 254 254 254 254 254 254 254 254 254 254
254 254 254 254 254 254 254 254 254 254 254 254 254 254 254 254 254 254
254 254 254 254 254 254 254 254 254 254 254 254 254 254 254 254 254 251
248 240 229 209 188 156 125 94 62 42 23 13 4 3 0 0 0 0 0 0 0 0 0 0 0 0
0 1 2 8 12 27 42 70 97 131 164 189 216 229 244 248 253 254 254 254 254
254 254 254 254 254 254 254 254 254 254 254 254 254 254 254 254 254 254
254 254 254 254 254 254 254 254 254 254 254 254 254 254 254 254 254 254
254 254 254 254 254 254 254 254 254 254 254 254 254 254 254 254 251 248
240 231 209 189 156 125 94 64 42 23 13 4 3 0 0 0 0 0 0 0 0 0 0 0 0 0 1
2 8 13 29 45 73 100 134 167 192 219 232 244 248 253 254 254 254 254 254
254 254 254 254 254 254 254 254 254 254 254 254 254 254 254 254 254 254
254 254 254 254 254 254 254 254 254 254 254 254 254 254 254 254 254 254
254 254 254 254 254 254 254 254 254 254 254 254 254 254 254 251 248 240
231 210 189 158 127 94 64 44 23 13 4 3 0 0 0 0 0 0 0 0 0 0 0 0 0 1 3 9
15 31 47 76 104 138 171 195 220 232 246 250 254 254 254 254 254 254 254
254 254 254 254 254 254 254 254 254 254 254 254 254 254 254 254 254 254
254 254 254 254 254 254 254 254 254 254 254 254 254 254 254 254 254 254
254 254 254 254 254 254 254 254 254 254 254 254 254 254 251 250 241 232
212 190 159 129 97 66 45 24 15 6 3 0 0 0 0 0 0 0 0 0 0 0 0 0 1 3 9 15
32 48 77 106 140 173 198 222 234 246 250 254 254 254 254 254 254 254
254 254 254 254 254 254 254 254 254 254 254 254 254 254 254 254 254 254
254 254 254 254 254 254 254 254 254 254 254 254 254 254 254 254 254 254
254 254 254 254 254 254 254 254 254 254 254 254 254 254 251 250 242 232
213 192 162 131 99 67 46 25 15 6 3 0 0 0 0 0 0 0 0 0 0 0 0 0 1 3 9 16
33 50 79 109 142 175 198 223 235 247 250 254 254 254 254 254 254 254
254 254 254 254 254 254 254 254 254 254 254 254 254 254 254 254 254 254
254 254 254 254 254 254 254 254 254 254 254 254 254 254 254 254 254 254
254 254 254 254 254 254 254 254 254 254 254 254 254 254 253 250 242 234
215 195 164 133 100 69 47 25 16 6 3 1 0 0 0 0 0 0 0 0 0 0 0 0 1 3 9 16
33 50 79 109 142 176 200 223 235 247 250 254 254 254 254 254 254 254
254 254 254 254 254 254 254 254 254 254 254 254 254 254 254 254 254 254
254 254 254 254 254 254 254 254 254 254 254 254 254 254 254 254 254 254
254 254 254 254 254 254 254 254 254 254 254 254 254 254 253 250 243 235
216 197 165 136 103 71 48 27 17 6 4 1 0 0 0 0 0 0 0 0 0 0 0 0 1 3 9 16
33 50 79 110 143 176 200 225 235 247 250 254 254 254 254 254 254 254
254 254 254 254 254 254 254 254 254 254 254 254 254 254 254 254 254 254
254 254 254 254 254 254 254 254 254 254 254 254 254 254 254 254 254 254
254 254 254 254 254 254 254 254 254 254 254 254 254 254 253 250 244 235
218 198 169 139 106 74 50 27 18 6 4 1 0 0 0 0 0 0 0 0 0 0 0 0 1 3 9 16
33 50 79 110 143 177 201 225 235 247 250 254 254 254 254 254 254 254
254 254 254 254 254 254 254 254 254 254 254 254 254 254 254 254 254 254
254 254 254 254 254 254 254 254 254 254 254 254 254 254 254 254 254 254
254 254 254 254 254 254 254 254 254 254 254 254 254 254 253 250 244 237
219 201 171 142 109 77 53 30 19 8 4 1 0 0 0 0 0 0 0 0 0 0 0 0 1 3 9 16
34 50 81 110 144 177 201 225 235 247 250 254 254 254 254 254 254 254
254 254 254 254 254 254 254 254 254 254 254 254 254 254 254 254 254 254
254 254 254 254 254 254 254 254 254 254 254 254 254 254 254 254 254 254
254 254 254 254 254 254 254 254 254 254 254 254 254 254 253 251 244 238
222 204 175 146 113 81 55 32 19 9 4 1 0 0 0 0 0 0 0 0 0 0 0 0 1 3 9 16
34 50 81 110 144 177 201 225 235 247 250 254 254 254 254 254 254 254
254 254 254 254 254 254 254 254 254 254 254 254 254 254 254 254 254 254
254 254 254 254 254 254 254 254 254 254 254 254 254 254 254 254 254 254
254 254 254 254 254 254 254 254 254 254 254 254 254 254 254 251 246 240
223 207 178 150 117 84 58 35 22 9 4 1 0 0 0 0 0 0 0 0 0 0 0 0 1 3 9 16
34 50 81 110 144 177 201 225 235 247 250 254 254 254 254 254 254 254
254 254 254 254 254 254 254 254 254 254 254 254 254 254 254 254 254 254
254 254 254 254 254 254 254 254 254 254 254 254 254 254 254 254 254 254
254 254 254 254 254 254 254 254 254 254 254 254 254 254 254 253 247 241
226 210 183 156 123 90 64 38 25 11 6 2 1 0 0 0 0 0 0 0 0 0 0 0 1 3 9 16
34 50 81 110 144 177 201 225 235 247 250 254 254 254 254 254 254 254
254 254 254 254 254 254 254 254 254 254 254 254 254 254 254 254 254 254
254 254 254 254 254 254 254 254 254 254 254 254 254 254 254 254 254 254
254 254 254 254 254 254 254 254 254 254 254 254 254 254 254 253 248 243
229 213 188 161 128 96 69 42 27 12 8 2 1 0 0 0 0 0 0 0 0 0 0 0 1 3 9 16
34 50 81 110 144 177 201 225 235 247 250 254 254 254 254 254 254 254
254 254 254 254 254 254 254 254 254 254 254 254 254 254 254 254 254 254
254 254 254 254 254 254 254 254 254 254 254 254 254 254 254 254 254 254
254 254 254 254 254 254 254 254 254 254 254 254 254 254 254 253 248 244
231 218 192 168 135 103 75 47 31 15 9 3 1 0 0 0 0 0 0 0 0 0 0 0 1 3 9
16 34 50 81 110 144 177 201 225 235 247 250 254 254 254 254 254 254 254
254 254 254 254 254 254 254 254 254 254 254 254 254 254 254 254 254 254
254 254 254 254 254 254 254 254 254 254 254 254 254 254 254 254 254 254
254 254 254 254 254 254 254 254 254 254 254 254 254 254 254 254 250 246
234 222 198 175 142 110 81 51 35 18 11 4 2 0 0 0 0 0 0 0 0 0 0 0 1 3 9
16 34 50 81 110 144 177 201 225 235 247 250 254 254 254 254 254 254 254
254 254 254 254 254 254 254 254 254 254 254 254 254 254 254 254 254 254
254 254 254 254 254 254 254 254 254 254 254 254 254 254 254 254 254 254
254 254 254 254 254 254 254 254 254 254 254 254 254 254 254 254 250 247
237 226 203 182 150 119 88 58 39 21 12 4 3 0 0 0 0 0 0 0 0 0 0 0 1 3 9
16 34 50 81 110 144 177 201 225 235 247 250 254 254 254 254 254 254 254
254 254 254 254 254 254 254 254 254 254 254 254 254 254 254 254 254 254
254 254 254 254 254 254 254 254 254 254 254 254 254 254 254 254 254 254
254 254 254 254 254 254 254 254 254 254 254 254 254 254 254 254 251 248
240 229 209 189 158 127 97 66 45 25 16 6 3 1 0 0 0 0 0 0 0 0 0 0 1 3 9
16 34 50 81 110 144 177 201 225 235 247 250 254 254 254 254 254 254 254
254 254 254 254 254 254 254 254 254 254 254 254 254 254 254 254 254 254
254 254 254 254 254 254 254 254 254 254 254 254 254 254 254 254 254 254
254 254 254 254 254 254 254 254 254 254 254 254 254 254 254 254 251 250
242 234 215 195 165 137 104 74 51 30 19 8 4 1 0 0 0 0 0 0 0 0 0 0 1 3 9
16 34 50 81 110 144 177 201 225 235 247 250 254 254 254 254 254 254 254
254 254 254 254 254 254 254 254 254 254 254 254 254 254 254 254 254 254
254 254 254 254 254 254 254 254 254 254 254 254 254 254 254 254 254 254
254 254 254 254 254 254 254 254 254 254 254 254 254 254 254 254 253 250
244 237 220 203 175 146 114 82 58 34 22 9 6 2 1 0 0 0 0 0 0 0 0 0 1 3 9
16 34 50 81 110 144 177 201 225 235 247 250 254 254 254 254 254 254 254
254 254 254 254 254 254 254 254 254 254 254 254 254 254 254 254 254 254
254 254 254 254 254 254 254 254 254 254 254 254 254 254 254 254 254 254
254 254 254 254 254 254 254 254 254 254 254 254 254 254 254 254 254 251
246 240 225 209 182 155 123 91 66 39 25 12 6 2 1 0 0 0 0 0 0 0 0 0 1 3
9 16 34 50 81 110 144 177 201 225 235 247 250 254 254 254 254 254 254
254 254 254 254 254 254 254 254 254 254 254 254 254 254 254 254 254 254
254 254 254 254 254 254 254 254 254 254 254 254 254 254 254 254 254 254
254 254 254 254 254 254 254 254 254 254 254 254 254 254 254 254 254 254
253 248 243 229 216 189 165 133 100 73 46 31 15 9 3 2 0 0 0 0 0 0 0 0 0
1 3 9 16 34 50 81 110 144 177 201 225 235 247 250 254 254 254 254 254
254 254 254 254 254 254 254 254 254 254 254 254 254 254 254 254 254 254
254 254 254 254 254 254 254 254 254 254 254 254 254 254 254 254 254 254
254 254 254 254 254 254 254 254 254 254 254 254 254 254 254 254 254 254
254 253 248 244 232 220 197 174 142 111 82 54 37 19 12 4 2 0 0 0 0 0 0
0 0 0 1 3 9 16 33 50 79 110 143 177 201 225 235 247 250 254 254 254 254
254 254 254 254 254 254 254 254 254 254 254 254 254 254 254 254 254 254
254 254 254 254 254 254 254 254 254 254 254 254 254 254 254 254 254 254
254 254 254 254 254 254 254 254 254 254 254 254 254 254 254 254 254 254
254 254 254 250 247 237 226 203 183 152 121 91 62 42 23 15 6 3 1 0 0 0
0 0 0 0 0 1 3 9 16 33 50 79 110 143 176 200 225 235 247 250 254 254 254
254 254 254 254 254 254 254 254 254 254 254 254 254 254 254 254 254 254
254 254 254 254 254 254 254 254 254 254 254 254 254 254 254 254 254 254
254 254 254 254 254 254 254 254 254 254 254 254 254 254 254 254 254 254
254 254 254 254 251 248 240 231 210 190 162 133 101 72 50 30 19 9 4 1 1
0 0 0 0 0 0 0 1 3 9 16 33 50 79 109 142 176 200 223 235 247 250 254 254
254 254 254 254 254 254 254 254 254 254 254 254 254 254 254 254 254 254
254 254 254 254 254 254 254 254 254 254 254 254 254 254 254 254 254 254
254 254 254 254 254 254 254 254 254 254 254 254 254 254 254 254 254 254
254 254 254 254 254 253 250 243 235 218 200 171 144 114 82 58 36 24 11
6 2 1 0 0 0 0 0 0 0 1 3 9 16 33 50 79 109 142 175 198 223 235 247 250
254 254 254 254 254 254 254 254 254 254 254 254 254 254 254 254 254 254
254 254 254 254 254 254 254 254 254 254 254 254 254 254 254 254 254 254
254 254 254 254 254 254 254 254 254 254 254 254 254 254 254 254 254 254
254 254 254 254 254 254 254 253 251 244 238 223 209 183 156 125 96 70
45 30 16 9 4 2 0 0 0 0 0 0 0 1 3 9 15 32 48 77 106 140 173 198 222 234
246 250 254 254 254 254 254 254 254 254 254 254 254 254 254 254 254 254
254 254 254 254 254 254 254 254 254 254 254 254 254 254 254 254 254 254
254 254 254 254 254 254 254 254 254 254 254 254 254 254 254 254 254 254
254 254 254 254 254 254 254 254 254 254 253 248 243 229 217 192 169 139
109 81 54 37 19 12 4 3 0 0 0 0 0 0 0 1 3 9 15 31 47 76 103 138 171 195
220 232 246 250 254 254 254 254 254 254 254 254 254 254 254 254 254 254
254 254 254 254 254 254 254 254 254 254 254 254 254 254 254 254 254 254
254 254 254 254 254 254 254 254 254 254 254 254 254 254 254 254 254 254
254 254 254 254 254 254 254 254 254 254 254 254 253 250 246 235 223 203
181 152 122 94 65 46 25 17 6 4 1 0 0 0 0 0 0 1 2 8 13 29 45 73 100 134
167 192 219 232 244 248 253 254 254 254 254 254 254 254 254 254 254 254
254 254 254 254 254 254 254 254 254 254 254 254 254 254 254 254 254 254
254 254 254 254 254 254 254 254 254 254 254 254 254 254 254 254 254 254
254 254 254 254 254 254 254 254 254 254 254 254 254 254 254 250 248 240
231 212 192 165 136 106 76 54 32 21 9 6 2 1 0 0 0 0 0 1 2 6 12 27 42 70
97 130 163 189 216 229 244 248 253 254 254 254 254 254 254 254 254 254
254 254 254 254 254 254 254 254 254 254 254 254 254 254 254 254 254 254
254 254 254 254 254 254 254 254 254 254 254 254 254 254 254 254 254 254
254 254 254 254 254 254 254 254 254 254 254 254 254 254 254 254 254 251
250 243 235 219 203 176 149 119 88 64 39 25 12 8 3 1 0 0 0 0 0 1 2 6 12
25 39 66 92 125 158 186 213 226 242 247 253 254 254 254 254 254 254 254
254 254 254 254 254 254 254 254 254 254 254 254 254 254 254 254 254 254
254 254 254 254 254 254 254 254 254 254 254 254 254 254 254 254 254 254
254 254 254 254 254 254 254 254 254 254 254 254 254 254 254 254 254 254
254 253 251 246 241 226 213 188 162 131 100 74 47 32 16 9 3 2 0 0 0 0 0
1 2 6 9 23 36 62 87 120 153 181 209 225 241 247 251 254 254 254 254 254
254 254 254 254 254 254 254 254 254 254 254 254 254 254 254 254 254 254
254 254 254 254 254 254 254 254 254 254 254 254 254 254 254 254 254 254
254 254 254 254 254 254 254 254 254 254 254 254 254 254 254 254 254 254
254 254 254 254 253 248 244 232 220 197 174 143 111 84 55 38 19 12 4 3
0 0 0 0 0 0 1 4 9 21 33 58 82 114 148 176 204 222 238 244 251 253 254
254 254 254 254 254 254 254 254 254 254 254 254 254 254 254 254 254 254
254 254 254 254 254 254 254 254 254 254 254 254 254 254 254 254 254 254
254 254 254 254 254 254 254 254 254 254 254 254 254 254 254 254 254 254
254 254 254 254 254 254 254 254 250 247 237 226 206 184 154 124 94 65
45 25 16 6 4 1 0 0 0 0 0 1 4 8 19 30 54 77 110 142 171 201 219 237 244
250 253 254 254 254 254 254 254 254 254 254 254 254 254 254 254 254 254
254 254 254 254 254 254 254 254 254 254 254 254 254 254 254 254 254 254
254 254 254 254 254 254 254 254 254 254 254 254 254 254 254 254 254 254
254 254 254 254 254 254 254 254 254 254 254 251 248 240 232 213 194 165
136 104 75 53 31 19 9 4 1 1 0 0 0 0 1 4 6 17 27 48 72 103 135 165 195
215 234 242 250 251 254 254 254 254 254 254 254 254 254 254 254 254 254
254 254 254 254 254 254 254 254 254 254 254 254 254 254 254 254 254 254
254 254 254 254 254 254 254 254 254 254 254 254 254 254 254 254 254 254
254 254 254 254 254 254 254 254 254 254 254 254 254 254 253 250 244 237
220 203 175 148 116 85 61 37 24 11 6 2 1 0 0 0 0 1 3 6 15 24 45 66 97
128 159 189 210 231 240 248 251 254 254 254 254 254 254 254 254 254 254
254 254 254 254 254 254 254 254 254 254 254 254 254 254 254 254 254 254
254 254 254 254 254 254 254 254 254 254 254 254 254 254 254 254 254 254
254 254 254 254 254 254 254 254 254 254 254 254 254 254 254 254 254 253
251 246 240 226 210 184 159 128 97 71 45 30 15 9 3 2 0 0 0 0 0 3 4 12
21 41 60 90 120 152 183 204 226 237 248 250 254 254 254 254 254 254 254
254 254 254 254 254 254 254 254 254 254 254 254 254 254 254 254 254 254
254 254 254 254 254 254 254 254 254 254 254 254 254 254 254 254 254 254
254 254 254 254 254 254 254 254 254 254 254 254 254 254 254 254 254 254
254 254 254 253 248 244 231 218 195 171 139 108 81 53 36 19 12 4 2 0 0
0 0 0 2 4 11 19 36 54 82 111 144 176 200 223 234 246 250 254 254 254
254 254 254 254 254 254 254 254 254 254 254 254 254 254 254 254 254 254
254 254 254 254 254 254 254 254 254 254 254 254 254 254 254 254 254 254
254 254 254 254 254 254 254 254 254 254 254 254 254 254 254 254 254 254
254 254 254 254 254 254 254 254 250 246 235 225 203 181 151 120 91 62
42 24 15 6 3 1 0 0 0 0 2 3 9 16 32 48 76 103 136 168 192 218 231 244
248 253 254 254 254 254 254 254 254 254 254 254 254 254 254 254 254 254
254 254 254 254 254 254 254 254 254 254 254 254 254 254 254 254 254 254
254 254 254 254 254 254 254 254 254 254 254 254 254 254 254 254 254 254
254 254 254 254 254 254 254 254 254 254 254 254 250 248 240 231 210 190
162 132 101 71 50 27 18 8 4 1 0 0 0 0 1 2 8 12 27 42 68 94 127 159 186
213 226 242 247 253 254 254 254 254 254 254 254 254 254 254 254 254 254
254 254 254 254 254 254 254 254 254 254 254 254 254 254 254 254 254 254
254 254 254 254 254 254 254 254 254 254 254 254 254 254 254 254 254 254
254 254 254 254 254 254 254 254 254 254 254 254 254 254 254 251 250 243
235 217 200 171 143 111 81 58 34 22 9 6 2 1 0 0 0 1 2 6 11 24 37 62 87
119 151 178 207 223 238 244 251 253 254 254 254 254 254 254 254 254 254
254 254 254 254 254 254 254 254 254 254 254 254 254 254 254 254 254 254
254 254 254 254 254 254 254 254 254 254 254 254 254 254 254 254 254 254
254 254 254 254 254 254 254 254 254 254 254 254 254 254 254 254 254 254
253 251 246 238 223 207 181 155 123 91 65 39 25 12 6 2 1 0 0 0 0 1 4 9
19 32 55 78 110 142 171 201 218 235 244 250 253 254 254 254 254 254 254
254 254 254 254 254 254 254 254 254 254 254 254 254 254 254 254 254 254
254 254 254 254 254 254 254 254 254 254 254 254 254 254 254 254 254 254
254 254 254 254 254 254 254 254 254 254 254 254 254 254 254 254 254 254
254 254 254 254 253 247 242 229 215 189 164 132 100 73 46 31 15 9 3 1 0
0 0 0 1 4 6 17 27 48 71 101 134 164 194 213 232 241 250 251 254 254 254
254 254 254 254 254 254 254 254 254 254 254 254 254 254 254 254 254 254
254 254 254 254 254 254 254 254 254 254 254 254 254 254 254 254 254 254
254 254 254 254 254 254 254 254 254 254 254 254 254 254 254 254 254 254
254 254 254 254 254 254 254 253 248 244 232 220 198 174 142 110 81 53
35 18 11 4 2 0 0 0 0 0 3 6 15 24 44 64 94 125 156 187 207 229 238 248
250 254 254 254 254 254 254 254 254 254 254 254 254 254 254 254 254 254
254 254 254 254 254 254 254 254 254 254 254 254 254 254 254 254 254 254
254 254 254 254 254 254 254 254 254 254 254 254 254 254 254 254 254 254
254 254 254 254 254 254 254 254 254 254 254 254 250 247 235 226 203 181
150 117 88 58 39 21 12 4 2 0 0 0 0 0 2 4 12 19 39 57 87 117 148 180 201
225 235 247 250 254 254 254 254 254 254 254 254 254 254 254 254 254 254
254 254 254 254 254 254 254 254 254 254 254 254 254 254 254 254 254 254
254 254 254 254 254 254 254 254 254 254 254 254 254 254 254 254 254 254
254 254 254 254 254 254 254 254 254 254 254 254 254 254 254 251 248 238
229 209 188 156 125 94 64 44 23 13 4 3 0 0 0 0 0 2 4 9 17 34 50 79 108
140 171 195 220 232 244 248 253 254 254 254 254 254 254 254 254 254 254
254 254 254 254 254 254 254 254 254 254 254 254 254 254 254 254 254 254
254 254 254 254 254 254 254 254 254 254 254 254 254 254 254 254 254 254
254 254 254 254 254 254 254 254 254 254 254 254 254 254 254 254 254 254
251 250 241 232 213 192 162 132 100 68 47 25 16 6 3 1 0 0 0 0 1 3 9 15
30 45 72 99 132 164 189 215 229 243 248 253 254 254 254 254 254 254 254
254 254 254 254 254 254 254 254 254 254 254 254 254 254 254 254 254 254
254 254 254 254 254 254 254 254 254 254 254 254 254 254 254 254 254 254
254 254 254 254 254 254 254 254 254 254 254 254 254 254 254 254 254 254
254 254 254 253 250 243 235 217 198 167 137 104 72 50 27 17 6 4 1 0 0 0
0 1 2 6 12 25 39 65 91 123 155 183 209 225 241 246 251 254 254 254 254
254 254 254 254 254 254 254 254 254 254 254 254 254 254 254 254 254 254
254 254 254 254 254 254 254 254 254 254 254 254 254 254 254 254 254 254
254 254 254 254 254 254 254 254 254 254 254 254 254 254 254 254 254 254
254 254 254 254 254 254 253 250 244 237 219 200 170 140 108 75 51 29 18
6 4 1 0 0 0 0 1 2 6 9 22 35 58 82 114 147 175 203 220 238 244 250 253
254 254 254 254 254 254 254 254 254 254 254 254 254 254 254 254 254 254
254 254 254 254 254 254 254 254 254 254 254 254 254 254 254 254 254 254
254 254 254 254 254 254 254 254 254 254 254 254 254 254 254 254 254 254
254 254 254 254 254 254 254 254 254 253 251 244 238 220 203 173 144 111
78 54 30 19 8 4 1 0 0 0 0 0 1 4 8 19 30 51 75 106 139 168 198 217 235
243 250 253 254 254 254 254 254 254 254 254 254 254 254 254 254 254 254
254 254 254 254 254 254 254 254 254 254 254 254 254 254 254 254 254 254
254 254 254 254 254 254 254 254 254 254 254 254 254 254 254 254 254 254
254 254 254 254 254 254 254 254 254 254 254 254 254 251 244 238 222 204
175 146 113 79 55 31 19 8 4 1 0 0 0 0 0 1 4 6 16 25 47 69 100 131 162
192 213 232 241 250 251 254 254 254 254 254 254 254 254 254 254 254 254
254 254 254 254 254 254 254 254 254 254 254 254 254 254 254 254 254 254
254 254 254 254 254 254 254 254 254 254 254 254 254 254 254 254 254 254
254 254 254 254 254 254 254 254 254 254 254 254 254 254 254 254 251 246
240 223 207 177 149 114 82 58 33 21 9 4 1 0 0 0 0 0 0 3 4 13 23 42 62
94 124 156 188 209 229 240 248 251 254 254 254 254 254 254 254 254 254
254 254 254 254 254 254 254 254 254 254 254 254 254 254 254 254 254 254
254 254 254 254 254 254 254 254 254 254 254 254 254 254 254 254 254 254
254 254 254 254 254 254 254 254 254 254 254 254 254 254 254 254 254 254
254 251 247 241 225 209 180 152 119 85 60 35 22 9 6 1 0 0 0 0 0 0 2 4
12 21 39 58 88 120 152 184 206 229 238 248 250 254 254 254 254 254 254
254 254 254 254 254 254 254 254 254 254 254 254 254 254 254 254 254 254
254 254 254 254 254 254 254 254 254 254 254 254 254 254 254 254 254 254
254 254 254 254 254 254 254 254 254 254 254 254 254 254 254 254 254 254
254 254 254 254 253 247 242 226 210 183 155 122 88 62 37 24 11 6 2 1 0
0 0 0 0 2 4 11 19 37 55 85 116 148 181 203 226 237 248 250 254 254 254
254 254 254 254 254 254 254 254 254 254 254 254 254 254 254 254 254 254
254 254 254 254 254 254 254 254 254 254 254 254 254 254 254 254 254 254
254 254 254 254 254 254 254 254 254 254 254 254 254 254 254 254 254 254
254 254 254 254 254 254 254 253 248 243 228 213 187 159 125 93 66 39 25
12 6 2 1 0 0 0 0 0 2 4 11 18 36 54 84 114 147 178 203 226 237 248 250
254 254 254 254 254 254 254 254 254 254 254 254 254 254 254 254 254 254
254 254 254 254 254 254 254 254 254 254 254 254 254 254 254 254 254 254
254 254 254 254 254 254 254 254 254 254 254 254 254 254 254 254 254 254
254 254 254 254 254 254 254 254 254 254 253 248 244 229 216 189 164 130
97 70 42 27 12 6 2 1 0 0 0 0 0 2 3 9 17 34 51 82 111 145 177 201 225
235 247 250 254 254 254 254 254 254 254 254 254 254 254 254 254 254 254
254 254 254 254 254 254 254 254 254 254 254 254 254 254 254 254 254 254
254 254 254 254 254 254 254 254 254 254 254 254 254 254 254 254 254 254
254 254 254 254 254 254 254 254 254 254 254 254 254 253 248 244 231 218
192 167 134 100 72 44 29 13 8 2 1 0 0 0 0 0 2 3 9 17 34 51 81 111 144
177 201 225 235 247 250 254 254 254 254 254 254 254 254 254 254 254 254
254 254 254 254 254 254 254 254 254 254 254 254 254 254 254 254 254 254
254 254 254 254 254 254 254 254 254 254 254 254 254 254 254 254 254 254
254 254 254 254 254 254 254 254 254 254 254 254 254 254 254 254 254 250
244 232 220 195 170 137 103 75 46 30 13 9 3 1 0 0 0 0 0 2 3 9 16 34 50
81 111 144 177 201 225 235 247 250 254 254 254 254 254 254 254 254 254
254 254 254 254 254 254 254 254 254 254 254 254 254 254 254 254 254 254
254 254 254 254 254 254 254 254 254 254 254 254 254 254 254 254 254 254
254 254 254 254 254 254 254 254 254 254 254 254 254 254 254 254 254 254
254 254 250 246 232 220 195 170 137 103 75 47 31 15 9 3 1 0 0 0 0 0 2 3
9 16 34 50 81 110 144 177 201 225 235 247 250 254 254 254 254 254 254
254 254 254 254 254 254 254 254 254 254 254 254 254 254 254 254 254 254
254 254 254 254 254 254 254 254 254 254 254 254 254 254 254 254 254 254
254 254 254 254 254 254 254 254 254 254 254 254 254 254 254 254 254 254
254 254 254 254 254 250 246 232 220 195 171 138 104 76 47 31 15 9 3 1 0
0 0 0 0 1 3 9 16 34 50 81 110 144 177 201 225 235 247 250 254 254 254
254 254 254 254 254 254 254 254 254 254 254 254 254 254 254 254 254 254
254 254 254 254 254 254 254 254 254 254 254 254 254 254 254 254 254 254
254 254 254 254 254 254 254 254 254 254 254 254 254 254 254 254 254 254
254 254 254 254 254 254 254 254 248 244 232 219 194 169 135 101 74 46
30 13 8 3 1 0 0 0 0 0 1 3 9 16 34 50 81 110 144 177 201 225 235 247 250
254 254 254 254 254 254 254 254 254 254 254 254 254 254 254 254 254 254
254 254 254 254 254 254 254 254 254 254 254 254 254 254 254 254 254 254
254 254 254 254 254 254 254 254 254 254 254 254 254 254 254 254 254 254
254 254 254 254 254 254 254 254 254 254 253 248 244 231 218 192 165 133
100 72 44 29 12 8 2 1 0 0 0 0 0 1 3 9 16 34 50 81 110 144 177 201 225
235 247 250 254 254 254 254 254 254 254 254 254 254 254 254 254 254 254
254 254 254 254 254 254 254 254 254 254 254 254 254 254 254 254 254 254
254 254 254 254 254 254 254 254 254 254 254 254 254 254 254 254 254 254
254 254 254 254 254 254 254 254 254 254 254 254 254 253 248 243 229 215
188 161 128 94 68 41 27 12 6 2 1 0 0 0 0 0 1 3 9 16 34 50 81 110 144
177 201 225 235 247 250 254 254 254 254 254 254 254 254 254 254 254 254
254 254 254 254 254 254 254 254 254 254 254 254 254 254 254 254 254 254
254 254 254 254 254 254 254 254 254 254 254 254 254 254 254 254 254 254
254 254 254 254 254 254 254 254 254 254 254 254 254 254 254 254 253 247
242 226 210 184 156 124 91 64 38 25 11 6 2 1 0 0 0 0 0 1 3 9 16 34 50
81 110 144 177 201 225 235 247 250 254 254 254 254 254 254 254 254 254
254 254 254 254 254 254 254 254 254 254 254 254 254 254 254 254 254 254
254 254 254 254 254 254 254 254 254 254 254 254 254 254 254 254 254 254
254 254 254 254 254 254 254 254 254 254 254 254 254 254 254 254 254 254
254 251 246 240 223 207 178 151 117 85 60 35 22 9 6 1 1 0 0 0 0 0 1 3 9
16 34 50 81 110 144 177 201 225 235 247 250 254 254 254 254 254 254 254
254 254 254 254 254 254 254 254 254 254 254 254 254 254 254 254 254 254
254 254 254 254 254 254 254 254 254 254 254 254 254 254 254 254 254 254
254 254 254 254 254 254 254 254 254 254 254 254 254 254 254 254 254 254
254 254 253 251 244 238 220 203 174 145 111 79 55 32 19 9 4 1 0 0 0 0 0
0 1 3 9 16 34 50 81 110 144 177 201 225 235 247 250 254 254 254 254 254
254 254 254 254 254 254 254 254 254 254 254 254 254 254 254 254 254 254
254 254 254 254 254 254 254 254 254 254 254 254 254 254 254 254 254 254
254 254 254 254 254 254 254 254 254 254 254 254 254 254 254 254 254 254
254 254 254 254 253 250 243 235 217 198 169 139 106 74 51 29 18 6 4 1 0
0 0 0 0 0 2 3 9 16 34 50 81 110 144 177 201 225 235 247 250 254 254 254
254 254 254 254 254 254 254 254 254 254 254 254 254 254 254 254 254 254
254 254 254 254 254 254 254 254 254 254 254 254 254 254 254 254 254 254
254 254 254 254 254 254 254 254 254 254 254 254 254 254 254 254 254 254
254 254 254 254 254 254 251 250 242 234 213 194 164 133 100 69 48 25 16
6 4 1 0 0 0 0 0 0 2 3 9 16 34 50 81 111 144 177 201 225 235 247 250 254
254 254 254 254 254 254 254 254 254 254 254 254 254 254 254 254 254 254
254 254 254 254 254 254 254 254 254 254 254 254 254 254 254 254 254 254
254 254 254 254 254 254 254 254 254 254 254 254 254 254 254 254 254 254
254 254 254 254 254 254 254 254 251 248 240 231 210 189 159 127 96 65
44 24 15 6 3 0 0 0 0 0 0 0 2 3 9 17 34 51 81 111 144 177 201 225 235
247 250 254 254 254 254 254 254 254 254 254 254 254 254 254 254 254 254
254 254 254 254 254 254 254 254 254 254 254 254 254 254 254 254 254 254
254 254 254 254 254 254 254 254 254 254 254 254 254 254 254 254 254 254
254 254 254 254 254 254 254 254 254 254 254 251 248 238 229 207 186 154
122 91 60 41 21 12 4 2 0 0 0 0 0 0 0 2 3 9 17 35 51 82 111 145 177 201
225 235 247 250 254 254 254 254 254 254 254 254 254 254 254 254 254 254
254 254 254 254 254 254 254 254 254 254 254 254 254 254 254 254 254 254
254 254 254 254 254 254 254 254 254 254 254 254 254 254 254 254 254 254
254 254 254 254 254 254 254 254 254 254 254 254 254 250 248 238 226 204
182 150 117 87 57 38 19 12 4 2 0 0 0 0 0 0 0 2 4 11 18 36 54 84 114 147
180 203 226 237 248 250 254 254 254 254 254 254 254 254 254 254 254 254
254 254 254 254 254 254 254 254 254 254 254 254 254 254 254 254 254 254
254 254 254 254 254 254 254 254 254 254 254 254 254 254 254 254 254 254
254 254 254 254 254 254 254 254 254 254 254 254 254 254 254 250 247 235
225 201 177 146 113 82 53 35 18 11 4 2 0 0 0 0 0 0 0 2 4 12 19 38 55 85
116 149 181 203 226 238 248 250 254 254 254 254 254 254 254 254 254 254
254 254 254 254 254 254 254 254 254 254 254 254 254 254 254 254 254 254
254 254 254 254 254 254 254 254 254 254 254 254 254 254 254 254 254 254
254 254 254 254 254 254 254 254 254 254 254 254 254 254 254 254 254 250
246 235 223 198 174 142 109 79 50 33 16 9 3 2 0 0 0 0 0 0 0 3 4 12 22
41 61 91 122 153 184 207 229 238 248 251 254 254 254 254 254 254 254
254 254 254 254 254 254 254 254 254 254 254 254 254 254 254 254 254 254
254 254 254 254 254 254 254 254 254 254 254 254 254 254 254 254 254 254
254 254 254 254 254 254 254 254 254 254 254 254 254 254 254 254 254 254
254 254 248 244 232 220 195 170 137 104 76 47 31 15 9 3 1 0 0 0 0 0 0 1
3 6 15 24 45 65 96 127 158 189 209 231 240 248 251 254 254 254 254 254
254 254 254 254 254 254 254 254 254 254 254 254 254 254 254 254 254 254
254 254 254 254 254 254 254 254 254 254 254 254 254 254 254 254 254 254
254 254 254 254 254 254 254 254 254 254 254 254 254 254 254 254 254 254
254 254 254 253 248 244 229 217 190 165 132 99 72 44 29 13 8 2 1 0 0 0
0 0 0 1 4 8 18 29 50 73 103 135 165 195 213 234 242 250 251 254 254 254
254 254 254 254 254 254 254 254 254 254 254 254 254 254 254 254 254 254
254 254 254 254 254 254 254 254 254 254 254 254 254 254 254 254 254 254
254 254 254 254 254 254 254 254 254 254 254 254 254 254 254 254 254 254
254 254 254 254 254 253 247 242 226 213 186 159 125 94 67 41 25 12 6 2
1 0 0 0 0 0 1 2 6 9 22 34 57 81 111 144 171 201 219 235 244 250 253 254
254 254 254 254 254 254 254 254 254 254 254 254 254 254 254 254 254 254
254 254 254 254 254 254 254 254 254 254 254 254 254 254 254 254 254 254
254 254 254 254 254 254 254 254 254 254 254 254 254 254 254 254 254 254
254 254 254 254 254 254 253 251 246 238 223 207 178 152 119 87 62 36 24
11 6 2 1 0 0 0 0 0 1 2 8 12 25 39 65 91 122 154 181 207 223 238 246 251
253 254 254 254 254 254 254 254 254 254 254 254 254 254 254 254 254 254
254 254 254 254 254 254 254 254 254 254 254 254 254 254 254 254 254 254
254 254 254 254 254 254 254 254 254 254 254 254 254 254 254 254 254 254
254 254 254 254 254 254 254 254 253 250 244 237 219 201 173 144 111 79
55 32 21 9 4 1 0 0 0 0 0 0 2 3 9 15 31 47 74 100 132 164 189 215 229
242 247 253 254 254 254 254 254 254 254 254 254 254 254 254 254 254 254
254 254 254 254 254 254 254 254 254 254 254 254 254 254 254 254 254 254
254 254 254 254 254 254 254 254 254 254 254 254 254 254 254 254 254 254
254 254 254 254 254 254 254 254 254 254 254 251 250 242 232 213 195 165
135 103 72 50 27 18 6 4 1 0 0 0 0 0 0 2 4 12 19 37 54 82 111 142 174
197 220 232 244 248 253 254 254 254 254 254 254 254 254 254 254 254 254
254 254 254 254 254 254 254 254 254 254 254 254 254 254 254 254 254 254
254 254 254 254 254 254 254 254 254 254 254 254 254 254 254 254 254 254
254 254 254 254 254 254 254 254 254 254 254 254 254 254 251 248 238 229
209 188 156 125 96 65 45 24 15 6 3 1 0 0 0 0 0 0 3 4 13 23 42 62 91 121
152 183 204 226 237 247 250 254 254 254 254 254 254 254 254 254 254 254
254 254 254 254 254 254 254 254 254 254 254 254 254 254 254 254 254 254
254 254 254 254 254 254 254 254 254 254 254 254 254 254 254 254 254 254
254 254 254 254 254 254 254 254 254 254 254 254 254 254 254 254 250 247
237 226 203 181 149 117 88 58 39 21 12 4 3 0 0 0 0 0 0 1 4 6 17 27 48
69 100 131 161 190 210 231 240 248 251 254 254 254 254 254 254 254 254
254 254 254 254 254 254 254 254 254 254 254 254 254 254 254 254 254 254
254 254 254 254 254 254 254 254 254 254 254 254 254 254 254 254 254 254
254 254 254 254 254 254 254 254 254 254 254 254 254 254 254 254 254 254
254 250 246 234 222 198 174 141 109 79 51 35 17 11 4 2 0 0 0 0 0 0 1 4
8 19 31 54 77 109 140 170 198 217 235 243 250 253 254 254 254 254 254
254 254 254 254 254 254 254 254 254 254 254 254 254 254 254 254 254 254
254 254 254 254 254 254 254 254 254 254 254 254 254 254 254 254 254 254
254 254 254 254 254 254 254 254 254 254 254 254 254 254 254 254 254 254
254 254 254 253 248 244 231 218 192 167 135 101 74 47 31 15 9 3 1 0 0 0
0 0 1 2 6 9 23 35 60 84 117 149 177 204 222 238 244 250 253 254 254 254
254 254 254 254 254 254 254 254 254 254 254 254 254 254 254 254 254 254
254 254 254 254 254 254 254 254 254 254 254 254 254 254 254 254 254 254
254 254 254 254 254 254 254 254 254 254 254 254 254 254 254 254 254 254
254 254 254 254 254 253 248 243 229 213 188 161 128 94 68 41 27 12 6 2
1 0 0 0 0 0 1 2 6 12 25 39 66 92 125 156 184 210 226 241 247 251 254
254 254 254 254 254 254 254 254 254 254 254 254 254 254 254 254 254 254
254 254 254 254 254 254 254 254 254 254 254 254 254 254 254 254 254 254
254 254 254 254 254 254 254 254 254 254 254 254 254 254 254 254 254 254
254 254 254 254 254 254 254 254 253 247 242 226 210 184 156 123 90 64
38 25 11 6 2 1 0 0 0 0 0 1 3 9 13 30 45 72 100 132 165 189 216 229 243
248 253 254 254 254 254 254 254 254 254 254 254 254 254 254 254 254 254
254 254 254 254 254 254 254 254 254 254 254 254 254 254 254 254 254 254
254 254 254 254 254 254 254 254 254 254 254 254 254 254 254 254 254 254
254 254 254 254 254 254 254 254 254 254 254 251 246 241 225 209 180 152
117 85 60 35 22 9 6 1 0 0 0 0 0 0 2 3 9 16 33 50 79 106 140 171 197 220
232 244 248 254 254 254 254 254 254 254 254 254 254 254 254 254 254 254
254 254 254 254 254 254 254 254 254 254 254 254 254 254 254 254 254 254
254 254 254 254 254 254 254 254 254 254 254 254 254 254 254 254 254 254
254 254 254 254 254 254 254 254 254 254 254 254 254 251 246 240 223 207
177 149 116 82 58 33 21 9 4 1 0 0 0 0 0 0 2 4 12 19 37 55 85 114 147
178 201 225 235 247 250 254 254 254 254 254 254 254 254 254 254 254 254
254 254 254 254 254 254 254 254 254 254 254 254 254 254 254 254 254 254
254 254 254 254 254 254 254 254 254 254 254 254 254 254 254 254 254 254
254 254 254 254 254 254 254 254 254 254 254 254 254 254 254 254 251 246
238 222 206 176 147 114 79 55 32 19 8 4 1 0 0 0 0 0 0 3 4 12 21 41 60
91 122 153 184 207 228 238 248 250 254 254 254 254 254 254 254 254 254
254 254 254 254 254 254 254 254 254 254 254 254 254 254 254 254 254 254
254 254 254 254 254 254 254 254 254 254 254 254 254 254 254 254 254 254
254 254 254 254 254 254 254 254 254 254 254 254 254 254 254 254 254 254
254 251 246 238 222 204 175 146 113 79 55 31 19 8 4 1 0 0 0 0 0 0 3 6
15 24 44 65 96 127 159 189 210 231 240 248 251 254 254 254 254 254 254
254 254 254 254 254 254 254 254 254 254 254 254 254 254 254 254 254 254
254 254 254 254 254 254 254 254 254 254 254 254 254 254 254 254 254 254
254 254 254 254 254 254 254 254 254 254 254 254 254 254 254 254 254 254
254 254 254 254 251 244 238 222 203 175 145 111 79 55 31 19 8 4 1 0 0 0
0 0 1 3 6 16 25 47 69 100 133 164 195 213 234 242 250 251 254 254 254
254 254 254 254 254 254 254 254 254 254 254 254 254 254 254 254 254 254
254 254 254 254 254 254 254 254 254 254 254 254 254 254 254 254 254 254
254 254 254 254 254 254 254 254 254 254 254 254 254 254 254 254 254 254
254 254 254 254 254 254 254 251 244 238 222 203 175 145 111 78 54 30 19
8 4 1 0 0 0 0 0 1 4 6 17 27 50 72 103 137 167 198 217 235 243 250 253
254 254 254 254 254 254 254 254 254 254 254 254 254 254 254 254 254 254
254 254 254 254 254 254 254 254 254 254 254 254 254 254 254 254 254 254
254 254 254 254 254 254 254 254 254 254 254 254 254 254 254 254 254 254
254 254 254 254 254 254 254 254 254 254 251 244 238 220 203 174 145 111
78 54 30 19 8 4 1 0 0 0 0 0 1 4 6 18 29 51 75 108 140 171 201 219 237
244 250 253 254 254 254 254 254 254 254 254 254 254 254 254 254 254 254
254 254 254 254 254 254 254 254 254 254 254 254 254 254 254 254 254 254
254 254 254 254 254 254 254 254 254 254 254 254 254 254 254 254 254 254
254 254 254 254 254 254 254 254 254 254 254 254 254 251 244 238 220 203
174 145 111 78 54 30 19 8 4 1 0 0 0 0 0 1 4 6 18 29 53 76 109 142 171
201 220 238 244 251 253 254 254 254 254 254 254 254 254 254 254 254 254
254 254 254 254 254 254 254 254 254 254 254 254 254 254 254 254 254 254
254 254 254 254 254 254 254 254 254 254 254 254 254 254 254 254 254 254
254 254 254 254 254 254 254 254 254 254 254 254 254 254 254 254 251 244
238 220 203 174 145 111 78 54 30 19 8 4 1 0 0 0 0 0 1 4 8 19 30 54 77
110 144 173 203 220 238 244 251 253 254 254 254 254 254 254 254 254 254
254 254 254 254 254 254 254 254 254 254 254 254 254 254 254 254 254 254
254 254 254 254 254 254 254 254 254 254 254 254 254 254 254 254 254 254
254 254 254 254 254 254 254 254 254 254 254 254 254 254 254 254 254 254
254 251 244 238 220 203 174 145 111 78 54 30 19 8 4 1 0 0 0 0 0 1 4 8
19 30 54 78 111 144 174 203 220 238 244 251 253 254 254 254 254 254 254
254 254 254 254 254 254 254 254 254 254 254 254 254 254 254 254 254 254
254 254 254 254 254 254 254 254 254 254 254 254 254 254 254 254 254 254
254 254 254 254 254 254 254 254 254 254 254 254 254 254 254 254 254 254
254 254 254 254 251 244 238 220 203 174 145 111 78 54 30 19 8 4 1 0 0 0
0 0 1 4 8 19 30 54 78 111 144 174 203 220 238 244 251 253 254 254 254
254 254 254 254 254 254 254 254 254 254 254 254 254 254 254 254 254 254
254 254 254 254 254 254 254 254 254 254 254 254 254 254 254 254 254 254
254 254 254 254 254 254 254 254 254 254 254 254 254 254 254 254 254 254
254 254 254 254 254 254 254 251 244 238 220 203 174 145 111 78 54 30 19
8 4 1 0 0 0 0 0 1 4 8 19 30 54 78 111 145 174 203 220 238 244 251 253
254 254 254 254 254 254 254 254 254 254 254 254 254 254 254 254 254 254
254 254 254 254 254 254 254 254 254 254 254 254 254 254 254 254
