P2
# Created by the Paint.NET plugin 'ImPNM.FileType'
100 100
255
0 0 0 0 0 0 0 0 0 0 0 0 0 0 0 0 0 0 0 0 0 0 0 0 1 1 1 1 1 1 1 1 2 2 2 2
2 3 3 3 3 4 4 4 4 4 4 6 6 6 6 8 8 9 9 9 9 11 11 12 12 12 13 13 15 16 16
17 18 19 19 19 21 21 22 23 23 24 25 25 25 25 27 27 27 29 29 30 30 30 31
31 31 32 32 32 32 32 32 32 0 0 0 0 0 0 0 0 0 0 0 0 0 0 0 0 0 0 0 0 0 0
0 0 1 1 1 1 1 1 1 1 2 2 2 2 2 3 3 3 3 4 4 4 4 4 6 6 6 6 6 8 8 9 9 9 9
11 11 12 12 12 13 15 15 16 16 17 18 19 19 19 21 21 22 23 23 24 25 25 25
25 27 27 27 29 29 30 30 30 31 31 31 32 32 32 32 32 33 33 0 0 0 0 0 0 0
0 0 0 0 0 0 0 0 0 0 0 0 0 0 0 0 0 1 1 1 1 1 1 1 2 2 2 2 2 3 3 3 3 4 4 4
4 4 4 6 6 6 6 6 8 8 9 9 9 9 11 12 12 12 13 13 15 15 16 17 18 18 19 19
19 21 22 22 23 24 24 25 25 25 27 27 27 29 29 30 30 31 31 31 32 32 32 33
33 33 33 33 33 0 0 0 0 0 0 0 0 0 0 0 0 0 0 0 0 0 0 0 0 0 0 0 1 1 1 1 1
1 1 1 2 2 2 2 2 3 3 3 3 4 4 4 4 4 4 6 6 6 6 8 8 9 9 9 9 11 11 12 12 12
13 15 15 16 17 17 18 19 19 19 21 21 22 23 24 24 25 25 25 27 27 27 29 29
30 30 31 31 32 32 32 33 33 33 33 33 34 34 34 0 0 0 0 0 0 0 0 0 0 0 0 0
0 0 0 0 0 0 0 0 0 0 1 1 1 1 1 1 1 1 2 2 2 2 2 3 3 3 4 4 4 4 4 4 6 6 6 6
6 8 8 9 9 9 9 11 12 12 12 12 13 15 15 16 17 18 18 19 19 19 21 22 23 23
24 25 25 25 27 27 27 29 29 30 30 31 31 32 32 33 33 33 34 34 34 34 34 34
34 0 0 0 0 0 0 0 0 0 0 0 0 0 0 0 0 0 0 0 0 0 0 0 1 1 1 1 1 1 1 2 2 2 2
2 3 3 3 3 4 4 4 4 4 4 6 6 6 6 6 8 8 9 9 9 11 11 12 12 12 13 13 15 16 17
17 18 19 19 19 21 22 22 23 24 24 25 25 27 27 27 29 29 30 30 31 31 32 32
33 33 33 34 34 34 34 35 35 35 35 0 0 0 0 0 0 0 0 0 0 0 0 0 0 0 0 0 0 0
0 0 0 1 1 1 1 1 1 1 1 2 2 2 2 2 3 3 3 4 4 4 4 4 4 6 6 6 6 6 8 8 9 9 9 9
11 12 12 12 13 13 15 16 16 17 18 19 19 19 21 22 22 23 24 25 25 25 27 27
27 29 29 30 31 31 32 32 33 33 34 34 34 35 35 35 35 36 36 36 36 0 0 0 0
0 0 0 0 0 0 0 0 0 0 0 0 0 0 0 0 0 1 1 1 1 1 1 1 1 2 2 2 2 2 3 3 3 3 4 4
4 4 4 6 6 6 6 6 8 8 9 9 9 9 11 12 12 12 13 13 15 16 16 17 18 19 19 19
21 22 22 23 24 25 25 25 27 27 29 29 30 31 31 32 32 33 34 34 35 35 35 36
36 36 37 37 37 37 37 37 0 0 0 0 0 0 0 0 0 0 0 0 0 0 0 0 0 0 0 0 0 1 1 1
1 1 1 1 2 2 2 2 2 3 3 3 3 4 4 4 4 4 4 6 6 6 6 8 8 9 9 9 9 11 12 12 12
13 13 15 16 16 17 18 19 19 19 21 22 23 23 24 25 25 27 27 27 29 30 30 31
32 32 33 34 34 35 35 36 36 37 37 37 38 38 38 38 39 39 39 0 0 0 0 0 0 0
0 0 0 0 0 0 0 0 0 0 0 0 0 1 1 1 1 1 1 1 2 2 2 2 2 3 3 3 3 4 4 4 4 4 4 6
6 6 6 8 8 9 9 9 9 11 12 12 12 12 13 15 16 16 17 18 19 19 19 21 22 23 24
24 25 25 27 27 27 29 30 31 32 32 33 34 34 35 36 36 37 37 38 38 38 39 39
39 39 39 39 39 39 0 0 0 0 0 0 0 0 0 0 0 0 0 0 0 0 0 0 0 1 1 1 1 1 1 1 1
2 2 2 2 2 3 3 3 3 4 4 4 4 4 6 6 6 6 6 8 8 9 9 9 11 11 12 12 12 13 15 16
16 17 18 19 19 19 21 22 23 24 24 25 25 27 27 29 30 30 31 32 33 33 34 35
36 36 37 37 38 39 39 39 39 39 41 41 41 41 41 41 41 0 0 0 0 0 0 0 0 0 0
0 0 0 0 0 0 0 0 1 1 1 1 1 1 1 1 2 2 2 2 2 3 3 3 3 4 4 4 4 4 6 6 6 6 6 8
8 9 9 9 11 11 12 12 12 13 15 16 16 17 18 19 19 21 21 22 23 24 25 25 27
27 27 29 30 31 32 33 33 34 35 36 37 37 38 39 39 39 39 41 41 42 42 42 42
42 42 42 42 42 0 0 0 0 0 0 0 0 0 0 0 0 0 0 0 0 0 0 1 1 1 1 1 1 1 2 2 2
2 2 3 3 3 3 4 4 4 4 4 6 6 6 6 6 8 8 9 9 9 11 11 12 12 13 13 15 16 17 17
18 19 19 21 22 23 24 24 25 25 27 27 29 30 31 32 33 34 34 35 36 37 38 38
39 39 39 41 42 42 42 42 44 44 44 45 45 45 45 45 45 0 0 0 0 0 0 0 0 0 0
0 0 0 0 0 0 0 1 1 1 1 1 1 1 2 2 2 2 2 3 3 3 3 4 4 4 4 4 6 6 6 6 6 8 9 9
9 9 11 12 12 12 13 13 15 16 17 18 18 19 19 21 22 23 24 25 25 27 27 29
30 31 31 32 33 34 35 36 37 38 39 39 39 41 42 42 42 44 44 45 45 46 46 47
47 47 47 47 48 48 0 0 0 0 0 0 0 0 0 0 0 0 0 0 0 0 1 1 1 1 1 1 1 2 2 2 2
2 3 3 3 3 4 4 4 4 4 6 6 6 6 6 8 9 9 9 9 11 12 12 12 13 13 15 16 17 18
19 19 19 21 22 23 24 25 25 27 27 29 30 31 32 33 34 35 36 37 38 39 39 41
41 42 42 44 44 45 46 46 47 47 48 48 48 48 48 48 50 50 50 0 0 0 0 0 0 0
0 0 0 0 0 0 0 0 1 1 1 1 1 1 1 1 2 2 2 2 3 3 3 3 4 4 4 4 4 4 6 6 6 6 8 8
9 9 9 11 12 12 12 13 13 15 16 17 18 19 19 21 21 22 23 24 25 25 27 27 29
30 32 33 34 35 36 37 38 39 39 41 41 42 42 44 45 46 46 47 48 48 48 48 50
50 50 50 50 50 51 51 51 0 0 0 0 0 0 0 0 0 0 0 0 0 0 1 1 1 1 1 1 1 1 2 2
2 2 3 3 3 3 4 4 4 4 4 6 6 6 6 6 8 9 9 9 9 11 12 12 12 13 15 15 16 17 18
19 19 21 22 23 24 25 25 27 27 29 30 31 32 33 34 35 37 38 39 39 41 42 42
44 45 46 46 47 48 48 50 50 50 51 51 51 53 53 54 54 54 54 55 55 0 0 0 0
0 0 0 0 0 0 0 0 0 1 1 1 1 1 1 1 1 2 2 2 2 3 3 3 3 4 4 4 4 4 6 6 6 6 8 8
9 9 9 9 11 12 12 12 13 15 16 17 17 18 19 19 21 22 23 24 25 25 27 29 30
31 32 33 34 35 36 38 39 39 41 42 42 44 45 46 47 48 48 50 50 50 51 53 54
54 55 55 55 55 55 57 57 57 57 57 0 0 0 0 0 0 0 0 0 0 0 0 1 1 1 1 1 1 1
1 2 2 2 2 3 3 3 3 4 4 4 4 4 6 6 6 6 8 8 9 9 9 9 11 12 12 12 13 15 16 17
18 19 19 19 21 22 24 25 25 27 27 29 30 31 33 34 35 36 37 38 39 41 42 42
44 45 46 47 48 48 50 50 51 53 54 55 55 55 57 57 58 58 58 58 58 60 60 60
60 0 0 0 0 0 0 0 0 0 0 0 1 1 1 1 1 1 1 1 2 2 2 2 2 3 3 3 4 4 4 4 4 6 6
6 6 6 8 9 9 9 9 11 12 12 12 13 15 16 17 18 19 19 21 22 23 24 25 25 27
27 29 31 32 33 34 35 37 38 39 39 42 42 44 45 46 47 48 50 50 51 53 54 55
55 57 57 58 58 60 60 61 61 62 62 62 62 62 62 62 0 0 0 0 0 0 0 0 0 0 1 1
1 1 1 1 1 1 2 2 2 2 2 3 3 3 4 4 4 4 4 4 6 6 6 6 8 9 9 9 9 11 12 12 12
13 15 16 17 18 19 19 21 22 23 24 25 25 27 29 30 31 32 33 35 36 37 39 39
41 42 44 45 46 47 48 50 50 51 53 54 55 55 57 58 58 60 61 62 62 62 62 64
64 65 65 65 65 66 66 0 0 0 0 0 0 0 0 0 1 1 1 1 1 1 1 1 2 2 2 2 2 3 3 3
4 4 4 4 4 4 6 6 6 6 8 9 9 9 11 11 12 12 13 13 15 16 17 18 19 19 21 22
23 24 25 27 27 29 30 32 33 34 36 37 38 39 41 42 42 45 46 47 48 50 50 51
54 55 55 57 58 58 60 61 62 62 64 65 65 66 67 67 68 68 68 69 69 69 69 0
0 0 0 0 0 0 0 1 1 1 1 1 1 1 1 2 2 2 2 2 3 3 3 4 4 4 4 4 6 6 6 6 8 8 9 9
9 11 11 12 12 13 15 15 16 17 18 19 19 21 22 24 25 25 27 27 30 31 32 33
35 36 38 39 39 42 42 44 46 47 48 50 50 53 54 55 55 58 58 60 61 62 62 64
65 66 67 68 69 69 70 70 71 71 72 72 72 72 72 0 0 0 0 0 0 0 1 1 1 1 1 1
1 1 2 2 2 2 2 3 3 3 4 4 4 4 4 4 6 6 6 6 8 9 9 9 11 11 12 12 13 15 15 16
17 18 19 19 22 23 24 25 25 27 29 30 31 33 34 35 37 38 39 41 42 44 45 47
48 50 50 51 54 55 57 58 58 61 62 62 64 65 66 68 68 69 70 71 72 72 73 74
74 75 75 75 75 76 76 0 0 0 0 0 1 1 1 1 1 1 1 1 1 2 2 2 2 2 3 3 3 3 4 4
4 4 4 6 6 6 6 8 9 9 9 11 11 12 12 13 15 16 16 17 18 19 21 22 23 24 25
25 27 29 30 32 33 34 36 37 39 39 42 42 45 46 48 48 50 51 54 55 57 58 58
61 62 62 65 66 67 68 69 71 72 72 73 74 75 76 76 77 78 78 78 79 79 79 79
0 0 0 1 1 1 1 1 1 1 1 1 1 2 2 2 2 2 3 3 3 3 4 4 4 4 4 6 6 6 6 8 9 9 9 9
11 12 12 13 15 15 16 17 18 19 21 22 23 24 25 27 27 29 31 32 33 35 36 38
39 41 42 44 45 47 48 50 51 53 55 55 58 58 61 62 64 65 66 68 69 70 71 73
74 75 76 77 78 78 79 79 79 81 81 82 82 82 82 82 1 1 1 1 1 1 1 1 1 1 1 1
1 2 2 2 2 3 3 3 3 4 4 4 4 4 6 6 6 6 8 9 9 9 11 11 12 12 13 15 16 17 18
19 19 21 22 23 24 25 27 27 30 31 32 34 35 37 38 39 41 42 45 46 48 48 50
53 54 55 57 58 61 62 64 65 67 68 70 71 72 74 75 76 77 78 79 79 81 82 82
82 84 85 85 85 85 85 85 85 1 1 1 1 1 1 1 1 1 1 1 1 2 2 2 2 2 3 3 3 4 4
4 4 4 6 6 6 6 8 8 9 9 11 11 12 12 13 15 16 17 18 19 19 21 22 23 25 25
27 27 30 31 33 34 36 37 39 39 42 44 45 47 48 50 51 54 55 57 58 60 62 64
65 67 68 70 71 73 74 76 77 78 79 81 82 82 84 85 85 85 87 88 88 88 88 88
90 90 90 1 1 1 1 1 1 1 1 1 1 1 2 2 2 2 2 3 3 3 4 4 4 4 4 6 6 6 6 8 8 9
9 11 11 12 12 13 15 16 17 18 19 19 21 22 23 25 25 27 29 30 32 33 35 36
38 39 41 42 44 46 48 48 50 53 54 55 58 60 61 62 65 66 68 70 71 73 74 76
78 79 79 82 82 84 85 85 87 88 88 90 91 91 92 92 93 93 93 94 94 1 1 1 1
1 1 1 1 1 1 2 2 2 2 2 3 3 3 4 4 4 4 4 6 6 6 6 8 8 9 9 9 11 12 12 13 15
16 17 18 19 19 21 22 23 25 25 27 29 30 32 33 35 36 38 39 41 42 45 46 48
50 51 53 55 57 58 61 62 64 66 68 69 71 73 74 76 78 79 81 82 84 85 85 88
88 90 91 92 93 94 94 94 96 96 96 97 97 97 97 1 1 1 1 1 1 1 1 1 2 2 2 2
2 3 3 3 4 4 4 4 4 4 6 6 6 8 8 9 9 9 11 12 12 13 13 15 17 18 19 19 21 22
23 25 25 27 29 30 32 33 35 37 38 39 41 42 45 47 48 50 51 54 55 58 60 61
62 65 67 69 71 72 74 76 78 79 81 82 84 85 87 88 90 91 92 93 94 96 96 97
97 99 99 100 100 100 100 100 100 1 1 1 1 1 1 1 2 2 2 2 2 2 3 3 3 3 4 4
4 4 4 6 6 6 8 8 9 9 9 11 12 12 13 15 15 16 18 19 19 21 22 23 25 25 27
29 31 32 34 35 37 39 39 42 44 45 47 48 50 53 55 57 58 61 62 64 66 68 70
72 74 76 77 79 81 82 84 85 88 88 91 92 94 94 96 97 97 99 100 100 101
103 103 103 103 104 104 104 104 1 1 1 1 1 1 2 2 2 2 2 2 3 3 3 3 4 4 4 4
4 6 6 6 8 8 9 9 9 11 12 12 13 13 15 16 17 19 19 21 22 23 25 25 27 29 31
32 34 35 37 39 41 42 44 46 48 50 51 53 55 57 58 61 62 65 67 69 71 73 75
77 79 81 82 84 85 88 90 91 93 94 96 97 99 100 100 101 103 103 104 106
106 106 108 108 108 109 109 109 1 1 1 1 2 2 2 2 2 2 2 3 3 3 3 4 4 4 4 4
6 6 6 6 8 9 9 9 11 12 12 12 13 15 16 17 18 19 21 22 23 25 25 27 29 31
32 34 36 37 39 41 42 44 46 48 50 51 54 55 58 60 62 64 66 68 70 72 74 76
78 79 82 84 85 88 90 91 93 94 96 97 99 100 101 103 104 106 106 108 109
110 110 111 111 111 111 113 113 113 2 2 2 2 2 2 2 2 2 2 3 3 3 3 4 4 4 4
4 6 6 6 6 8 9 9 9 11 12 12 12 13 15 16 17 18 19 21 22 23 25 25 27 29 31
32 34 36 37 39 41 42 45 46 48 50 51 54 55 58 60 62 65 67 69 71 73 75 77
79 81 82 85 87 88 91 93 94 97 97 100 101 103 104 106 106 109 110 111
111 113 114 114 114 116 116 116 117 117 117 2 2 2 2 2 2 2 2 2 3 3 3 3 4
4 4 4 4 6 6 6 6 8 8 9 9 9 11 12 12 13 15 16 17 18 19 21 22 23 25 25 27
29 31 32 34 35 37 39 41 42 45 47 48 50 53 55 57 58 61 62 65 67 70 72 74
76 78 79 82 85 87 88 91 93 94 97 97 100 101 103 104 106 108 110 111 111
114 114 116 117 117 117 119 120 120 120 121 121 121 2 2 2 2 2 2 2 2 3 3
3 3 4 4 4 4 4 4 6 6 6 8 8 9 9 9 11 12 12 13 15 16 17 18 19 19 22 23 25
25 27 29 31 32 34 35 37 39 41 42 45 47 48 50 53 55 57 58 62 64 66 68 70
73 75 77 79 81 84 85 88 90 92 94 96 97 100 101 103 106 106 109 111 111
114 114 116 117 119 120 121 122 122 123 124 124 124 125 125 125 2 2 2 2
2 2 2 3 3 3 3 3 4 4 4 4 4 6 6 6 6 8 9 9 9 11 12 12 13 15 16 17 18 19 19
22 23 24 25 27 29 30 32 34 36 37 39 41 42 45 47 48 50 53 55 57 60 62 64
66 69 71 73 76 78 79 82 85 87 88 91 93 96 97 100 101 103 106 108 110
111 113 114 116 117 119 120 121 123 124 125 125 125 127 128 128 129 129
129 129 2 2 2 2 2 2 3 3 3 3 3 4 4 4 4 4 6 6 6 6 8 9 9 9 11 12 12 13 15
16 17 18 19 19 22 23 24 25 27 29 30 32 34 35 37 39 41 42 45 47 48 50 53
55 58 60 62 65 67 69 71 74 76 79 81 82 85 88 90 92 94 97 99 100 103 104
106 109 111 113 114 117 117 120 122 123 124 125 127 128 129 130 130 131
132 132 133 133 133 133 2 2 2 2 3 3 3 3 3 3 4 4 4 4 4 6 6 6 6 8 8 9 9
11 12 12 12 13 15 16 17 19 19 21 23 24 25 27 29 30 32 33 35 37 39 41 42
45 47 48 50 53 55 58 60 62 65 67 69 72 74 77 79 81 84 85 88 91 93 96 97
100 101 104 106 109 111 113 114 117 119 120 122 124 125 127 128 129 131
132 133 134 134 135 136 136 137 137 137 137 3 3 3 3 3 3 3 3 3 4 4 4 4 4
6 6 6 6 8 8 9 9 9 11 12 12 13 15 16 17 18 19 21 22 24 25 27 27 30 32 33
35 37 39 41 42 45 47 48 50 53 55 58 60 62 65 67 70 72 75 77 79 82 85 87
88 92 94 97 99 100 103 106 108 111 113 114 117 119 121 122 124 125 128
129 131 132 133 135 136 137 137 138 139 140 140 141 141 141 141 3 3 3 3
3 3 3 3 4 4 4 4 4 4 6 6 6 6 8 9 9 9 11 12 12 13 15 16 17 18 19 21 22 24
25 25 27 30 31 33 35 37 39 41 42 45 47 48 50 53 55 58 60 62 65 68 70 73
75 78 79 82 85 88 90 93 94 97 100 103 104 106 110 111 114 116 117 120
122 125 125 128 130 131 133 134 136 137 138 140 141 141 142 143 144 144
145 145 145 145 3 3 3 3 3 3 3 4 4 4 4 4 4 6 6 6 6 8 9 9 9 11 12 12 13
15 16 17 18 19 19 22 23 25 25 27 29 31 33 35 37 38 39 42 45 47 48 50 53
55 58 60 62 65 68 70 73 75 78 79 82 85 88 91 93 96 97 100 103 106 108
111 113 114 117 120 122 124 125 128 130 132 134 135 137 138 140 141 142
144 144 145 146 147 148 148 148 149 149 149 3 3 3 3 3 4 4 4 4 4 4 4 6 6
6 6 8 8 9 9 11 11 12 12 13 15 16 18 19 19 21 23 24 25 27 29 31 33 34 36
38 39 42 44 46 48 50 53 55 58 60 62 65 68 70 73 75 78 81 82 85 88 91 94
97 99 101 103 106 109 111 114 117 119 121 123 125 128 130 132 134 136
137 139 141 142 144 145 146 147 148 149 150 151 152 152 152 153 153 153
3 3 3 4 4 4 4 4 4 4 4 6 6 6 6 8 8 9 9 9 11 12 12 13 15 16 17 19 19 21
22 24 25 27 29 30 32 34 36 38 39 42 44 46 48 50 53 55 58 60 62 65 68 70
73 76 78 81 84 85 88 92 94 97 100 101 104 108 110 113 114 117 120 122
125 127 129 131 134 136 138 139 141 143 145 146 147 149 150 151 152 153
154 155 156 156 156 156 156 156 4 4 4 4 4 4 4 4 4 4 6 6 6 6 6 8 9 9 9
11 12 12 13 15 16 17 18 19 21 22 24 25 27 27 30 32 34 36 38 39 41 44 46
48 50 53 55 58 60 62 65 68 70 73 76 78 81 84 85 88 92 94 97 100 103 106
108 111 114 116 119 121 124 125 128 131 133 135 137 139 141 143 145 147
148 150 151 153 154 155 156 156 158 159 159 159 159 161 161 161 4 4 4 4
4 4 4 4 4 6 6 6 6 6 8 9 9 9 11 12 12 12 13 16 17 18 19 19 22 23 25 25
27 30 31 33 35 37 39 41 42 45 48 50 51 55 57 60 62 65 67 70 73 76 78 81
84 87 88 92 94 97 100 103 106 109 111 114 117 120 122 125 127 129 132
134 136 139 141 143 145 147 148 150 152 153 155 156 158 159 159 161 162
162 163 163 164 164 165 165 4 4 4 4 4 4 4 4 4 6 6 6 6 8 8 9 9 9 11 12
12 13 15 16 17 19 19 21 23 24 25 27 29 31 33 35 37 39 41 42 45 47 50 51
54 57 58 62 65 67 70 73 75 78 81 84 87 88 92 94 97 100 103 106 109 111
114 117 120 123 125 128 130 133 136 138 140 142 144 147 148 150 152 154
156 156 158 159 161 162 163 164 165 165 167 167 168 168 168 168 4 4 4 4
4 4 4 4 6 6 6 6 8 8 9 9 9 11 12 12 13 15 16 17 18 19 21 22 24 25 27 29
30 32 34 36 38 39 42 45 47 48 51 54 55 58 62 64 67 70 72 75 78 81 84 87
88 92 94 97 100 103 106 110 113 114 117 121 124 125 129 131 134 136 139
141 144 146 148 150 152 154 156 158 159 161 162 164 165 165 167 168 169
170 170 171 171 171 171 171 4 4 4 4 4 4 4 6 6 6 6 6 8 9 9 9 11 12 12 12
13 15 17 18 19 19 22 23 25 27 27 30 32 34 36 38 39 42 44 46 48 50 53 55
58 61 64 67 69 72 75 78 81 82 85 88 92 94 97 100 103 106 110 113 116
119 121 124 127 130 132 135 137 140 143 145 147 149 152 154 156 158 159
161 163 164 165 167 169 170 171 171 173 174 174 175 175 175 176 176 4 4
4 4 4 6 6 6 6 6 6 8 8 9 9 9 11 12 12 13 15 16 17 19 19 21 23 24 25 27
29 31 33 35 37 39 41 44 46 48 50 53 55 58 61 62 66 69 72 74 77 79 82 85
88 92 94 97 100 103 106 110 113 116 119 122 125 127 130 133 136 138 141
143 146 148 150 153 155 156 159 161 163 165 165 168 169 171 171 173 174
175 176 177 177 177 177 178 178 178 4 4 4 4 6 6 6 6 6 6 8 8 9 9 9 11 12
12 13 15 16 17 18 19 21 22 24 25 27 29 31 32 34 36 39 41 42 45 48 50 51
55 57 60 62 65 68 71 74 77 79 82 85 88 92 94 97 100 103 106 110 113 116
119 122 125 128 131 133 136 139 141 144 147 149 152 154 156 158 161 162
164 165 168 170 171 173 174 175 177 177 177 178 180 181 181 182 182 182
182 6 6 6 6 6 6 6 6 6 8 8 9 9 9 11 12 12 12 13 15 17 18 19 19 22 23 25
25 27 30 32 34 36 38 39 42 44 47 48 51 54 57 60 62 65 68 71 74 76 79 82
85 88 91 94 97 100 103 106 110 113 116 119 122 125 128 131 134 137 140
142 145 147 150 153 155 156 159 162 164 165 168 170 171 173 175 176 177
178 180 181 182 183 184 184 184 184 184 186 186 6 6 6 6 6 6 6 6 8 8 8 9
9 9 11 12 12 13 15 16 17 18 19 21 23 24 25 27 29 31 33 35 37 39 42 44
46 48 50 54 55 58 62 64 67 70 73 76 79 82 85 88 91 94 97 100 103 106
110 113 116 119 122 125 128 131 134 137 140 143 146 148 151 153 156 158
161 163 165 167 169 171 173 175 176 177 178 181 182 183 184 184 186 187
188 188 188 189 189 189 6 6 6 6 6 6 6 6 8 8 9 9 9 11 12 12 12 13 16 17
18 19 21 22 24 25 27 29 30 32 34 36 39 41 42 45 48 50 53 55 58 61 64 66
69 72 75 78 81 84 87 91 94 97 100 103 106 110 113 116 119 122 125 128
131 134 137 140 143 146 149 151 154 156 159 162 164 165 168 171 171 174
176 177 180 181 183 184 184 187 188 188 189 189 190 190 192 192 192 192
6 6 6 6 6 6 6 8 8 9 9 9 11 11 12 12 13 15 16 18 19 19 21 23 25 25 27 30
32 34 36 38 39 42 45 47 48 51 55 57 60 62 66 68 71 74 77 79 84 87 90 93
96 99 103 106 109 111 116 119 122 125 128 131 134 137 140 143 146 149
152 154 156 159 162 165 167 169 171 174 176 177 178 181 183 184 186 187
188 189 189 190 192 192 194 194 195 195 195 195 6 6 6 6 6 8 8 8 9 9 9 9
11 12 12 13 15 16 17 18 19 21 22 24 25 27 29 31 33 35 37 39 41 44 46 48
50 54 55 58 62 65 68 71 74 77 79 82 85 88 92 96 99 101 104 109 111 114
117 122 125 128 131 134 137 140 143 146 149 152 155 156 159 163 165 168
170 171 174 177 178 180 182 184 186 187 189 189 190 192 192 194 195 195
197 197 197 198 198 198 6 6 6 6 8 8 8 9 9 9 9 11 12 12 12 13 15 16 18
19 19 22 23 25 27 27 30 32 34 36 38 39 42 45 48 50 53 55 58 61 64 67 70
73 76 79 82 85 88 92 94 97 100 104 108 111 114 117 121 125 128 131 134
137 140 143 146 149 152 155 158 161 163 165 168 171 173 175 177 180 182
183 184 187 189 189 192 192 194 195 195 197 198 198 200 200 200 201 201
201 8 6 6 8 8 8 8 9 9 9 11 11 12 12 13 15 16 17 18 19 21 22 24 25 27 29
31 33 35 37 39 42 44 47 48 51 54 57 60 62 66 69 72 75 78 81 84 87 91 94
97 100 103 106 111 114 117 121 124 127 131 134 137 140 143 146 149 152
155 158 161 164 165 169 171 174 176 177 181 183 184 186 188 189 192 192
194 195 197 198 198 200 201 201 201 203 203 203 203 203 8 8 8 8 8 9 9 9
9 9 11 12 12 12 13 15 16 18 19 19 22 23 25 27 27 30 32 34 36 39 41 42
46 48 50 53 55 58 62 65 68 71 74 77 79 82 85 90 93 96 100 103 106 110
113 117 120 123 127 130 133 137 140 143 146 149 152 155 158 161 164 167
169 171 174 177 178 181 183 186 187 189 190 192 195 195 197 198 200 201
201 203 203 204 204 206 206 206 207 207 8 8 8 8 9 9 9 9 9 11 12 12 12
13 15 16 17 18 19 21 23 24 25 27 29 31 33 35 38 39 42 44 47 50 51 55 58
61 64 66 69 73 76 79 82 85 88 92 94 99 101 106 109 113 116 119 123 125
130 133 136 139 143 146 149 152 155 158 161 164 167 169 171 175 177 178
182 184 186 188 189 192 194 195 197 198 200 201 203 203 204 204 206 207
207 207 207 209 209 209 9 8 9 9 9 9 9 9 11 11 12 12 13 15 16 17 18 19
19 22 23 25 27 29 30 32 34 36 39 41 42 46 48 50 54 55 58 62 65 68 71 75
78 81 84 88 91 94 97 100 104 108 111 114 119 122 125 129 132 136 139
142 145 149 152 155 158 161 164 167 169 171 175 177 180 182 184 187 189
190 192 195 195 198 200 201 201 203 204 206 207 207 209 209 209 210 210
210 212 212 9 9 9 9 9 9 9 9 11 12 12 12 13 15 16 17 18 19 21 23 24 25
27 29 31 33 35 38 39 42 45 47 50 53 55 58 61 64 67 70 73 76 79 82 85 90
93 97 100 103 106 111 114 117 121 125 128 131 135 138 142 145 148 151
155 158 161 164 167 170 171 175 177 180 183 184 187 189 190 194 195 197
198 201 201 203 204 206 207 209 209 209 210 212 213 213 213 213 213 213
9 9 9 9 9 9 9 11 12 12 12 13 15 16 17 18 19 19 22 23 25 25 27 30 32 34
36 39 41 44 46 48 50 54 57 60 62 66 69 72 75 78 82 85 88 92 94 99 101
106 109 113 117 120 124 127 131 134 138 141 144 148 151 154 156 159 163
165 169 171 175 177 180 183 184 188 189 192 194 195 198 200 201 203 204
206 207 209 209 210 212 213 213 215 215 215 216 216 216 216 9 9 9 9 9 9
11 11 12 12 12 13 15 16 17 18 19 21 23 24 25 27 29 31 33 35 37 39 42 45
47 50 53 55 58 61 64 67 71 74 77 79 84 87 91 94 97 100 104 108 111 114
119 123 125 130 133 137 140 144 147 150 153 156 159 163 165 169 171 175
177 180 183 184 188 189 192 194 197 198 201 201 203 206 207 209 209 210
212 213 213 215 216 217 217 218 218 218 219 219 9 9 9 9 11 11 11 12 12
12 13 15 16 17 18 19 19 22 23 25 27 27 30 32 34 36 39 41 44 46 48 50 54
57 60 62 66 69 72 76 79 82 85 88 93 96 100 103 106 110 114 117 121 125
129 132 136 139 143 146 149 153 156 159 162 165 169 171 174 177 180 183
184 188 189 192 195 197 198 201 203 204 206 207 209 210 212 213 215 216
216 217 218 219 219 220 220 220 220 220 9 9 9 11 11 11 12 12 12 13 13
15 16 17 18 19 21 22 24 25 27 29 31 33 35 37 39 42 45 47 50 53 55 58 61
64 68 71 74 77 81 84 88 91 94 97 101 104 109 113 116 120 124 127 131
134 138 141 145 148 152 155 158 162 165 168 171 174 177 180 182 184 188
189 192 195 197 198 201 203 204 207 207 209 212 213 213 215 217 218 218
219 220 220 220 222 222 222 223 223 11 11 11 11 11 12 12 12 12 13 15 16
17 18 19 19 21 23 25 25 27 30 32 34 36 38 41 42 46 48 50 54 57 60 62 66
69 72 76 79 82 85 90 93 97 100 103 108 111 114 119 122 125 130 133 137
140 144 147 151 154 158 161 164 167 171 173 176 178 182 184 187 189 192
195 197 198 201 203 206 207 209 210 212 213 215 216 217 219 220 220 220
222 223 223 223 223 223 225 225 11 11 11 11 12 12 12 12 13 13 15 16 17
18 19 21 22 24 25 27 29 31 33 35 37 39 42 44 47 50 51 55 58 61 64 67 71
74 78 81 84 88 91 94 99 101 106 110 113 117 121 125 128 132 136 139 143
146 150 153 156 159 163 167 170 173 176 178 182 184 187 189 192 195 197
200 201 203 206 207 209 210 213 213 216 217 218 220 220 222 223 223 223
225 225 226 226 226 226 226 11 11 11 12 12 12 12 12 13 15 16 17 18 19
19 21 23 24 25 27 30 31 34 36 38 39 42 45 48 50 54 55 60 62 66 69 72 76
79 82 85 90 93 97 100 103 108 111 114 119 123 127 130 134 138 142 145
149 152 156 159 162 165 169 171 175 177 181 184 187 189 192 194 197 198
201 203 206 207 209 210 213 215 216 218 219 220 220 223 223 223 225 226
226 226 226 228 228 228 228 12 12 12 12 12 12 12 13 15 15 16 17 18 19
21 22 23 25 27 29 30 32 35 37 39 41 44 47 48 51 55 58 61 64 67 70 74 77
81 84 88 91 94 99 101 106 110 114 117 121 125 129 132 136 140 144 147
151 154 158 161 165 168 171 174 177 180 183 186 189 192 194 197 198 201
203 206 207 209 212 213 215 217 218 220 220 222 223 223 225 226 226 226
228 229 229 229 229 229 229 12 12 12 12 12 12 12 13 15 16 17 17 19 19
21 23 24 25 27 29 31 33 35 38 39 42 45 48 50 53 55 58 62 65 69 72 75 79
82 85 88 93 97 100 103 108 111 116 119 123 127 131 135 138 142 146 149
153 156 159 163 167 170 173 176 180 182 184 188 190 194 195 198 201 203
206 207 209 212 213 215 217 218 220 220 222 223 225 226 226 228 228 229
229 229 231 231 231 231 231 12 12 12 12 12 13 13 13 15 16 17 18 19 19
22 23 25 25 27 30 32 34 36 39 41 42 46 48 51 54 57 60 62 67 70 73 77 79
84 88 91 94 99 101 106 110 114 117 121 125 129 133 137 140 144 148 151
155 159 162 165 169 171 175 178 182 184 187 189 192 195 198 201 203 204
207 209 210 213 215 217 219 220 222 223 223 225 226 228 229 229 229 231
231 232 232 232 232 232 232 12 12 12 12 13 13 13 15 16 17 18 18 19 21
22 24 25 27 29 31 33 35 37 39 42 44 47 50 53 55 58 61 65 68 71 75 78 82
85 88 93 97 100 103 108 111 116 120 123 127 131 135 139 142 146 150 154
156 161 164 168 171 174 177 181 184 187 189 192 195 198 200 203 204 207
209 210 213 215 217 219 220 222 223 225 226 226 228 229 229 231 232 232
232 232 234 234 234 235 235 12 12 12 12 13 13 15 15 16 17 18 19 19 21
23 24 25 27 30 31 33 35 38 39 42 45 48 50 54 57 60 62 66 69 73 76 79 82
87 91 94 97 101 106 110 113 117 121 125 129 133 137 141 144 148 152 155
159 163 165 170 173 176 178 183 186 188 190 194 197 200 201 203 207 209
210 213 215 217 219 220 222 223 225 226 226 228 229 231 232 232 232 234
234 235 235 235 235 235 235 12 12 12 13 13 15 15 16 17 17 18 19 21 22
23 25 25 27 30 32 34 36 39 41 44 46 48 51 55 58 61 64 67 71 74 77 81 85
88 92 96 100 103 106 111 114 119 123 127 131 135 138 142 146 150 154
156 161 164 168 171 175 177 181 184 187 189 192 195 198 201 203 206 207
210 213 215 216 218 220 222 223 225 226 228 229 229 231 232 232 232 234
235 235 235 235 235 237 237 237 13 13 13 13 15 15 15 16 17 18 19 19 21
22 24 25 27 29 31 33 35 37 39 42 44 47 50 53 55 58 62 65 68 72 75 79 82
85 90 93 97 100 104 109 113 117 121 125 129 132 136 140 144 148 152 156
159 163 165 170 173 176 180 183 186 189 192 195 198 200 203 204 207 209
212 213 216 218 220 222 223 225 226 228 229 229 231 232 232 234 235 235
235 237 237 237 238 238 238 238 13 13 13 13 15 15 16 16 17 18 19 19 21
23 24 25 27 29 31 33 35 38 39 42 45 48 50 54 57 60 62 66 69 73 76 79 84
87 91 94 99 103 106 110 114 117 122 125 130 134 138 142 146 150 154 156
161 164 168 171 175 177 181 184 188 190 194 195 198 201 204 207 209 210
213 216 218 220 220 223 225 226 228 229 229 231 232 232 234 235 235 237
237 238 238 238 238 238 238 238 13 13 13 15 15 16 16 17 18 19 19 21 22
23 25 25 27 30 32 34 36 38 41 42 46 48 50 54 58 61 64 67 71 74 78 81 85
88 93 96 100 103 108 111 116 120 124 128 132 136 140 144 148 151 155
159 163 165 170 173 177 180 183 186 189 192 195 198 201 203 206 207 210
213 215 217 219 220 223 225 226 228 229 229 232 232 234 235 235 237 237
238 238 238 238 240 240 240 240 240 15 15 15 15 16 16 16 17 18 19 19 21
22 24 25 27 27 30 33 35 37 39 41 44 47 48 51 55 58 62 65 68 72 75 79 82
85 90 94 97 100 104 109 113 117 121 125 129 133 137 141 145 149 153 156
161 164 168 171 175 177 182 184 188 190 194 197 200 201 204 207 209 212
213 217 219 220 222 223 226 226 229 229 231 232 234 235 235 237 237 238
238 238 240 240 241 241 241 241 241 15 15 15 15 16 16 17 17 18 19 19 21
23 24 25 27 29 31 33 35 37 39 42 45 47 50 53 55 58 62 66 69 73 76 79 82
87 91 94 99 103 106 111 114 119 123 127 131 135 139 143 147 151 154 158
162 165 169 173 176 180 183 186 189 192 195 198 201 203 206 209 210 213
216 218 220 222 223 225 226 228 229 231 232 234 235 235 237 238 238 238
240 240 241 241 241 242 242 242 242 15 15 15 16 16 17 17 18 19 19 21 22
23 25 25 27 29 31 34 36 38 39 42 45 48 50 54 57 60 62 67 70 74 77 81 84
88 92 96 100 103 108 111 116 120 124 128 132 136 140 144 148 152 156
159 164 167 171 174 177 181 184 188 190 194 197 200 201 204 207 209 212
215 217 219 220 223 223 226 228 229 231 232 232 235 235 237 238 238 238
240 240 241 242 242 242 242 243 243 243 16 15 16 16 16 17 17 18 19 19
21 22 23 25 27 27 30 32 34 36 38 41 42 46 48 51 54 58 61 64 67 71 74 78
82 85 88 93 97 100 104 109 113 117 121 125 129 133 138 142 146 150 153
156 161 165 169 171 176 178 183 186 189 192 195 198 201 203 206 209 210
213 216 218 220 222 223 226 226 229 229 232 232 234 235 237 238 238 238
240 241 241 242 242 243 243 243 244 244 244 16 16 16 16 17 17 18 18 19
19 21 22 24 25 27 29 30 32 35 37 39 41 44 47 50 51 55 58 62 65 68 72 75
79 82 87 90 94 97 101 106 110 114 117 123 127 131 135 139 143 147 151
155 159 163 165 170 174 177 181 184 187 189 194 197 200 201 204 207 209
213 215 217 219 220 223 225 226 228 229 232 232 234 235 237 238 238 238
240 241 242 242 243 243 244 244 244 244 244 244 16 16 16 16 17 17 18 19
19 21 22 23 24 25 27 29 31 33 35 37 39 42 45 47 50 53 55 58 62 66 69 72
76 79 84 87 91 94 99 103 106 111 114 119 124 128 132 136 140 144 148
152 156 159 164 167 171 175 177 182 184 188 190 195 198 201 203 206 209
210 213 216 218 220 222 223 226 228 229 231 232 234 235 235 237 238 238
240 241 242 242 243 243 244 244 244 244 244 244 244 16 16 16 17 17 18
18 19 19 21 22 23 24 25 27 29 31 33 35 38 39 42 45 48 50 53 55 60 62 66
70 73 77 81 84 88 92 96 100 103 108 111 116 120 125 129 133 137 141 145
149 153 156 161 165 169 171 176 178 183 186 189 192 195 198 201 203 207
209 212 215 217 219 220 223 225 226 228 229 232 232 234 235 237 238 238
240 241 242 242 243 243 244 244 244 244 244 246 246 246 17 16 16 17 17
18 18 19 19 21 22 23 25 25 27 30 31 34 36 38 39 42 46 48 50 54 57 60 64
67 70 74 78 81 85 88 93 97 100 104 109 113 117 121 125 130 134 138 142
146 150 154 158 162 165 170 173 177 180 184 187 189 194 197 200 203 204
207 210 213 215 218 220 222 223 226 228 229 231 232 234 235 235 238 238
240 241 241 242 243 244 244 244 244 244 246 246 246 246 246 17 17 17 17
18 18 19 19 19 21 22 24 25 27 27 30 32 34 36 39 41 42 46 48 51 55 58 61
64 68 71 75 78 82 85 90 94 97 101 106 110 114 117 122 127 131 135 139
143 147 151 155 159 163 167 171 174 177 181 184 188 190 195 198 201 203
206 209 212 213 216 219 220 223 225 226 228 229 232 232 235 235 237 238
238 240 241 242 243 244 244 244 244 246 246 246 246 247 247 247 17 17
17 17 18 18 19 19 21 22 23 24 25 27 29 30 32 34 37 39 41 44 46 48 51 55
58 61 65 68 72 75 79 82 87 90 94 99 103 106 111 114 119 123 127 132 136
140 144 148 152 156 159 164 168 171 175 178 182 186 189 192 195 198 201
204 207 209 212 215 217 219 220 223 226 226 229 231 232 234 235 235 238
238 240 241 242 243 243 244 244 244 246 246 247 247 247 247 247 247 17
17 17 17 18 18 19 19 21 22 23 24 25 27 29 31 32 35 37 39 42 44 47 50 53
55 58 62 65 69 72 76 79 82 87 91 94 99 103 106 111 116 120 124 128 132
136 141 145 149 153 156 161 165 169 171 176 178 183 187 189 192 195 198
201 204 207 209 213 216 218 220 222 223 226 228 229 231 232 235 235 237
238 238 241 241 242 243 244 244 244 246 246 247 247 247 247 248 248 248
17 17 17 18 18 19 19 19 21 22 23 24 25 27 29 31 33 35 37 39 42 44 47 50
53 55 58 62 66 69 73 76 79 84 88 92 96 100 103 108 111 116 120 125 129
133 137 141 145 149 154 158 161 165 169 173 177 180 184 187 190 194 197
200 203 206 207 210 213 216 218 220 223 225 226 228 229 232 232 235 235
237 238 240 241 242 243 243 244 244 244 246 246 247 247 248 248 248 248
248 17 17 17 18 18 19 19 19 21 22 23 24 25 27 29 31 33 35 37 39 42 44
47 50 53 55 58 62 66 70 73 77 79 84 88 92 96 100 103 108 113 117 121
125 129 134 138 142 146 150 154 158 162 165 170 174 177 181 184 188 190
194 197 201 203 206 209 212 213 217 219 220 223 225 226 229 231 232 234
235 237 238 238 240 241 242 243 244 244 244 246 246 247 247 248 248 248
248 248 248 18 17 17 18 18 19 19 19 21 22 23 25 25 27 30 31 33 35 38 39
42 45 48 50 54 57 60 62 67 70 73 77 81 85 88 93 97 100 104 109 113 117
122 125 130 134 138 143 147 151 155 159 163 167 171 174 177 182 184 189
192 195 198 201 203 207 209 212 215 217 220 222 223 226 228 229 231 232
234 235 237 238 240 241 242 243 243 244 244 246 246 247 247 248 248 248
248 248 248 248 18 17 18 18 19 19 19 19 21 23 24 25 25 27 30 32 33 36
38 39 42 45 48 50 54 57 60 62 67 70 74 77 81 85 88 93 97 100 104 110
114 117 122 125 131 135 139 143 147 151 156 159 163 167 171 175 178 182
186 189 192 195 198 201 204 207 209 213 215 218 220 222 223 226 228 229
232 232 235 235 238 238 240 241 242 243 244 244 244 246 247 247 247 248
248 248 248 248 248 248 18 18 18 18 19 19 19 19 21 23 24 25 25 27 30 32
33 36 38 39 42 45 48 50 54 57 60 64 67 71 74 78 82 85 88 93 97 100 106
110 114 117 122 127 131 135 139 143 148 152 156 159 164 168 171 175 178
182 186 189 192 195 198 201 204 207 209 213 216 218 220 222 223 226 229
229 232 232 235 237 238 238 240 241 242 243 244 244 246 246 247 247 248
248 248 248 248 248 248 248 18 18 18 18 19 19 19 19 22 23 24 25 25 27
30 32 33 36 38 41 42 45 48 50 54 57 60 64 67 71 74 78 82 85 90 93 97
101 106 110 114 117 123 127 131 135 139 144 148 152 156 159 164 168 171
176 178 183 186 189 192 195 198 201 204 207 210 213 216 218 220 223 225
226 229 229 232 234 235 237 238 238 240 241 242 243 244 244 246 246 247
247 248 248 248 248 248 248 248 248 18 18 18 18 19 19 19 21 22 23 24 25
27 27 30 32 34 36 38 41 42 45 48 50 54 57 60 64 67 71 74 78 82 85 90 94
97 101 106 110 114 119 123 127 131 136 140 144 148 152 156 159 164 168
171 176 178 183 186 189 192 195 198 203 206 207 210 213 216 219 220 223
225 226 229 231 232 234 235 237 238 238 240 242 243 243 244 244 246 247
247 247 248 248 248 248 248 248 250 250 18 18 18 18 19 19 19 21 22 23
24 25 27 27 30 32 34 36 38 41 42 46 48 51 55 58 61 64 68 71 75 78 82 85
90 94 97 101 106 111 114 119 123 127 132 136 140 144 148 153 156 161
165 168 171 176 180 183 187 189 194 197 200 203 206 209 210 213 216 219
220 223 225 226 229 231 232 234 235 237 238 238 241 242 243 244 244 244
246 247 247 248 248 248 248 248 248 248 250 250 18 18 18 18 19 19 19 21
22 23 24 25 27 27 30 32 34 36 38 41 42 46 48 51 55 58 61 64 68 71 75 78
82 85 90 94 97 101 106 111 114 119 123 127 132 136 140 144 148 153 156
161 165 168 171 176 180 183 187 189 194 197 200 203 206 209 210 213 216
219 220 223 225 226 229 231 232 234 235 237 238 240 241 242 243 244 244
244 246 247 247 248 248 248 248 248 248 250 250 250 18 18 18 18 19 19
19 21 22 23 24 25 27 27 30 32 34 36 38 41 42 46 48 51 54 57 61 64 68 71
75 78 82 85 90 94 97 101 106 110 114 119 123 127 132 136 140 144 148
152 156 161 164 168 171 176 180 183 187 189 194 197 200 203 206 209 210
213 216 219 220 223 225 226 229 231 232 234 235 237 238 238 241 242 243
244 244 244 246 247 247 248 248 248 248 248 248 248 250 250
