P2
# Created by the Paint.NET plugin 'ImPNM.FileType'
100 100
255
0 0 0 0 0 0 0 0 0 0 0 0 0 0 0 0 0 0 0 0 0 0 0 0 0 0 0 0 0 0 0 0 0 0 0 0
0 0 0 0 0 0 0 0 0 0 0 0 0 0 0 0 0 0 0 0 0 0 0 0 0 0 0 0 0 0 0 0 0 0 0 0
0 0 0 0 0 0 0 0 0 0 0 0 0 0 0 0 0 0 0 0 0 0 0 0 0 0 0 0 0 0 0 0 0 0 0 0
0 0 0 0 0 0 0 0 0 0 0 0 0 0 0 0 0 0 0 0 0 0 0 0 0 0 0 0 0 0 0 0 0 0 0 0
0 0 0 0 0 0 0 0 0 0 0 0 0 0 0 0 0 0 0 0 0 0 0 0 0 0 0 0 0 0 0 0 0 0 0 0
0 0 0 0 0 0 0 0 0 0 0 0 0 0 0 0 0 0 0 0 0 0 0 0 0 0 0 0 0 0 0 0 0 0 0 0
0 0 0 0 0 0 0 0 0 0 0 0 0 0 0 0 0 0 0 0 0 0 0 0 0 0 0 0 0 0 0 0 0 0 0 0
0 0 0 0 0 0 0 0 0 0 0 0 0 0 0 0 0 0 0 0 0 0 0 0 0 0 0 0 0 0 0 0 0 0 0 0
0 0 0 0 0 0 0 0 0 0 0 0 0 0 0 0 0 0 0 0 0 0 0 0 0 0 0 0 0 0 0 0 0 0 0 0
0 0 0 0 0 0 0 0 0 0 0 0 0 0 0 0 0 0 0 0 0 0 0 0 0 0 0 0 0 0 0 0 0 0 0 0
0 0 0 0 0 0 0 0 0 0 0 0 0 0 0 0 0 0 0 0 0 0 0 0 0 0 0 0 0 0 0 0 0 0 0 0
0 0 0 0 0 0 0 0 0 0 0 0 0 0 0 0 0 0 0 0 0 0 0 0 0 0 0 0 0 0 0 0 0 0 0 0
0 0 0 0 0 0 0 0 0 0 0 0 0 0 0 0 0 0 0 0 0 0 0 0 0 0 0 0 0 0 0 0 0 0 0 0
0 0 0 0 0 0 0 0 0 0 0 0 0 0 0 0 0 0 0 0 0 0 0 0 0 0 0 0 0 0 0 0 0 0 0 0
0 0 0 0 0 0 0 0 0 0 0 0 0 0 0 0 0 0 0 0 0 0 0 0 0 0 0 0 0 0 0 0 0 0 0 0
0 0 0 0 0 0 0 0 0 0 0 0 0 0 0 0 0 0 0 0 0 0 0 0 0 0 0 0 0 0 0 0 0 0 0 0
0 0 0 0 0 0 0 0 0 0 0 0 0 0 0 0 0 0 0 0 0 0 0 0 0 0 0 0 0 0 0 0 0 0 0 0
0 0 0 0 0 0 0 0 0 0 0 0 0 0 0 0 0 0 0 0 0 0 0 0 0 0 0 0 0 0 0 0 0 0 0 0
0 0 0 0 0 0 0 0 0 0 0 0 0 0 0 0 0 0 0 0 0 0 0 0 0 0 0 0 0 0 0 0 0 0 0 0
0 0 0 0 0 0 0 0 0 0 0 0 0 0 0 0 0 0 0 0 0 0 0 0 0 0 0 0 0 0 0 0 0 0 0 0
0 0 0 0 0 0 0 0 0 0 0 0 0 0 0 0 0 0 0 0 0 0 0 0 0 0 0 0 0 0 0 0 0 0 0 0
0 0 0 0 0 0 0 0 0 0 0 0 0 0 0 0 0 0 0 0 0 0 0 0 0 0 0 0 0 0 0 0 0 0 0 0
0 0 0 0 0 0 0 0 0 0 0 0 0 0 0 0 0 0 0 0 0 0 0 0 0 0 0 0 0 0 0 0 0 0 0 0
0 0 0 0 0 0 0 0 0 0 0 0 0 0 0 0 0 0 0 0 0 0 0 0 0 0 0 0 0 0 0 0 0 0 0 0
0 0 0 0 0 0 0 0 0 0 0 0 0 0 0 0 0 0 0 0 0 0 0 0 0 0 0 0 0 0 0 0 0 0 0 0
0 0 0 0 0 0 0 0 0 0 0 0 0 0 0 0 0 0 0 0 0 0 0 0 0 0 0 0 0 0 0 0 0 0 0 0
0 0 0 0 0 0 0 0 0 0 0 0 0 0 0 0 0 0 0 0 0 0 0 0 0 0 0 0 0 0 0 0 0 0 0 0
0 0 0 0 0 0 0 0 0 0 0 0 0 0 0 0 0 0 0 0 0 0 0 0 0 0 0 0 0 0 0 0 0 0 0 0
0 0 0 0 0 0 0 0 0 0 0 0 0 0 0 0 0 0 0 0 0 0 0 0 0 0 0 0 0 0 0 0 0 0 0 0
0 0 0 0 0 0 0 0 0 0 0 0 0 0 0 0 0 0 0 0 0 0 0 0 0 0 0 0 0 0 0 0 0 0 0 0
0 0 0 0 0 0 0 0 0 0 0 0 0 0 0 0 0 0 0 0 0 0 0 0 0 0 0 0 0 0 0 0 0 0 0 0
0 0 0 0 0 0 0 0 0 0 0 0 0 0 0 0 0 0 0 0 0 0 0 0 0 0 0 0 0 0 0 0 0 0 0 0
0 0 0 0 0 0 0 0 0 0 0 0 0 0 0 0 0 0 0 0 0 0 0 0 0 0 0 0 0 0 0 0 0 0 0 0
0 0 0 0 0 0 0 0 0 0 0 0 0 0 0 0 0 0 0 0 0 0 0 0 0 0 0 0 0 0 0 0 0 0 0 0
0 0 0 0 0 0 0 0 0 0 0 0 0 0 0 0 0 0 0 0 0 0 0 0 0 0 0 0 0 0 0 0 0 0 0 0
0 0 0 0 0 0 0 0 0 0 0 0 0 0 0 0 0 0 0 0 0 0 0 0 0 0 0 0 0 0 0 0 0 0 0 0
0 0 0 0 0 0 0 0 0 0 0 0 0 0 0 0 0 0 0 0 0 0 0 0 0 0 0 0 0 0 0 0 0 0 0 0
0 0 0 0 0 0 0 0 0 0 0 0 0 0 0 0 0 0 0 0 0 0 0 0 0 0 0 0 0 0 0 0 0 0 0 0
0 0 0 0 0 0 0 0 0 0 0 0 0 0 0 0 0 0 0 0 0 0 0 0 0 0 0 0 0 0 0 0 0 0 0 0
0 0 0 0 0 0 0 0 0 0 0 0 0 0 0 0 0 0 0 0 0 0 0 0 0 0 0 0 0 0 0 0 0 0 0 0
0 0 0 0 0 0 0 0 0 0 0 0 0 0 0 0 0 0 0 0 0 0 0 0 0 0 0 0 0 0 0 0 0 0 0 0
0 0 0 0 0 0 0 0 0 0 0 0 0 0 0 0 0 0 0 0 0 0 0 0 0 0 0 0 0 0 0 0 0 0 0 0
0 0 0 0 0 0 0 0 0 0 0 0 0 0 0 0 0 0 0 0 0 0 0 0 0 0 0 0 0 0 0 0 0 0 0 0
0 0 0 0 0 0 0 0 0 0 0 0 0 0 0 0 0 0 0 0 0 0 0 0 0 0 0 0 0 0 0 0 0 0 0 0
0 0 0 0 0 0 0 0 0 0 0 0 0 0 0 0 0 0 0 0 0 0 0 0 0 0 0 0 0 0 0 0 0 0 0 0
0 0 0 0 0 0 0 0 0 0 0 0 0 0 0 0 0 0 0 0 0 0 0 0 0 0 0 0 0 0 0 0 0 0 0 0
0 0 0 0 0 0 0 0 0 0 0 0 0 0 0 0 0 0 0 0 0 0 0 0 0 0 0 0 0 0 0 0 0 0 0 0
0 0 0 0 0 0 0 0 0 0 0 0 0 0 0 0 0 0 0 0 0 0 0 0 0 0 0 0 0 0 0 0 0 0 0 0
0 0 0 0 0 0 0 0 0 0 0 0 0 0 0 0 0 0 0 0 0 0 0 0 0 0 0 0 0 0 0 0 0 0 0 0
0 0 0 0 0 0 0 0 0 0 0 0 0 0 0 0 0 0 0 0 0 0 0 0 0 0 0 0 0 0 0 0 0 0 0 0
0 0 0 0 0 0 0 0 0 0 0 0 0 0 0 0 0 0 0 0 0 0 0 0 0 0 0 0 0 0 0 0 0 0 0 0
0 0 0 0 0 0 0 0 0 0 0 0 0 0 0 0 0 0 0 0 0 0 0 0 0 0 0 0 0 0 0 0 0 0 0 0
0 0 0 0 0 0 0 0 0 0 0 0 0 0 0 0 0 0 0 0 0 0 0 0 0 0 0 0 0 0 0 0 0 0 0 0
0 0 0 0 0 0 0 0 0 0 0 0 0 0 0 0 0 0 0 0 0 0 0 0 0 0 0 0 0 0 0 0 0 0 0 0
0 0 0 0 0 0 0 0 0 0 0 0 0 0 0 0 0 0 0 0 0 0 0 0 0 0 0 0 0 0 0 0 0 0 0 0
0 0 0 0 0 0 0 0 0 0 0 0 0 0 0 0 0 0 0 0 0 0 0 0 0 0 0 0 0 0 0 0 0 0 0 0
0 0 0 0 0 0 0 0 0 0 0 0 0 0 0 0 0 0 0 0 0 0 0 0 0 0 0 0 0 0 0 0 0 0 0 0
0 0 0 0 0 0 0 0 0 0 0 0 0 0 0 0 0 0 0 0 0 0 0 0 0 0 0 0 0 0 0 0 0 0 0 0
0 0 0 0 0 0 0 0 0 0 0 0 0 0 0 0 0 0 0 0 0 0 0 0 0 0 0 0 0 0 0 0 0 0 0 0
0 0 0 0 0 0 0 0 0 0 0 0 0 0 0 0 0 0 0 0 0 0 0 0 0 0 0 0 0 0 0 0 0 0 0 0
0 0 0 0 0 0 0 0 0 0 0 0 0 0 0 0 0 0 0 0 0 0 0 0 0 0 0 0 0 0 0 0 0 0 0 0
0 0 0 0 0 0 0 0 0 0 0 0 0 0 0 0 0 0 0 0 0 0 0 0 0 0 0 0 0 0 0 0 0 0 0 0
0 0 0 0 0 0 0 0 0 0 0 0 0 0 0 0 0 0 0 0 0 0 0 0 0 0 0 0 0 0 0 0 0 0 0 0
0 0 0 0 0 0 0 0 0 0 0 0 0 0 0 0 0 0 0 0 0 0 0 0 0 0 0 0 0 0 0 0 0 0 0 0
0 0 0 0 0 0 0 0 0 0 0 0 0 0 0 0 0 0 0 0 0 0 0 0 0 0 0 0 0 0 0 0 0 0 0 0
0 0 0 0 0 0 0 0 0 0 0 0 0 0 0 0 0 0 0 0 0 0 0 0 0 0 0 0 0 0 0 0 0 0 0 0
0 0 0 0 0 0 0 0 0 0 0 0 0 0 0 0 0 0 0 0 0 0 0 0 0 0 0 0 0 0 0 0 0 0 0 0
0 0 0 0 0 0 0 0 0 0 0 0 0 0 0 0 0 0 0 0 0 0 0 0 0 0 0 0 0 0 0 0 0 0 0 0
0 0 0 0 0 0 0 0 0 0 0 0 0 0 0 0 0 0 0 0 0 0 0 0 0 0 0 0 0 0 0 0 0 0 0 0
0 0 0 0 0 0 0 0 0 0 0 0 0 0 0 0 0 0 0 0 0 0 0 0 0 0 0 0 0 0 0 0 0 0 0 0
0 0 0 0 0 0 0 0 0 0 0 0 0 0 0 0 0 0 0 0 0 0 0 0 0 0 0 0 0 0 0 0 0 0 0 0
0 0 0 0 0 0 0 0 0 0 0 0 0 0 0 0 0 0 0 0 0 0 0 0 0 0 0 0 0 0 0 0 0 0 0 0
0 0 0 0 0 0 0 0 0 0 0 0 0 0 0 0 0 0 0 0 0 0 0 0 0 0 0 0 0 0 0 0 0 0 0 0
0 0 0 0 0 0 0 0 0 0 0 0 0 0 0 0 0 0 0 0 0 0 0 0 0 0 0 0 0 0 0 0 0 0 0 0
0 0 0 0 0 0 0 0 0 0 0 0 0 0 0 0 0 0 0 0 0 0 0 0 0 0 0 0 0 0 0 0 0 0 0 0
0 0 0 0 0 0 0 0 0 0 0 0 0 0 0 0 0 0 0 0 0 0 0 0 0 0 0 0 0 0 0 0 0 0 0 0
0 0 0 0 0 0 0 0 0 0 0 0 0 0 0 0 0 0 0 0 0 0 0 0 0 0 0 0 0 0 0 0 0 0 0 0
0 0 0 0 0 0 0 0 0 0 0 0 0 0 0 0 0 0 0 0 0 0 0 0 0 0 0 0 0 0 0 0 0 0 0 0
0 0 0 0 0 0 0 0 0 0 0 0 0 0 0 0 0 0 0 0 0 0 0 0 0 0 0 0 0 0 0 0 0 0 0 0
0 0 0 0 0 0 0 0 0 0 0 0 0 0 0 0 0 0 0 0 0 0 0 0 0 0 0 0 0 0 0 0 0 0 0 0
0 0 0 0 0 0 0 0 0 0 0 0 0 0 0 0 0 0 0 0 0 0 0 0 0 0 0 0 0 0 0 0 0 0 0 0
0 0 0 0 0 0 0 0 0 0 0 0 0 0 0 0 0 0 0 0 0 0 0 0 0 0 0 0 0 0 0 0 0 0 0 0
0 0 0 0 0 0 0 0 0 0 0 0 0 0 0 0 0 0 0 0 0 0 0 0 0 0 0 0 0 0 0 0 0 1 1 1
1 1 1 1 1 1 1 1 1 1 1 1 1 1 1 1 1 1 1 1 1 1 1 1 1 1 1 1 1 1 1 1 1 1 1 1
1 1 1 1 1 1 1 1 1 1 1 1 1 1 1 1 1 1 0 0 0 0 0 0 0 0 0 0 0 0 0 0 0 0 0 0
0 0 0 0 0 0 0 0 0 0 0 0 0 0 0 0 0 0 0 1 1 1 1 1 1 1 1 1 1 1 1 1 1 1 2 2
2 2 2 2 1 1 1 1 1 1 1 1 1 1 1 1 1 1 1 1 1 1 1 1 1 1 1 1 1 1 1 1 1 1 1 1
1 1 1 1 1 1 1 1 1 1 1 1 1 1 1 1 1 1 1 1 0 0 0 0 0 0 0 0 0 0 0 0 0 0 0 0
0 0 0 0 1 1 1 1 1 1 1 1 1 1 1 1 2 2 2 2 2 2 2 2 2 2 2 2 2 2 3 3 2 2 2 2
2 2 2 2 2 2 2 2 2 2 2 2 2 2 2 2 2 2 2 2 2 2 2 2 2 2 2 2 2 2 2 2 2 2 2 2
2 2 2 2 2 1 1 1 1 1 1 1 1 1 1 1 1 1 1 1 1 1 1 1 1 1 1 1 1 1 1 1 1 1 1 1
1 1 2 2 2 2 2 2 2 3 3 3 3 3 3 3 3 3 3 4 4 4 4 4 3 3 3 3 3 3 3 3 3 3 3 3
3 3 3 3 3 3 3 3 3 3 3 3 3 3 3 3 3 3 3 3 3 3 3 3 3 3 3 3 3 3 2 2 2 2 2 2
2 2 2 2 2 1 1 1 1 1 1 1 1 1 1 1 1 1 1 1 1 1 1 1 2 2 2 2 2 2 2 3 3 3 3 3
3 4 4 4 4 4 4 4 4 4 4 4 4 4 4 4 4 4 4 4 4 4 4 4 4 4 4 4 4 4 4 4 4 4 4 4
4 4 4 4 4 4 4 4 4 4 4 4 4 4 4 4 4 4 4 4 4 4 4 3 3 3 3 3 3 3 3 3 2 2 2 2
2 2 2 2 2 2 2 2 2 2 2 2 2 2 2 2 2 3 3 3 3 3 3 4 4 4 4 4 4 4 4 4 6 6 6 6
6 6 6 6 6 6 6 6 6 6 6 6 6 6 6 6 6 6 6 6 6 6 6 6 6 6 6 6 6 6 6 6 6 6 6 6
6 6 6 6 6 6 6 6 6 4 4 4 4 4 4 4 4 4 4 4 4 4 4 4 3 3 3 3 3 3 3 3 3 3 3 3
3 3 3 3 3 3 3 3 4 4 4 4 4 4 4 4 4 6 6 6 6 6 6 6 6 8 8 8 8 8 8 9 9 9 9 9
6 6 6 6 6 6 6 6 6 6 8 8 8 8 8 8 8 8 8 8 8 8 8 8 8 8 8 8 8 8 8 8 8 8 8 6
6 6 6 6 6 6 6 6 6 6 6 6 6 4 4 4 4 4 4 4 4 4 4 4 4 4 4 4 4 4 4 4 4 4 4 4
4 4 4 6 6 6 6 6 6 6 8 8 8 9 9 9 9 9 9 9 11 11 11 11 11 11 11 11 9 9 9 9
9 9 9 9 9 9 9 9 9 9 9 9 9 9 9 9 9 9 9 9 9 9 9 9 9 9 9 9 9 9 9 9 9 9 9 9
9 9 9 9 8 8 8 8 6 6 6 6 6 6 6 6 6 6 6 4 4 4 4 4 4 4 4 6 6 6 6 6 6 6 6 6
8 8 8 9 9 9 9 9 11 11 12 12 12 12 12 12 13 13 13 13 13 13 15 15 12 12
12 12 12 12 12 12 12 12 12 12 12 12 12 12 12 12 12 12 12 12 12 12 12 12
12 12 12 12 12 12 12 12 12 12 12 12 12 12 12 11 11 11 11 9 9 9 9 9 9 9
9 8 8 8 8 6 6 6 6 6 6 6 6 6 6 6 8 8 8 8 9 9 9 9 9 9 11 11 12 12 12 12
13 13 15 15 16 16 16 17 17 17 18 18 18 18 18 18 16 16 16 16 16 16 16 16
16 16 16 16 16 16 16 16 16 16 16 16 16 16 16 16 16 16 16 16 16 16 16 16
16 16 16 16 16 16 15 15 15 15 13 13 13 12 12 12 12 12 12 11 11 11 9 9 9
9 9 9 9 9 9 9 9 9 9 9 9 9 9 11 11 11 12 12 12 12 13 13 15 15 16 17 17
18 18 19 19 19 19 21 21 21 22 22 22 22 22 23 19 19 19 19 19 19 19 19 19
19 19 19 19 19 19 19 19 19 19 19 19 21 21 21 21 21 21 21 21 21 21 19 19
19 19 19 19 19 19 19 19 18 18 18 17 17 17 16 16 15 15 15 13 13 12 12 12
12 12 12 12 12 12 12 12 12 12 12 12 12 12 13 13 13 15 16 16 17 17 18 19
19 19 21 21 22 23 23 24 24 25 25 25 25 27 27 27 27 27 27 25 25 25 25 25
25 25 25 25 25 25 25 25 25 25 25 25 25 25 25 25 25 25 25 25 25 25 25 25
25 25 25 25 25 25 24 24 24 24 23 23 23 22 22 21 21 19 19 19 19 18 18 18
17 17 16 16 16 15 15 15 15 15 15 15 15 15 15 16 16 17 17 17 18 19 19 19
21 21 22 23 24 24 25 25 27 27 27 29 29 30 31 31 32 32 32 33 33 33 33 30
30 30 30 30 30 30 30 30 30 30 30 30 30 30 30 30 31 31 31 31 31 31 31 31
31 31 31 31 31 31 31 30 30 30 30 30 29 29 29 27 27 27 27 25 25 25 25 24
24 23 22 22 21 21 19 19 19 19 19 19 19 19 19 19 19 19 19 19 19 21 21 22
22 23 24 25 25 25 27 27 29 30 31 32 32 33 34 35 36 36 37 38 38 39 39 39
39 39 39 36 36 36 36 36 36 36 36 36 36 36 36 36 37 37 37 37 37 37 37 37
37 37 37 37 37 37 37 37 37 37 37 37 36 36 36 36 35 35 34 34 34 33 32 32
31 31 30 29 29 27 27 27 25 25 25 25 24 24 24 23 23 23 23 23 23 24 24 24
25 25 25 27 27 27 29 30 31 32 33 34 35 36 37 38 39 39 41 42 42 42 44 45
45 46 46 47 47 47 47 42 42 42 42 42 42 42 42 42 42 42 42 42 42 42 44 44
44 44 44 44 44 44 44 44 44 44 44 44 44 44 44 42 42 42 42 42 42 41 41 39
39 39 39 38 37 37 36 35 34 34 33 32 32 31 30 30 29 29 29 27 27 27 27 27
27 29 29 29 30 31 31 32 33 34 35 36 37 38 39 39 41 42 42 44 46 47 48 48
50 50 50 51 53 53 54 54 55 55 55 50 50 50 50 50 50 50 50 50 50 50 50 50
50 50 50 50 51 51 51 51 51 51 51 51 51 51 51 51 51 51 50 50 50 50 50 50
50 48 48 48 47 47 46 45 44 42 42 42 41 39 39 39 38 37 37 36 36 35 35 34
34 34 34 34 34 35 35 36 36 37 37 38 39 39 41 42 42 45 46 47 48 50 50 51
53 55 55 57 58 58 60 61 61 62 62 62 62 64 64 58 58 58 58 58 58 58 58 58
58 58 60 60 60 60 60 60 60 60 60 60 60 60 60 60 60 60 60 60 60 60 60 60
58 58 58 58 58 57 57 55 55 54 54 53 51 50 50 48 48 47 46 46 45 44 42 42
42 42 41 41 41 41 41 41 41 41 42 42 42 44 44 45 46 47 48 50 50 51 53 55
55 58 58 61 62 62 64 66 67 68 69 70 71 71 72 72 73 73 73 68 68 68 68 68
69 69 69 69 69 69 69 69 69 69 69 69 69 69 69 69 70 70 70 70 70 70 70 70
69 69 69 69 69 68 68 67 67 66 66 65 64 62 62 61 60 58 58 57 55 55 54 53
53 51 50 50 50 48 48 48 48 48 48 48 48 48 48 50 50 50 51 53 54 55 55 58
58 61 62 64 65 67 68 70 71 72 74 75 76 78 79 79 79 81 82 82 82 82 82 78
78 78 78 78 78 78 78 79 79 79 79 79 79 79 79 79 79 79 79 79 79 79 79 79
79 79 79 79 79 79 79 79 78 78 78 77 76 76 75 74 73 73 72 71 70 68 67 66
65 64 62 62 61 60 58 58 58 57 57 57 55 55 55 55 55 57 57 58 58 60 60 62
62 64 65 67 68 70 71 73 74 76 78 79 81 82 84 85 85 88 88 90 91 92 92 93
93 93 94 88 88 88 88 88 88 88 88 88 88 88 88 88 88 88 88 88 88 90 90 90
90 90 90 90 90 90 90 90 90 88 88 88 88 88 88 87 87 85 85 84 82 82 81 79
79 78 77 76 74 73 72 71 70 69 68 67 67 66 66 65 65 65 65 65 65 66 66 67
67 68 69 71 72 73 74 76 77 79 81 82 84 85 87 88 91 93 94 96 97 97 99
100 100 101 103 103 103 103 103 100 100 100 100 100 100 100 100 100 100
100 100 100 100 100 100 100 100 100 100 100 100 100 100 100 100 100 100
100 100 100 100 100 99 99 99 97 97 97 96 94 94 93 92 91 88 88 87 85 85
82 82 81 79 79 78 77 76 76 75 75 74 74 74 74 75 75 76 76 77 78 79 79 82
82 84 85 88 88 91 93 94 96 97 100 101 103 104 106 108 109 110 111 113
113 114 114 114 114 116 111 111 111 111 111 111 111 111 111 111 111 111
111 111 111 111 111 111 111 111 111 111 111 111 111 111 111 111 111 111
111 111 111 111 110 110 109 108 106 106 106 104 103 103 100 100 99 97
96 94 94 93 91 90 88 88 87 87 85 85 85 85 84 84 85 85 85 85 87 87 88 88
91 92 93 94 97 97 100 101 103 104 106 109 111 111 114 116 117 119 120
122 123 124 125 125 125 125 127 127 122 122 122 122 122 122 122 122 122
122 122 122 123 123 123 123 123 123 123 123 123 123 123 123 123 123 123
123 123 123 123 123 122 122 121 121 120 119 119 117 117 116 114 114 111
111 110 108 106 106 103 103 101 100 100 99 97 97 96 96 94 94 94 94 94
94 96 96 97 97 99 100 100 101 103 106 106 109 111 111 114 116 117 120
122 123 125 127 129 130 132 133 134 135 136 137 137 138 138 138 134 134
134 134 134 134 134 134 134 134 134 134 134 134 134 134 134 134 135 135
135 135 135 135 135 135 135 135 135 135 134 134 134 133 133 132 132 131
130 129 128 127 125 125 124 122 121 120 117 117 116 114 113 111 111 110
109 108 106 106 106 106 106 106 106 106 106 106 108 109 110 111 111 114
114 117 117 120 122 124 125 127 129 131 133 135 137 138 140 141 143 144
145 146 147 148 148 149 149 149 145 145 145 145 145 145 145 145 145 145
145 145 145 146 146 146 146 146 146 146 146 146 146 146 146 146 146 146
146 146 146 145 145 145 144 144 143 142 141 140 139 138 137 136 135 134
132 131 130 128 127 125 124 123 122 121 120 119 117 117 117 117 117 117
117 117 117 117 119 120 121 122 123 125 125 128 130 131 133 135 137 138
140 142 144 146 148 149 151 152 154 155 156 156 158 159 159 159 159 159
156 156 156 156 156 156 156 156 156 156 156 156 156 156 156 156 156 156
156 156 156 156 156 156 156 156 156 156 156 156 156 156 156 156 155 155
154 153 152 152 151 150 148 147 146 145 143 142 141 139 138 137 135 134
133 132 131 130 130 129 129 128 128 128 128 129 129 130 130 131 132 133
135 136 137 139 141 142 144 146 148 149 151 153 155 156 158 159 162 163
164 165 167 168 169 169 170 170 171 171 167 167 167 167 167 167 167 167
167 167 167 167 167 167 168 168 168 168 168 168 168 168 168 168 168 168
168 168 168 168 167 167 167 165 165 165 165 164 163 162 161 159 159 158
156 156 154 153 152 151 149 148 147 146 144 143 142 142 141 140 140 140
140 139 140 140 140 141 142 142 143 144 146 147 149 150 152 153 155 156
158 159 162 164 165 167 169 170 171 173 175 176 177 177 178 178 180 180
181 181 177 177 177 177 177 177 177 177 177 177 177 177 177 177 177 177
177 177 177 177 177 177 177 178 178 178 177 177 177 177 177 177 177 177
176 176 175 175 174 173 171 171 170 169 168 165 165 164 163 161 159 159
158 156 155 155 154 153 152 152 151 151 151 151 151 151 152 152 153 154
155 156 156 158 159 161 162 164 165 167 169 171 171 174 176 177 178 180
182 183 184 184 187 187 188 189 189 189 189 189 187 187 187 187 187 187
187 187 187 187 187 187 187 188 188 188 188 188 188 188 188 188 188 188
188 188 188 188 188 188 187 187 187 187 186 186 184 184 184 183 182 181
180 178 177 177 175 174 173 171 170 169 168 167 165 165 164 164 163 162
162 162 162 161 162 162 162 163 164 164 165 165 167 168 170 171 173 174
176 177 178 180 182 184 184 187 188 189 190 192 192 194 195 195 197 198
198 198 198 198 195 195 195 195 195 195 195 195 195 195 195 195 197 197
197 197 197 197 197 197 197 197 197 197 197 197 197 197 197 197 197 195
195 195 195 195 194 194 192 192 190 189 189 188 187 186 184 184 183 182
180 178 177 177 176 175 175 174 173 173 171 171 171 171 171 171 173 173
174 174 175 176 177 177 180 181 182 184 184 187 188 189 190 192 194 195
197 198 200 201 201 203 203 204 204 206 206 207 207 207 204 204 204 204
204 204 204 204 204 204 204 204 204 204 204 204 204 204 206 206 206 206
206 206 206 206 206 206 204 204 204 204 204 203 203 203 203 201 201 201
200 198 198 197 195 195 194 192 192 190 189 189 188 187 186 184 184 184
183 183 183 182 182 182 182 182 183 183 184 184 184 186 187 188 189 190
192 192 195 195 197 198 200 201 203 203 204 206 207 209 209 210 212 212
213 213 213 213 213 215 212 212 212 212 212 212 212 212 212 212 212 213
213 213 213 213 213 213 213 213 213 213 213 213 213 213 213 213 213 213
212 212 212 212 210 210 209 209 209 209 207 207 206 204 203 203 203 201
201 200 198 198 197 195 195 194 194 192 192 192 192 190 190 190 190 192
192 192 192 192 194 195 195 197 198 198 200 201 203 203 204 206 207 209
209 210 213 213 215 216 217 217 218 219 219 220 220 220 220 220 219 219
219 219 219 219 219 219 219 219 219 219 219 219 220 220 220 220 220 220
220 220 220 220 220 220 220 220 220 220 219 219 219 219 218 218 217 217
216 216 215 213 213 213 212 210 209 209 207 207 207 206 204 203 203 203
201 201 201 201 200 200 200 200 200 200 201 201 201 201 203 203 203 204
206 207 207 209 209 210 213 213 215 216 217 218 219 220 220 222 223 223
223 225 225 226 226 226 226 226 225 225 225 225 225 225 225 225 226 226
226 226 226 226 226 226 226 226 226 226 226 226 226 226 226 226 226 226
226 226 226 225 225 225 225 223 223 223 223 222 222 220 220 220 219 218
217 217 216 215 213 213 213 212 210 210 209 209 209 209 207 207 207 207
207 207 209 209 209 209 210 210 212 213 213 213 215 216 217 218 219 220
220 222 223 223 225 226 226 228 229 229 229 229 231 231 231 232 232 232
231 231 231 231 231 231 231 231 231 231 231 231 231 231 231 231 231 231
231 231 231 231 231 231 231 231 231 231 231 231 231 231 229 229 229 229
229 229 228 228 226 226 226 226 225 223 223 223 222 220 220 220 219 219
218 217 217 216 216 216 215 215 215 215 215 215 216 216 216 217 217 218
219 219 220 220 222 222 223 223 225 226 226 228 229 229 229 231 232 232
232 234 234 235 235 235 235 235 235 235 235 235 235 235 235 235 235 235
235 235 235 235 235 235 235 235 235 235 235 235 235 235 235 235 235 235
235 235 235 235 235 235 235 235 235 234 234 234 232 232 232 232 231 231
229 229 229 228 228 226 226 226 225 225 223 223 223 223 223 222 222 222
222 222 222 222 222 222 223 223 223 223 225 225 226 226 226 228 229 229
229 231 232 232 234 234 235 235 235 237 237 238 238 238 238 238 240 240
240 240 238 238 238 238 238 238 238 238 238 238 238 238 238 238 238 238
240 240 240 240 240 240 240 240 240 240 240 240 238 238 238 238 238 238
238 238 238 238 237 237 237 235 235 235 235 234 234 232 232 232 232 231
231 229 229 229 229 228 228 228 228 228 228 228 228 228 228 228 228 229
229 229 229 231 231 232 232 232 234 234 235 235 235 237 238 238 238 238
240 240 241 241 242 242 242 243 243 243 243 243 243 243 243 243 243 243
243 243 243 243 243 243 243 243 243 243 243 243 243 243 243 243 243 243
243 243 243 243 243 243 243 242 242 242 242 242 242 241 241 241 240 240
240 238 238 238 238 237 237 235 235 235 235 235 234 234 234 232 232 232
232 232 232 232 232 232 232 232 232 232 234 234 235 235 235 235 237 237
238 238 238 238 240 241 241 242 242 243 243 243 244 244 244 244 244 244
246 246 246 246 244 244 244 244 244 244 244 244 244 244 244 246 246 246
246 246 246 246 246 246 246 246 246 246 246 246 246 246 246 244 244 244
244 244 244 244 244 244 244 244 244 243 243 243 242 242 241 241 241 240
240 240 238 238 238 238 238 238 237 237 237 237 237 237 237 237 237 237
238 238 238 238 238 238 240 240 240 241 241 242 242 243 243 244 244 244
244 244 246 246 246 247 247 247 248 248 248 248 248 248 248 248 248 248
248 248 248 248 248 248 248 248 248 248 248 248 248 248 248 248 248 248
248 248 248 248 248 248 248 248 248 248 247 247 247 247 247 247 247 246
246 246 246 244 244 244 244 244 244 243 243 243 242 242 242 242 241 241
241 241 241 241 241 240 241 241 241 241 241 241 241 242 242 242 243 243
243 244 244 244 244 244 246 246 247 247 247 248 248 248 248 248 248 248
248 248 250 250 250 250 248 248 248 250 250 250 250 250 250 250 250 250
250 250 250 250 250 250 250 250 250 250 250 250 250 250 250 250 250 250
248 248 248 248 248 248 248 248 248 248 248 248 248 248 247 247 247 246
246 246 246 244 244 244 244 244 244 244 244 244 244 244 244 244 244 244
244 244 244 244 244 244 244 244 244 246 246 246 247 247 247 248 248 248
248 248 248 248 250 250 250 250 250 250 250 250 250 250 250 250 250 250
250 250 250 250 250 250 250 250 250 250 250 250 250 250 250 250 250 250
250 250 250 250 250 250 250 250 250 250 250 250 250 250 250 250 250 250
250 250 250 250 250 248 248 248 248 248 248 248 248 248 247 247 247 247
247 247 247 246 246 246 246 246 246 246 246 246 247 247 247 247 247 247
248 248 248 248 248 248 248 248 250 250 250 250 250 250 250 250 251 251
251 251 251 251 251 251 251 251 251 251 251 251 251 251 251 251 251 251
251 251 251 251 251 251 251 251 251 251 251 251 251 251 251 251 251 251
251 251 251 251 251 251 251 251 251 251 251 250 250 250 250 250 250 250
250 250 250 250 250 248 248 248 248 248 248 248 248 248 248 248 248 248
248 248 248 248 248 248 248 248 248 248 248 250 250 250 250 250 250 250
250 250 251 251 251 251 251 251 253 253 253 253 253 253 253 253 253 253
253 253 253 253 253 253 253 253 253 253 253 253 253 253 253 253 253 253
253 253 253 253 253 253 253 253 253 253 253 253 253 253 253 253 253 253
253 253 253 253 251 251 251 251 251 251 251 251 250 250 250 250 250 250
250 250 250 250 250 250 250 250 250 250 250 250 250 250 250 250 250 250
250 250 250 250 250 250 251 251 251 251 251 251 253 253 253 253 253 253
253 253 254 254 254 254 254 254 254 254 254 254 254 254 254 254 254 254
254 254 254 254 254 254 254 254 254 254 254 254 254 254 254 254 254 254
254 254 254 254 254 254 254 254 254 254 254 254 253 253 253 253 253 253
253 253 253 253 251 251 251 251 251 251 251 251 251 251 251 251 250 250
250 250 250 250 250 251 251 251 251 251 251 251 251 251 251 253 253 253
253 253 253 253 253 254 254 254 254 254 254 254 254 254 254 254 254 254
254 254 254 254 254 254 254 254 254 254 254 254 254 254 254 254 254 254
254 254 254 254 254 254 254 254 254 254 254 254 254 254 254 254 254 254
254 254 254 254 254 254 254 254 254 254 254 254 253 253 253 253 253 253
253 253 253 253 253 253 253 253 253 251 251 251 251 251 253 253 253 253
253 253 253 253 253 253 253 253 253 254 254 254 254 254 254 254 254 254
254 254 254 254 254 254 254 254 254 254 254 254 254 254 254 254 254 254
254 254 254 254 254 254 254 254 254 254 254 254 254 254 254 254 254 254
254 254 254 254 254 254 254 254 254 254 254 254 254 254 254 254 254 254
254 254 254 254 254 254 254 254 254 254 254 254 254 254 254 253 253 253
253 253 253 253 253 253 253 253 253 254 254 254 254 254 254 254 254 254
254 254 254 254 254 254 254 254 254 254 254 254 254 254 254 254 254 254
254 254 254 254 254 254 254 254 254 254 254 254 254 254 254 254 254 254
254 254 254 254 254 254 254 254 254 254 254 254 254 254 254 254 254 254
254 254 254 254 254 254 254 254 254 254 254 254 254 254 254 254 254 254
254 254 254 254 254 254 254 254 254 254 254 254 254 254 254 254 254 254
254 254 254 254 254 254 254 254 254 254 254 254 254 254 254 254 254 254
254 254 254 254 254 254 254 254 254 254 254 254 254 254 254 254 254 254
254 254 254 254 254 254 254 254 254 254 254 254 254 254 254 254 254 254
254 254 254 254 254 254 254 254 254 254 254 254 254 254 254 254 254 254
254 254 254 254 254 254 254 254 254 254 254 254 254 254 254 254 254 254
254 254 254 254 254 254 254 254 254 254 254 254 254 254 254 254 254 254
254 254 254 254 254 254 254 254 254 254 254 254 254 254 254 254 254 254
254 254 254 254 254 254 254 254 254 254 254 254 254 254 254 254 254 254
254 254 254 254 254 254 254 254 254 254 254 254 254 254 254 254 254 254
254 254 254 254 254 254 254 254 254 254 254 254 254 254 254 254 254 254
254 254 254 254 254 254 254 254 254 254 254 254 254 254 254 254 254 254
254 254 254 254 254 254 254 254 254 254 254 254 254 254 254 254 254 254
254 254 254 254 254 254 254 254 254 254 254 254 254 254 254 254 254 254
254 254 254 254 254 254 254 254 254 254 254 254 254 254 254 254 254 254
254 254 254 254 254 254 254 254 254 254 254 254 254 254 254 254 254 254
254 254 254 254 254 254 254 254 254 254 254 254 254 254 254 254 254 254
254 254 254 254 254 254 254 254 254 254 254 254 254 254 254 254 254 254
254 254 254 254 254 254 254 254 254 254 254 254 254 254 254 254 254 254
254 254 254 254 254 254 254 254 254 254 254 254 254 254 254 254 254 254
254 254 254 254 254 254 254 254 254 254 254 254 254 254 254 254 254 254
254 254 254 254 254 254 254 254 254 254 254 254 254 254 254 254 254 254
254 254 254 254 254 254 254 254 254 254 254 254 254 254 254 254 254 254
254 254 254 254 254 254 254 254 254 254 254 254 254 254 254 254 254 254
254 254 254 254 254 254 254 254 254 254 254 254 254 254 254 254 254 254
254 254 254 254 254 254 254 254 254 254 254 254 254 254 254 254 254 254
254 254 254 254 254 254 254 254 254 254 254 254 254 254 254 254 254 254
254 254 254 254 254 254 254 254 254 254 254 254 254 254 254 254 254 254
254 254 254 254 254 254 254 254 254 254 254 254 254 254 254 254 254 254
254 254 254 254 254 254 254 254 254 254 254 254 254 254 254 254 254 254
254 254 254 254 254 254 254 254 254 254 254 254 254 254 254 254 254 254
254 254 254 254 254 254 254 254 254 254 254 254 254 254 254 254 254 254
254 254 254 254 254 254 254 254 254 254 254 254 254 254 254 254 254 254
254 254 254 254 254 254 254 254 254 254 254 254 254 254 254 254 254 254
254 254 254 254 254 254 254 254 254 254 254 254 254 254 254 254 254 254
254 254 254 254 254 254 254 254 254 254 254 254 254 254 254 254 254 254
254 254 254 254 254 254 254 254 254 254 254 254 254 254 254 254 254 254
254 254 254 254 254 254 254 254 254 254 254 254 254 254 254 254 254 254
254 254 254 254 254 254 254 254 254 254 254 254 254 254 254 254 254 254
254 254 254 254 254 254 254 254 254 254 254 254 254 254 254 254 254 254
254 254 254 254 254 254 254 254 254 254 254 254 254 254 254 254 254 254
254 254 254 254 254 254 254 254 254 254 254 254 254 254 254 254 254 254
254 254 254 254 254 254 254 254 254 254 254 254 254 254 254 254 254 254
254 254 254 254 254 254 254 254 254 254 254 254 254 254 254 254 254 254
254 254 254 254 254 254 254 254 254 254 254 254 254 254 254 254 254 254
254 254 254 254 254 254 254 254 254 254 254 254 254 254 254 254 254 254
254 254 254 254 254 254 254 254 254 254 254 254 254 254 254 254 254 254
254 254 254 254 254 254 254 254 254 254 254 254 254 254 254 254 254 254
254 254 254 254 254 254 254 254 254 254 254 254 254 254 254 254 254 254
254 254 254 254 254 254 254 254 254 254 254 254 254 254 254 254 254 254
254 254 254 254 254 254 254 254 254 254 254 254 254 254 254 254 254 254
254 254 254 254 254 254 254 254 254 254 254 254 254 254 254 254 254 254
254 254 254 254 254 254 254 254 254 254 254 254 254 254 254 254 254 254
254 254 254 254 254 254 254 254 254 254 254 254 254 254 254 254 254 254
254 254 254 254 254 254 254 254 254 254 254 254 254 254 254 254 254 254
254 254 254 254 254 254 254 254 254 254 254 254 254 254 254 254 254 254
254 254 254 254 254 254 254 254 254 254 254 254 254 254 254 254 254 254
254 254 254 254 254 254 254 254 254 254 254 254 254 254 254 254 254 254
254 254 254 254 254 254 254 254 254 254 254 254 254 254 254 254 254 254
254 254 254 254 254 254 254 254 254 254 254 254 254 254 254 254 254 254
254 254 254 254 254 254 254 254 254 254 254 254 254 254 254 254 254 254
254 254 254 254 254 254 254 254 254 254 254 254 254 254 254 254 254 254
254 254 254 254 254 254 254 254 254 254 254 254 254 254 254 254 254 254
254 254 254 254 254 254 254 254 254 254 254 254 254 254 254 254 254 254
254 254 254 254 254 254 254 254 254 254 254 254 254 254 254 254 254 254
254 254 254 254 254 254 254 254 254 254 254 254 254 254 254 254 254 254
254 254 254 254 254 254 254 254 254 254 254 254 254 254 254 254 254 254
254 254 254 254 254 254 254 254 254 254 254 254 254 254 254 254 254 254
254 254 254 254 254 254 254 254 254 254 254 254 254 254 254 254 254 254
254 254 254 254 254 254 254 254 254 254 254 254 254 254 254 254 254 254
254 254 254 254 254 254 254 254 254 254 254 254 254 254 254 254 254 254
254 254 254 254 254 254 254 254 254 254 254 254 254 254 254 254 254 254
254 254 254 254 254 254 254 254 254 254 254 254 254 254 254 254 254 254
254 254 254 254 254 254 254 254 254 254 254 254 254 254 254 254 254 254
254 254 254 254 254 254 254 254 254 254 254 254 254 254 254 254 254 254
254 254 254 254 254 254 254 254 254 254 254 254 254 254 254 254 254 254
254 254 254 254 254 254 254 254 254 254 254 254 254 254 254 254 254 254
254 254 254 254 254 254 254 254 254 254 254 254 254 254 254 254 254 254
254 254 254 254 254 254 254 254 254 254 254 254 254 254 254 254 254 254
254 254 254 254 254 254 254 254 254 254 254 254 254 254 254 254 254 254
254 254 254 254 254 254 254 254 254 254 254 254 254 254 254 254 254 254
254 254 254 254 254 254 254 254 254 254 254 254 254 254 254 254 254 254
254 254 254 254 254 254 254 254 254 254 254 254 254 254 254 254 254 254
254 254 254 254 254 254 254 254 254 254 254 254 254 254 254 254 254 254
254 254 254 254 254 254 254 254 254 254 254 254 254 254 254 254 254 254
254 254 254 254 254 254 254 254 254 254 254 254 254 254 254 254 254 254
254 254 254 254 254 254 254 254 254 254 254 254 254 254 254 254 254 254
254 254 254 254 254 254 254 254 254 254 254 254 254 254 254 254 254 254
254 254 254 254 254 254 254 254 254 254 254 254 254 254 254 254 254 254
254 254 254 254 254 254 254 254 254 254 254 254 254 254 254 254 254 254
254 254 254 254 254 254 254 254 254 254 254 254 254 254 254 254 254 254
254 254 254 254 254 254 254 254 254 254 254 254 254 254 254 254 254 254
254 254 254 254 254 254 254 254 254 254 254 254 254 254 254 254 254 254
254 254 254 254 254 254 254 254 254 254 254 254 254 254 254 254 254 254
254 254 254 254 254 254 254 254 254 254 254 254 254 254 254 254 254 254
254 254 254 254 254 254 254 254 254 254 254 254 254 254 254 254 254 254
254 254 254 254 254 254 254 254 254 254 254 254 254 254 254 254 254 254
254 254 254 254 254 254 254 254 254 254 254 254 254 254 254 254 254 254
254 254 254 254 254 254 254 254 254 254 254 254 254 254 254 254 254 254
254 254 254 254 254 254 254 254 254 254 254 254 254 254 254 254 254 254
254 254 254 254 254 254 254 254 254 254 254 254 254 254 254 254 254 254
254 254 254 254 254 254 254 254 254 254 254 254 254 254 254 254 254 254
254 254 254 254 254 254 254 254 254 254 254 254 254 254 254 254 254 254
254 254 254 254 254 254 254 254 254 254 254 254 254 254 254 254 254 254
254 254 254 254 254 254 254 254 254 254 254 254 254 254 254 254 254 254
254 254 254 254 254 254 254 254 254 254 254 254 254 254 254 254 254 254
254 254 254 254 254 254 254 254 254 254 254 254 254 254 254 254 254 254
254 254 254 254 254 254 254 254 254 254 254 254 254 254 254 254 254 254
254 254 254 254 254 254 254 254 254 254 254 254 254 254 254 254 254 254
254 254 254 254 254 254 254 254 254 254 254 254 254 254 254 254 254 254
254 254 254 254 254 254 254 254 254 254 254 254 254 254 254 254 254 254
254 254 254 254 254 254 254 254 254 254 254 254 254 254 254 254 254 254
254 254 254 254 254 254 254 254 254 254 254 254 254 254 254 254 254 254
254 254 254 254 254 254 254 254 254 254 254 254 254 254 254 254 254 254
254 254 254 254 254 254 254 254 254 254 254 254 254 254 254 254 254 254
254 254 254 254 254 254 254 254 254 254 254 254 254 254 254 254 254 254
254 254 254 254 254 254 254 254 254 254 254 254 254 254 254 254 254 254
254 254 254 254 254 254 254 254 254 254 254 254 254 254 254 254 254 254
254 254 254 254 254 254 254 254 254 254 254 254 254 254 254 254 254 254
254 254 254 254 254 254 254 254 254 254 254 254 254 254 254 254 254 254
254 254 254 254 254 254 254 254 254 254 254 254 254 254 254 254 254 254
254 254 254 254 254 254 254 254 254 254 254 254 254 254 254 254 254 254
254 254 254 254 254 254 254 254 254 254 254 254 254 254 254 254 254 254
254 254 254 254 254 254 254 254 254 254 254 254 254 254 254 254 254 254
254 254 254 254 254 254 254 254 254 254 254 254 254 254 254 254 254 254
